<?xml version="1.0" standalone="no"?>
<!DOCTYPE svg PUBLIC "-//W3C//DTD SVG 1.1//EN" "http://www.w3.org/Graphics/SVG/1.1/DTD/svg11.dtd" >
<svg xmlns="http://www.w3.org/2000/svg" xmlns:xlink="http://www.w3.org/1999/xlink" version="1.1">
<metadata>
Created by FontForge 20170731 at Sat Jan 12 13:32:03 2008
 By Aleksey,,,
Copyright (C) 1993 Emigre Graphics; Designed by Jonathan Barnbrook
</metadata>
<defs>
<font id="MasonChronicles" horiz-adv-x="575" >
  <font-face 
    font-family="Mason Chronicles"
    font-weight="5"
    font-stretch="normal"
    units-per-em="1000"
    panose-1="2 0 0 0 0 0 0 0 0 0"
    ascent="800"
    descent="-200"
    x-height="446"
    cap-height="627"
    bbox="-359 -282 1322 979"
    underline-thickness="20"
    underline-position="-163"
    unicode-range="U+0020-F002"
  />
<missing-glyph horiz-adv-x="800" 
d="M50 0v800h700v-800h-700zM700 50v700h-600v-700h600z" />
    <glyph glyph-name=".notdef" horiz-adv-x="800" 
d="M50 0v800h700v-800h-700zM700 50v700h-600v-700h600z" />
    <glyph glyph-name=".null" horiz-adv-x="0" 
 />
    <glyph glyph-name="nonmarkingreturn" horiz-adv-x="278" 
 />
    <glyph glyph-name="space" unicode=" " horiz-adv-x="278" 
 />
    <glyph glyph-name="exclam" unicode="!" horiz-adv-x="300" 
d="M200 568q-11 -4 -25.5 -99.5t-25 -201t-10.5 -126.5h-8q0 28 -10 134.5t-22 184.5q-16 103 -29 108v8q21 7 37 23.5t24 37.5h8q7 -21 23.5 -37t37.5 -24v-8zM200 30q-18 -7 -33.5 -23.5t-27.5 -37.5h-8q-8 19 -24.5 36.5t-36.5 24.5v8q21 7 37 23.5t24 37.5h8
q7 -21 23.5 -37t37.5 -24v-8z" />
    <glyph glyph-name="quotedbl" unicode="&#x22;" horiz-adv-x="470" 
d="M200 568q-22 -8 -38 -48.5t-23 -122.5h-8q-7 83 -22.5 123t-38.5 48v8q21 7 37 23.5t24 37.5h8q7 -21 23.5 -37t37.5 -24v-8zM400 568q-22 -8 -38 -48.5t-23 -122.5h-8q-7 83 -22.5 123t-38.5 48v8q21 7 37 23.5t24 37.5h8q7 -21 23.5 -37t37.5 -24v-8z" />
    <glyph glyph-name="numbersign" unicode="#" horiz-adv-x="668" 
d="M622 177h-160l-41 -200h-52l43 200h-216l-41 -200h-51l42 200h-101v51h111l40 190h-151v51h162l42 200h50l-42 -200h215l42 200h50l-42 -200h100v-51h-110l-40 -190h150v-51zM462 418h-216l-40 -189h216z" />
    <glyph glyph-name="dollar" unicode="$" horiz-adv-x="530" 
d="M462 156q0 -51 -36 -94t-98 -64v-63h-38v54q-19 -4 -45 -4l-17 1v-51h-38v55q-30 5 -59.5 16.5t-37.5 14.5l-20 128h14q23 -111 103 -133v319q-50 32 -76 65q-32 40 -32 82q0 55 28.5 92.5t79.5 52.5v60h38v-52l32 2l30 -2v52h38v-60q19 -6 28 -9q28 -9 55 -9l15 -95h-8
q-15 39 -37.5 60t-52.5 30v-265q65 -40 95 -77q39 -48 39 -106zM290 361v251l-35 1l-27 -3v-212l43 -26zM190 425v169q-45 -31 -45 -84q0 -27 11 -47t34 -38zM390 128q0 67 -62 119v-219q62 31 62 100zM290 15v260l-62 38v-303h17q14 0 22 1t23 4z" />
    <glyph glyph-name="percent" unicode="%" horiz-adv-x="754" 
d="M378 497q0 -60 -43.5 -104.5t-107.5 -44.5q-65 0 -108 38.5t-43 102.5q0 61 43.5 104.5t107.5 43.5t107.5 -38.5t43.5 -101.5zM641 654l-486 -681h-41l486 681h41zM678 134q0 -60 -43.5 -104.5t-107.5 -44.5q-65 0 -108 38.5t-43 102.5q0 61 43.5 104.5t107.5 43.5
t107.5 -38.5t43.5 -101.5zM316 493q0 51 -28 86t-70 35q-38 0 -59.5 -34.5t-21.5 -86.5q6 -54 32.5 -88.5t67.5 -34.5q35 0 57.5 30.5t22.5 76.5q-1 11 -1 16zM616 130q0 51 -28 86t-70 35q-38 0 -59.5 -34.5t-21.5 -86.5q6 -54 32.5 -88.5t67.5 -34.5q35 0 57.5 30.5
t22.5 76.5q-1 11 -1 16z" />
    <glyph glyph-name="ampersand" unicode="&#x26;" horiz-adv-x="822" 
d="M395 439q43 41 43 91q0 35 -21 59t-55 24q-75 0 -76 -86q-1 -54 38 -137q46 25 71 49zM406 86q-48 62 -70 96q-19 29 -78 137q-49 -29 -76 -58q-40 -45 -40 -104q0 -56 35 -94q36 -40 91 -41q71 0 138 64zM243 353q-34 76 -35 132q0 67 40 112q42 47 109 48q57 0 94 -30
q39 -32 40 -88q0 -101 -152 -168q63 -115 129 -201q89 110 90 176q0 27 -20 37q-11 6 -43 9v20h210v-20q-32 -4 -47 -12q-26 -12 -44 -46l-25 -45q-25 -47 -45 -75q-22 -31 -53 -71q23 -27 43 -45q51 -45 106 -45q32 -1 54 15q8 6 78 100q-2 -9 -20 -52q-21 -48 -28 -59
q-38 -54 -91 -69q-19 -6 -38 -6q-46 0 -92 29q-27 17 -72 61q-42 -39 -87 -61q-58 -29 -126 -29q-77 0 -122 40.5t-46 112.5q0 118 156 208z" />
    <glyph glyph-name="quotesingle" unicode="'" horiz-adv-x="300" 
d="M200 568q-22 -8 -38 -48.5t-23 -122.5h-8q-7 83 -22.5 123t-38.5 48v8q21 7 37 23.5t24 37.5h8q7 -21 23.5 -37t37.5 -24v-8z" />
    <glyph glyph-name="parenleft" unicode="(" horiz-adv-x="402" 
d="M336 -112l-7 -14q-102 98 -160 204q-69 126 -69 253q0 125 69 252q59 108 160 205l7 -14q-74 -83 -119 -192q-50 -122 -50 -251t50 -251q44 -108 119 -192z" />
    <glyph glyph-name="parenright" unicode=")" horiz-adv-x="402" 
d="M300 331q0 -125 -69 -252q-59 -108 -160 -205l-7 14q74 83 119 192q50 122 50 251t-50 251q-44 108 -119 192l7 14q102 -98 160 -204q69 -126 69 -253z" />
    <glyph glyph-name="asterisk" unicode="*" horiz-adv-x="478" 
d="M428 443q-105 0 -144.5 -39.5t-39.5 -144.5h-10q0 105 -39.5 144.5t-144.5 39.5v10q105 0 144.5 39.5t39.5 144.5h10q0 -105 39.5 -144.5t144.5 -39.5v-10z" />
    <glyph glyph-name="plus" unicode="+" horiz-adv-x="667" 
d="M597 281h-238v-236h-53v236h-237v52h237v238h53v-238h238v-52z" />
    <glyph glyph-name="comma" unicode="," horiz-adv-x="300" 
d="M200 30q-13 -11 -42.5 -71t-48.5 -75l-11 8q12 17 19.5 36t7.5 35q0 22 -13 39t-42 28v8q21 7 37 23.5t24 37.5h8q7 -21 23.5 -37t37.5 -24v-8z" />
    <glyph glyph-name="hyphen" unicode="-" horiz-adv-x="407" 
d="M367 284h-327v46h327v-46z" />
    <glyph glyph-name="period" unicode="." horiz-adv-x="300" 
d="M206 30q-20 -8 -36.5 -25.5t-30.5 -41.5h-8q-10 23 -27 40.5t-40 26.5v8q23 8 40.5 26t26.5 41h8q8 -23 26 -40.5t41 -26.5v-8z" />
    <glyph glyph-name="slash" unicode="/" horiz-adv-x="458" 
d="M420 637l-319 -652h-62l318 652h63z" />
    <glyph glyph-name="zero" unicode="0" horiz-adv-x="610" 
d="M520 321q0 -138 -60 -235q-63 -101 -155 -101q-91 0 -153 87.5t-62 228.5q0 138 61.5 237t153.5 99q91 0 153 -87.5t62 -228.5zM450 311q0 123 -46 209.5t-114 86.5q-61 0 -96 -84.5t-35 -211.5q0 -123 47 -209.5t115 -86.5q61 0 95 84.5t34 211.5z" />
    <glyph glyph-name="one" unicode="1" horiz-adv-x="482" 
d="M352 -5l-14 1l-78 5h-38l-78 -5l-14 -1l1 13l11 1q37 4 51 16t14 43v486q0 29 -14 42t-51 17l-11 1l-1 13l14 -1l78 -5h38l78 5l14 1l-1 -13l-11 -1q-37 -4 -51 -16t-14 -43v-486q0 -29 14 -42t51 -17l11 -1z" />
    <glyph glyph-name="two" unicode="2" horiz-adv-x="593" 
d="M513 -77l-13 1l-1 11q-4 37 -16 51t-43 14h-363l3 17q28 35 134 147q85 91 125 151q56 85 56 153q0 64 -35.5 104.5t-95.5 40.5q-49 0 -82 -32t-33 -79v-9q0 -57 64 -67l11 -1l1 -13q-37 2 -58 3q-60 4 -87 10q0 103 64 161q56 51 135 51q84 0 139 -43.5t55 -119.5
q0 -87 -117 -214q-95 -96 -189 -192h273q29 0 42 14t17 51l1 11l13 1l-1 -14l-5 -78v-38l5 -78z" />
    <glyph glyph-name="three" unicode="3" horiz-adv-x="570" 
d="M488 191q0 -84 -59 -145t-146 -61q-47 0 -84 15t-68 44q-21 19 -39 19q-20 0 -49 -23l-8 -7l-10 8l11 9q19 16 26 22q20 17 32 30l27 27q5 5 22 24q9 10 30 34l9 11l8 -10l-7 -8q-22 -28 -22 -48q0 -11 5 -24q2 -6 7 -16q15 -33 48 -56.5t77 -23.5q52 0 85.5 43.5
t33.5 108.5q0 14 -1 21q-6 68 -48 107t-100 39q-15 0 -32 -6q-3 -1 -7 -3q72 59 114 113q47 59 61 119h-198q-29 0 -42 -14t-17 -51l-1 -11l-13 -1l1 14l5 78v38l-5 78l-1 14l13 -1l1 -11q4 -37 16 -51t43 -14h259q-14 -69 -48 -131.5t-83 -111.5q68 -15 111 -65t43 -123z
" />
    <glyph glyph-name="four" unicode="4" horiz-adv-x="590" 
d="M502 91l-13 1l-1 11q-4 37 -16 51t-43 14h-29v-100q0 -29 14 -42t51 -17l11 -1l1 -13l-14 1l-78 5h-38l-78 -5l-14 -1l1 13l11 1q37 4 51 16t14 43v100h-292l305 453h40l78 5l14 1l-1 -13l-11 -1q-37 -4 -51 -16t-14 -43v-337h29q29 0 42 14t17 51l1 11l13 1l-1 -14
l-5 -78v-19l5 -78zM332 217v316l-212 -316h212z" />
    <glyph glyph-name="five" unicode="5" horiz-adv-x="558" 
d="M468 191q0 -84 -59 -145t-146 -61q-66 0 -118 32q-60 37 -81 105q39 20 92 40q16 6 42 15l3 -13l-10 -4q-46 -23 -46 -53q0 -11 6 -25q18 -39 54 -57q30 -15 66 -15q56 0 90.5 40.5t34.5 103.5q0 13 -1 20q-7 70 -47 115q-43 48 -107 48q-72 0 -112 -37l-18 18l20 304
h229q29 0 42 14t17 51l1 11l13 1l-1 -14l-5 -78v-38l5 -78l1 -14l-13 1l-1 11q-4 37 -16 51t-43 14h-194l-14 -201q25 15 52 23t59 8q86 0 145.5 -53.5t59.5 -139.5z" />
    <glyph glyph-name="six" unicode="6" horiz-adv-x="573" 
d="M495 175q0 -85 -52.5 -137.5t-129.5 -52.5q-100 0 -158 71q-61 74 -61 206v24t2 28q11 128 83 222q64 84 155 117q7 3 13 1q5 -1 5 -5q0 -8 -14 -15q-73 -40 -116 -118q-50 -90 -50 -216q21 34 59.5 54.5t81.5 20.5q78 0 130 -59t52 -141zM428 180q0 73 -29 121.5
t-83 48.5q-56 0 -93.5 -49t-43.5 -121q0 -73 29 -120.5t82 -47.5q56 0 94 48t44 120z" />
    <glyph glyph-name="seven" unicode="7" horiz-adv-x="530" 
d="M488 622l-147 -302q-76 -156 -118.5 -220.5t-88.5 -101.5q-13 -10 -21 -10q-7 0 -6 7t13 20q30 33 60 89q40 75 103 234l86 216h-252q-29 0 -42 -14t-17 -51l-1 -11l-13 -1l1 14l5 78v53h438z" />
    <glyph glyph-name="eight" unicode="8" 
d="M490 156q0 -64 -59 -117.5t-139 -53.5q-95 0 -150 60q-47 51 -47 118q0 58 32.5 105.5t86.5 69.5q-50 33 -74 63q-30 38 -30 81q0 71 56 115q51 40 122 40q74 0 124.5 -40.5t50.5 -101.5q0 -37 -26.5 -72t-62.5 -52q-8 -4 -13 -4t-5 3q0 4 5 9q22 20 34.5 47t12.5 63
q0 53 -31 86q-34 36 -88 36q-55 0 -85.5 -29.5t-30.5 -71.5q0 -34 22.5 -62.5t103.5 -75.5q95 -54 133 -90q58 -56 58 -126zM418 128q0 56 -40 99q-34 36 -126 88l-7 4q-45 -15 -73.5 -55.5t-28.5 -94.5q0 -67 47 -112q43 -41 97 -41q53 0 92 32t39 80z" />
    <glyph glyph-name="nine" unicode="9" horiz-adv-x="573" 
d="M479 308q-11 -128 -83 -222q-64 -84 -155 -117q-7 -3 -13 -1q-5 1 -5 5q0 8 14 15q73 40 116 118q50 90 50 216q-21 -34 -59.5 -54.5t-81.5 -20.5q-78 0 -130 59t-52 141q0 85 52.5 137.5t129.5 52.5q100 0 159.5 -72.5t59.5 -204.5v-19v-16q-2 -12 -2 -17zM396 442
q0 73 -29 120.5t-82 47.5q-56 0 -94 -48t-44 -120q0 -73 29 -121.5t83 -48.5q56 0 93.5 49t43.5 121z" />
    <glyph glyph-name="colon" unicode=":" horiz-adv-x="300" 
d="M200 360q-18 -7 -33.5 -23.5t-27.5 -37.5h-8q-8 19 -24.5 36.5t-36.5 24.5v8q21 7 37 23.5t24 37.5h8q7 -21 23.5 -37t37.5 -24v-8zM200 30q-18 -7 -33.5 -23.5t-27.5 -37.5h-8q-8 19 -24.5 36.5t-36.5 24.5v8q21 7 37 23.5t24 37.5h8q7 -21 23.5 -37t37.5 -24v-8z" />
    <glyph glyph-name="semicolon" unicode=";" horiz-adv-x="300" 
d="M200 360q-18 -7 -33.5 -23.5t-27.5 -37.5h-8q-8 19 -24.5 36.5t-36.5 24.5v8q21 7 37 23.5t24 37.5h8q7 -21 23.5 -37t37.5 -24v-8zM200 30q-13 -11 -42.5 -71t-48.5 -75l-11 8q12 17 19.5 36t7.5 35q0 22 -13 39t-42 28v8q21 7 37 23.5t24 37.5h8q7 -21 23.5 -37
t37.5 -24v-8z" />
    <glyph glyph-name="less" unicode="&#x3c;" horiz-adv-x="330" 
d="M255 65h-18l-147 184l147 186h18l-95 -186z" />
    <glyph glyph-name="equal" unicode="=" horiz-adv-x="667" 
d="M597 391h-527v53h527v-53zM597 163h-527v53h527v-53z" />
    <glyph glyph-name="greater" unicode="&#x3e;" horiz-adv-x="330" 
d="M240 249l-147 -184h-18l95 184l-95 186h18z" />
    <glyph glyph-name="question" unicode="?" horiz-adv-x="438" 
d="M386 461q0 -54 -44.5 -101.5t-108.5 -70.5q-38 -15 -50 -27q-8 -9 -11 -29l-10 -81h-10l-17 160q77 0 126.5 45.5t49.5 104.5q0 58 -35 102q-38 48 -92 48q-59 0 -83 -29q-17 -21 -30 -82h-11q0 68 -5 110q38 15 62.5 20.5t66.5 5.5q88 0 145 -48.5t57 -127.5zM222 30
q-18 -7 -33.5 -23.5t-27.5 -37.5h-8q-8 19 -24.5 36.5t-36.5 24.5v8q21 7 37 23.5t24 37.5h8q7 -21 23.5 -37t37.5 -24v-8z" />
    <glyph glyph-name="at" unicode="@" horiz-adv-x="918" 
d="M775 197q-33 -98 -119 -157t-198 -59q-138 0 -229 89t-91 223q0 145 100.5 244.5t246.5 99.5q116 0 189 -67t73 -174q0 -103 -59 -175.5t-143 -72.5q-56 0 -56 49q0 14 3 39q0 4 2 13q-31 -52 -71 -78q-36 -23 -72 -23q-29 0 -47.5 25.5t-18.5 68.5q0 97 66 168
q61 66 135 66q51 0 63 -49l15 49h81l7 -12l-40 -5l-58 -201q-11 -36 -11 -57q0 -16 7 -22t20 -6q54 0 102 63q52 68 52 159q0 92 -63 150t-160 58q-126 0 -215 -92t-89 -226q0 -117 77 -195t192 -78q99 0 173 46.5t115 138.5h21zM536 408q0 23 -13 37t-33 14q-50 0 -99 -65
t-49 -141q0 -27 12 -45t30 -18q51 0 101.5 75t50.5 143z" />
    <glyph glyph-name="A" unicode="A" horiz-adv-x="706" 
d="M656 -6l-14 1l-78 5h-38l-78 -5l-14 -1l1 13l11 1q37 4 51 16t14 43v14l-3 108h-310l-3 -108v-14q0 -29 14 -42t51 -17l11 -1l1 -13l-14 1l-78 5h-38l-78 -5l-14 -1l1 13l11 1q37 4 51 16t14 43v17q0 202 45 332q55 158 181 233q125 -74 180 -232q46 -132 46 -333v-17
q0 -29 14 -42t51 -17l11 -1zM506 227q0 158 -46 265q-40 92 -107 131q-67 -38 -107 -131q-46 -106 -46 -265h306z" />
    <glyph glyph-name="B" unicode="B" horiz-adv-x="680" 
d="M606 189q0 -79 -55 -130q-64 -60 -190 -60l-189 2l-78 -5l-14 -1l1 13l11 1q37 4 51 16t14 43v486q0 29 -14 42t-51 17l-11 1l-1 13l279 1q89 0 145 -37.5t56 -102.5q0 -43 -27.5 -78.5t-74.5 -51.5q148 -46 148 -169zM491 479q0 65 -43.5 97t-146.5 32l-76 -4v-232h134
q68 0 103 35q29 29 29 72zM527 187q0 71 -44 114q-48 47 -131 47h-127v-202q0 -84 21 -103t107 -19q76 0 125 47t49 116z" />
    <glyph glyph-name="C" unicode="C" horiz-adv-x="735" 
d="M667 169l-16 -133q-28 -21 -90.5 -36t-121.5 -15q-153 0 -254 86q-105 89 -105 230q0 137 101 235q105 101 258 101q53 0 97 -13t89 -27q11 0 19 5l7 -128h-11q-23 78 -79 111q-49 29 -135 29q-115 0 -187.5 -91.5t-72.5 -220.5t86 -213q83 -81 200 -81q90 0 135 32
q53 37 63 129h17z" />
    <glyph glyph-name="D" unicode="D" horiz-adv-x="816" 
d="M736 323q0 -133 -102.5 -228.5t-256.5 -95.5l-205 2l-78 -5l-14 -1l1 13l11 1q37 4 51 16t14 43v486q0 29 -14 42t-51 17l-11 1l-1 13l14 -1l78 -5l205 5q152 0 255.5 -84.5t103.5 -218.5zM656 320q0 123 -81 201t-199 78l-151 -4v-483q0 -52 29 -70.5t122 -18.5
q120 0 200 87.5t80 209.5z" />
    <glyph glyph-name="E" unicode="E" horiz-adv-x="596" 
d="M529 119q-23 -42 -32 -71q-7 -33 -12 -52l-157 5h-156l-78 -5l-14 -1l1 13l11 1q37 4 51 16t14 43v486q0 29 -14 42t-51 17l-11 1l-1 13l14 -1l78 -5h312l19 -108h-14q-13 50 -26.5 61.5t-59.5 11.5l-178 2v-228h226v-32h-226v-234q0 -41 7.5 -49.5t43.5 -8.5h107
q53 0 75 15t54 66z" />
    <glyph glyph-name="F" unicode="F" horiz-adv-x="550" 
d="M502 513h-14q-13 56 -28.5 64.5t-84.5 8.5l-150 2v-228h212v-32h-212v-260q0 -29 14 -42t51 -17l11 -1l1 -13l-14 1l-78 5h-38l-78 -5l-14 -1l1 13l11 1q37 4 51 16t14 43v486q0 29 -14 42t-51 17l-11 1l-1 13l14 -1l78 -5l311 1z" />
    <glyph glyph-name="G" unicode="G" horiz-adv-x="780" 
d="M739 273l-1 -13l-11 -1q-37 -4 -51 -16t-14 -43v-162q-54 -29 -109 -41t-114 -12q-153 0 -254 86q-105 89 -105 230q0 137 101 235q105 101 258 101q53 0 97 -12q46 -15 92 -29q11 0 19 5l23 -129h-14q-25 73 -85.5 107.5t-144.5 34.5q-115 0 -187.5 -91.5t-72.5 -220.5
t86 -213q83 -81 200 -81q41 0 76.5 9t65.5 29v154q0 29 -22 42t-64 17l-21 1l-1 13l24 -1q31 -3 52 -4t47 -1h38l78 5z" />
    <glyph glyph-name="H" unicode="H" horiz-adv-x="816" 
d="M736 -5l-14 1l-78 5h-38l-78 -5l-14 -1l1 13l11 1q37 4 51 16t14 43v228h-366v-228q0 -29 14 -42t51 -17l11 -1l1 -13l-14 1l-78 5h-38l-78 -5l-14 -1l1 13l11 1q37 4 51 16t14 43v486q0 29 -14 42t-51 17l-11 1l-1 13l14 -1l78 -5h38l78 5l14 1l-1 -13l-11 -1
q-37 -4 -51 -16t-14 -43v-162h366v162q0 29 -14 42t-51 17l-11 1l-1 13l14 -1l78 -5h38l78 5l14 1l-1 -13l-11 -1q-37 -4 -51 -16t-14 -43v-486q0 -29 14 -42t51 -17l11 -1zM591 328v32h-366v-32h366z" />
    <glyph glyph-name="I" unicode="I" horiz-adv-x="402" 
d="M266 731q-43 -18 -61 -61h-8q-18 43 -61 61v8q43 18 61 61h8q18 -43 61 -61v-8zM312 -5l-14 1l-78 5h-38l-78 -5l-14 -1l1 13l11 1q37 4 51 16t14 43v486q0 29 -14 42t-51 17l-11 1l-1 13l14 -1l78 -5h38l78 5l14 1l-1 -13l-11 -1q-37 -4 -51 -16t-14 -43v-486
q0 -29 14 -42t51 -17l11 -1z" />
    <glyph glyph-name="J" unicode="J" horiz-adv-x="402" 
d="M266 731q-43 -18 -61 -61h-8q-18 43 -61 61v8q43 18 61 61h8q18 -43 61 -61v-8zM312 627l-1 -13l-11 -1q-37 -4 -51 -16t-14 -43v-690l-68 -94v784q0 29 -14 42t-51 17l-11 1l-1 13l14 -1l78 -5h38l78 5z" />
    <glyph glyph-name="K" unicode="K" horiz-adv-x="650" 
d="M932 -77q-6 -15 -46.5 -27.5t-97.5 -12.5q-116 0 -233 92q-81 63 -171 180q-93 120 -95 122q-9 7 -17 11q-17 8 -34 8q-8 0 -13 -1v-227q0 -29 14 -42t51 -17l11 -1l1 -13l-14 1l-78 5h-38l-78 -5l-14 -1l1 13l11 1q37 4 51 16t14 43v486q0 29 -14 42t-51 17l-11 1l-1 13
l14 -1l78 -5h38l78 5l14 1l-1 -13l-11 -1q-37 -4 -51 -16t-14 -43v-239q69 0 170 109q95 103 95 153q0 17 -18.5 24.5t-52.5 11.5l-11 1l-1 13l14 -1l78 -5h38l78 5l14 1l-1 -13l-11 -1q-44 -5 -71 -34q-11 -12 -40 -58q-46 -72 -89 -116q-38 -39 -100 -83q21 -2 87 -88
q90 -118 143 -173q101 -104 197 -138q44 -16 99 -16q56 0 89 16z" />
    <glyph glyph-name="L" unicode="L" horiz-adv-x="592" 
d="M565 146q-33 -45 -53 -87q-14 -29 -23 -65q-70 2 -109 3q-143 4 -170 4h-38l-78 -5l-14 -1l1 13l11 1q37 4 51 16t14 43v486q0 29 -14 42t-51 17l-11 1l-1 13l14 -1l78 -5h38l78 5l14 1l-1 -13l-11 -1q-37 -4 -51 -16t-14 -43v-460q0 -41 7.5 -49.5t43.5 -8.5h104
q56 0 75.5 10t56.5 58l32 42h21z" />
    <glyph glyph-name="M" unicode="M" horiz-adv-x="957" 
d="M880 -5l-14 1l-78 5h-38l-78 -5l-14 -1l1 13l11 1q37 4 51 16t14 43v493l-221 -68v-425q0 -29 14 -42t51 -17l11 -1l1 -13l-14 1l-78 5h-38l-78 -5l-14 -1l1 13l11 1q37 4 51 16t14 43v425l-221 68v-493q0 -29 14 -42t51 -17l11 -1l1 -13l-14 1l-78 5h-38l-78 -5l-14 -1
l1 13l11 1q37 4 51 16t14 43v486q0 29 -14 42t-51 17l-11 1l-1 13l14 -1q42 -4 55 -6q30 -6 89 -24l242 -74l242 74q51 16 81.5 21.5t62.5 8.5l14 1l-1 -13l-11 -1q-37 -4 -51 -16t-14 -43v-486q0 -29 14 -42t51 -17l11 -1z" />
    <glyph glyph-name="N" unicode="N" horiz-adv-x="734" 
d="M94 9l10 1q32 4 45 17t13 42v485q0 31 -13 43t-45 16l-10 1l-1 13l13 -1l69 -5h33l69 5l13 1l-1 -13l-10 -1q-32 -4 -44.5 -17t-12.5 -42v-64l324 -234v298q0 31 -12.5 43t-44.5 16l-10 1l-1 13l12 -1l70 -5h34l70 5l12 1l-1 -13l-10 -1q-33 -4 -45.5 -17t-12.5 -42v-485
q0 -31 12.5 -43t45.5 -16l10 -1l1 -13l-12 1l-70 5h-34l-70 -5l-12 -1l1 13l10 1q32 4 44.5 17t12.5 42v92l-324 233v-325q0 -31 12.5 -43t44.5 -16l10 -1l1 -13l-13 1l-69 5h-33l-69 -5l-13 -1zM546 192v32l-324 234v-32z" />
    <glyph glyph-name="O" unicode="O" horiz-adv-x="876" 
d="M798 321q0 -137 -103 -236.5t-256 -99.5t-254 86q-105 89 -105 230q0 137 101 235q105 101 258 101t256 -87.5t103 -228.5zM729 311q-13 126 -99 209q-90 87 -222 87q-117 0 -189 -75t-72 -187v-17q2 -12 2 -17q13 -126 99 -209q90 -87 222 -87q117 0 189 75t72 187v17
q-2 12 -2 17z" />
    <glyph glyph-name="P" unicode="P" horiz-adv-x="590" 
d="M547 470q0 -87 -75 -145t-178 -58l-34 3v9l25 -1q81 0 138.5 46.5t57.5 122.5q0 64 -45 108q-50 48 -136 48q-49 0 -62 -7.5t-13 -41.5v-486q0 -29 14 -42t51 -17l11 -1l1 -13l-14 1l-78 5h-38l-78 -5l-14 -1l1 13l11 1q37 4 51 16t14 43v486q0 29 -14 42t-51 17l-11 1
l-1 13l14 -1q21 -2 37.5 -3.5t40.5 -1.5q17 0 80.5 2.5t75.5 2.5q101 0 160 -44.5t59 -111.5z" />
    <glyph glyph-name="Q" unicode="Q" horiz-adv-x="876" 
d="M1322 -194q-3 -24 -55 -53q-64 -35 -141 -35q-128 0 -301 61q-123 43 -267 119q-101 53 -128 74l-31 15q-138 12 -227 96q-92 87 -92 218q0 137 101 235q105 101 258 101t256 -87.5t103 -228.5q0 -114 -71.5 -203.5t-187.5 -119.5q93 -52 187 -105q115 -62 205 -95
q116 -42 212 -42q59 0 101 13t78 37zM729 311q-13 126 -99 209q-90 87 -222 87q-117 0 -189 -75t-72 -187v-17q2 -12 2 -17q13 -126 99 -209q90 -87 222 -87q117 0 189 75t72 187v17q-2 12 -2 17z" />
    <glyph glyph-name="R" unicode="R" horiz-adv-x="698" 
d="M1081 -89q-6 -15 -56 -36.5t-101 -21.5q-116 0 -250 97q-77 56 -211 191q-113 114 -150 130h-88v-203q0 -29 14 -42t51 -17l11 -1l1 -13l-14 1l-78 5h-38l-78 -5l-14 -1l1 13l11 1q37 4 51 16t14 43v486q0 29 -14 42t-51 17l-11 1l-1 13l14 -1q21 -2 37.5 -3.5t40.5 -1.5
q17 0 80.5 2.5t75.5 2.5q101 0 160 -44.5t59 -111.5q0 -64 -40.5 -112.5t-107.5 -72.5q24 -16 113 -107q100 -102 167 -158q108 -90 198 -122q38 -13 81 -13q33 0 64.5 7t58.5 19zM481 447q0 64 -45 108q-50 48 -136 48q-49 0 -62 -7.5t-13 -41.5v-259h145q50 21 80.5 60
t30.5 92z" />
    <glyph glyph-name="S" unicode="S" horiz-adv-x="530" 
d="M462 156q0 -67 -62 -119t-155 -52q-49 0 -97 15q-44 17 -55 21l-20 128h14q16 -73 53.5 -106t104.5 -33q63 0 104 32t41 86q0 56 -40 99q-34 36 -126 88q-65 37 -99 72q-43 45 -43 95q0 72 48.5 113.5t129.5 41.5q38 0 80 -14t71 -14l15 -95h-8q-24 60 -73 83
q-35 16 -90 16q-48 0 -79 -29t-31 -74q0 -34 22.5 -62.5t103.5 -75.5q95 -54 133 -90q58 -56 58 -126z" />
    <glyph glyph-name="T" unicode="T" horiz-adv-x="640" 
d="M620 686l-50 -139h-15q3 11 3 17q0 11 -9.5 15t-36.5 4h-158v-515q0 -29 14 -42t51 -17l11 -1l1 -13l-14 1l-78 5h-38l-78 -5l-14 -1l1 13l11 1q37 4 51 16t14 43v515h-171q-30 0 -46.5 -11t-36.5 -54h-12l50 139h15q-3 -11 -3 -17q0 -11 9.5 -15t36.5 -4h158v111
q0 29 -14 42t-51 17l-11 1l-1 13l14 -1l78 -5h38l78 5l14 1l-1 -13l-11 -1q-37 -4 -51 -16t-14 -43v-111h171q30 0 46.5 11t36.5 54h12z" />
    <glyph glyph-name="U" unicode="U" horiz-adv-x="746" 
d="M696 628l-1 -13l-11 -1q-37 -4 -51 -16t-14 -43v-17q0 -194 -55 -332q-62 -156 -191 -233q-128 76 -190 232q-56 140 -56 333v17q0 29 -14 42t-51 17l-11 1l-1 13l14 -1l78 -5h38l78 5l14 1l-1 -13l-11 -1q-37 -4 -51 -16t-14 -43v-14q0 -227 53 -371q46 -126 125 -171
q79 45 125 171q53 144 53 371v14q0 29 -14 42t-51 17l-11 1l-1 13l14 -1l78 -5h38l78 5z" />
    <glyph glyph-name="V" unicode="V" horiz-adv-x="705" 
d="M685 627l-1 -13l-11 -1q-40 -4 -57 -17.5t-37 -65.5l-208 -541h-10l-240 565q-15 34 -32 44.5t-57 14.5l-11 1l-1 13l14 -1l96 -5h38l96 5l14 1l-1 -13l-11 -1q-31 -3 -52.5 -12.5t-21.5 -30.5q0 -9 4 -18l184 -433l162 423q5 15 5 23q0 22 -19.5 33.5t-52.5 14.5l-11 1
l-1 13l14 -1q22 -2 40 -3.5t38 -1.5h38l78 5z" />
    <glyph glyph-name="W" unicode="W" horiz-adv-x="1070" 
d="M1020 628l-1 -13l-11 -1q-37 -4 -51 -16t-14 -43v-17q0 -203 -43 -332q-53 -159 -178 -233q-71 42 -119 116q-43 65 -68 156q-25 -89 -68 -155q-49 -75 -119 -117q-125 74 -178 232q-43 128 -43 333v17q0 29 -14 42t-51 17l-11 1l-1 13l14 -1l78 -5h38l78 5l14 1l-1 -13
l-11 -1q-37 -4 -51 -16t-14 -43v-14q0 -236 39 -367.5t114 -174.5q74 42 113.5 175.5t39.5 366.5v14q0 29 -14 42t-51 17l-11 1l-1 13l14 -1l78 -5h38l78 5l14 1l-1 -13l-11 -1q-37 -4 -51 -16t-14 -43v-14q0 -236 39 -367.5t114 -174.5q74 42 113.5 175.5t39.5 366.5v14
q0 29 -14 42t-51 17l-11 1l-1 13l14 -1l78 -5h38l78 5z" />
    <glyph glyph-name="X" unicode="X" horiz-adv-x="725" 
d="M691 -5l-14 1l-78 5h-59l-78 -5l-14 -1l1 13l11 1q53 6 53 36q0 11 -9 23l-152 206l-162 -206q-11 -14 -11 -27q0 -28 46 -32l11 -1l1 -13l-14 1l-78 5h-21l-78 -5l-14 -1l1 13l11 1q33 3 59 22q16 12 36 37l188 239l-182 247q-21 28 -46 42.5t-49 16.5l-11 1l-1 13
l14 -1l78 -5h59l78 5l14 1l-1 -13l-11 -1q-23 -2 -34 -11t-11 -22t10 -26l139 -189l148 189q9 11 9 25q0 13 -10.5 22.5t-33.5 11.5l-11 1l-1 13l14 -1l78 -5h21l78 5l14 1l-1 -13l-11 -1q-32 -3 -57 -21q-19 -13 -38 -38l-174 -222l195 -264q19 -26 31 -36q23 -20 55 -23
l11 -1z" />
    <glyph glyph-name="Y" unicode="Y" horiz-adv-x="677" 
d="M667 627l-1 -13l-11 -1q-37 -4 -60.5 -22.5t-55.5 -69.5l-162 -258v-195q0 -29 14 -42t51 -17l11 -1l1 -13l-14 1l-78 5h-38l-78 -5l-14 -1l1 13l11 1q37 4 51 16t14 43v176l-182 290q-31 49 -49 62t-56 17l-11 1l-1 13l14 -1l88 -5h38l88 5l14 1l-1 -13l-11 -1
q-31 -2 -46 -6.5t-15 -19.5q0 -8 7 -19l169 -270l157 252q10 17 10 29q0 16 -18 23t-47 11l-11 1l-1 13l14 -1l78 -5h38l78 5z" />
    <glyph glyph-name="Z" unicode="Z" horiz-adv-x="650" 
d="M592 103l-50 -140l-15 1q3 11 3 17q0 11 -9.5 15t-36.5 4h-421v21l222 304h-183l30 32h176l164 226h-278q-30 0 -46.5 -11t-36.5 -54h-12l50 140l15 -1q-3 -11 -3 -17q0 -11 9.5 -15t36.5 -4h353v-19l-179 -245h188l-30 -32h-181l-208 -287h347q30 0 46.5 11t36.5 54h12z
" />
    <glyph glyph-name="bracketleft" unicode="[" horiz-adv-x="402" 
d="M335 -108h-195v864h195v-20h-127v-824h127v-20z" />
    <glyph glyph-name="backslash" unicode="\" horiz-adv-x="458" 
d="M422 -15h-63l-323 652h63z" />
    <glyph glyph-name="bracketright" unicode="]" horiz-adv-x="402" 
d="M262 -108h-195v20h127v824h-127v20h195v-864z" />
    <glyph glyph-name="asciicircum" unicode="^" horiz-adv-x="469" 
d="M451 322h-45l-171 286l-171 -286h-46l210 350h15z" />
    <glyph glyph-name="underscore" unicode="_" horiz-adv-x="500" 
d="M508 -216h-516v41h516v-41z" />
    <glyph glyph-name="grave" unicode="`" horiz-adv-x="1253" 
d="M432 796q27 -11 51 -18.5t46.5 -11.5t45.5 -5.5t48 -1.5h9q25 0 48 1.5t45.5 5.5t46 11.5t49.5 18.5q3 -2 5 -3t4.5 -2.5t5.5 -4.5l9 -9q6 7 15 18t20.5 22t23.5 21t23 16q10 -16 18 -41t12.5 -52t4.5 -53.5t-4 -44.5q6 -1 18.5 -3.5t29.5 -6t35.5 -8t36.5 -10.5
q-4 -7 -13.5 -18t-20.5 -22.5t-21 -22t-14 -16.5q3 -2 22.5 -11t44.5 -20.5t49 -22t35 -16.5l-190 -84l233 -177l-276 28l73 -88l-149 34l46 -107l-168 73l-30 -104q-9 -29 -25 -35.5t-47 -6.5q-30 0 -45.5 6.5t-25.5 35.5l-30 104l-166 -73l42 107l-145 -34l69 88l-276 -28
l237 177l-194 84q12 6 37 16.5t50.5 22t45.5 20.5t22 11q-5 6 -15 16.5t-20.5 22t-20.5 22.5t-15 18q37 11 72 18.5t49 9.5q-4 18 -3.5 44.5t5 53.5t12 52t18.5 41q11 -6 23 -16t23 -21t20 -22t15 -18q6 6 9.5 9t5.5 4.5t3 2.5zM1164 244l-237 179l-118 -40zM326 423
l-237 -179l353 139zM627 893q69 0 129.5 -19t112.5 -54q-2 -5 -5.5 -7.5t-5.5 -7.5q-51 34 -109 52t-122 18q-65 0 -123 -17.5t-108 -48.5q-2 2 -4.5 5.5t-7.5 5.5q52 35 113 54t130 19zM830 10q31 15 65 39.5t62.5 49.5t49 47t26.5 31q-5 -17 -20 -37.5t-33.5 -40.5
t-38.5 -37t-33 -27q15 -4 49 -7.5t74 -5.5t79.5 -1.5t64.5 4.5q-32 -12 -72 -16t-85 -4t-93 2.5t-95 2.5zM423 10q-48 0 -96 -2.5t-93 -2.5t-85 4t-72 16q24 -4 63 -4.5t79 1.5t74 5.5t48 7.5q-12 10 -31 27t-37.5 37t-33.5 40.5t-19 37.5q4 -9 24 -31t48.5 -47t63 -49.5
t67.5 -39.5zM402 301q-23 -14 -38.5 -26t-28 -25.5t-25.5 -30.5t-30 -39l210 103zM970 184q-14 22 -26.5 37.5t-26 28.5t-29.5 24.5t-37 26.5l-88 -18zM878 111l-37 96l-54 27l-43 -3zM468 234l-54 -27l-36 -96l133 120zM924 414l154 -113q-34 21 -69 43t-69 45q-8 5 -10 2
t3 -8l83 -54q-31 14 -60.5 27t-58.5 27q-5 3 -5.5 1t1.5 -4l55 -32l-107 35zM298 348l55 32q5 2 5 4t-8 -1q-29 -14 -57.5 -27t-57.5 -27l79 54q7 5 5 8t-8 -2q-36 -23 -71.5 -45t-70.5 -43l157 113l80 -31zM873 92q-42 -29 -90.5 -47t-100.5 -26q4 5 8.5 9.5t8.5 11.5
q42 8 81.5 23t73.5 39zM575 19q-53 8 -103 26t-92 47l19 10q70 -52 157 -64q5 -7 9.5 -12t9.5 -7zM787 283q17 2 30.5 4.5t30.5 2.5q19 -11 45 -28t43 -43q-25 16 -42 28.5t-40 23.5q-2 3 -5 1t2 -4l57 -37zM345 231l57 37q5 2 2 4t-5 -1q-13 -6 -22.5 -11.5t-18.5 -12
t-19 -13.5t-22 -15q14 26 41.5 43t47.5 28q16 0 29.5 -2.5t26.5 -4.5zM757 229q23 0 41 -10t38 -24q4 -11 10.5 -22.5t11.5 -23.5q-26 23 -50.5 43t-50.5 37zM499 229q-51 -34 -100 -80q5 12 11 23.5t11 22.5q20 14 39 24t39 10zM199 350q-5 21 -7.5 41t-5.5 43l19 -5
q2 -19 4.5 -35.5t4.5 -34.5zM666 326q-2 -3 -2.5 -4t-0.5 -6q4 -27 0 -55q18 22 22.5 39t4.5 35q0 5 -0.5 6.5t-5.5 -0.5q-7 -3 -10 -5.5t-8 -9.5zM587 326q-2 7 -6.5 9.5t-11.5 5.5q-5 2 -4.5 0.5t0.5 -6.5q-2 -18 3.5 -35t22.5 -39q0 14 -1.5 27.5t1.5 27.5q0 5 -0.5 6
t-3.5 4zM955 165q-5 -5 -9.5 -11t-9.5 -11q-9 -8 -18.5 -17t-20.5 -15l-7 15q10 8 18 15.5t16 14.5q2 5 6 7.5t6 7.5zM356 107q-11 9 -20 18.5t-19 17.5q-7 5 -11.5 11t-9.5 11l21 2q2 -2 5 -4t8 -7q6 -7 14.5 -15.5t18.5 -14.5zM1063 434q0 -23 -3.5 -43t-7.5 -41l-16 13
q5 15 7.5 30.5t2.5 31.5zM238 660q11 20 23 38.5t26 33.5v-31q-7 -8 -14 -17t-14 -19q-5 -2 -8.5 -2.5t-8.5 -2.5h-4zM970 727q23 -29 42 -67q-5 2 -11 2.5t-11 2.5q-4 10 -9 17t-11 17v28zM272 195q-7 11 -14 20.5t-14 18.5l21 4q5 -7 9.5 -14t8.5 -14zM1006 238
q-5 -12 -11.5 -21.5t-13.5 -17.5l-8 15q2 6 6 11.5t9 12.5h18zM196 541q2 11 4 22.5t7 23.5l9 -9l4 -7q0 -5 -2 -10.5t-2 -10.5q-4 -2 -10 -4.5t-10 -4.5zM1046 583q2 -9 4 -19.5t4 -19.5l-18 9q-2 5 -2.5 8t-2.5 7q4 5 7 8t8 7zM648 316q-2 5 -7.5 8.5t-8.5 1.5
q-4 -5 0 -10v-26q8 11 12 14.5t4 11.5zM608 316q0 -8 3 -11.5t12 -14.5q0 6 -1 12.5t1 13.5q0 6 -2 10q-3 2 -8 -1.5t-5 -8.5zM593 322q0 -8 2.5 -14.5t10.5 -17.5v30q0 2 -0.5 4.5t-3.5 4.5q-2 2 -5.5 0t-3.5 -7zM660 322q0 5 -3.5 7t-5.5 0t-2.5 -4.5t-0.5 -4.5
q5 -16 0 -30q9 11 11.5 17.5t0.5 14.5zM666 95v1v-1zM587 95q-1 0 -1 1v2l1 -2v-1zM629 541q14 2 22.5 2t14.5 -3t10.5 -9.5t10.5 -16.5q-16 16 -28.5 21.5t-29.5 5.5zM623 541q-16 0 -28.5 -5.5t-29.5 -21.5q11 20 21 26t37 1zM580 580q-15 8 -29 19.5t-27 20.5
q18 -5 31.5 -14t24.5 -26zM672 580q11 17 25 26t32 14q-13 -9 -26.5 -20.5t-30.5 -19.5zM648 520q4 2 9 2h11q5 -2 13 -10t16 -11q11 -4 17.5 -3t27.5 3q-11 -7 -23 -11t-20 -4q-7 3 -13 7t-18 8q-2 3 -5.5 2t-5.5 2q-5 0 -9 3.5t-6 7.5q5 -4 9 -4.5t12 -0.5q3 0 3 1v2
q-5 2 -8 4t-10 2zM606 520q-8 0 -10.5 -2t-4.5 -4q-3 0 -3 -1.5t3 -1.5q8 0 12 0.5t8 4.5q-2 -4 -6 -7.5t-6 -3.5q-5 -3 -9 -2t-6 -2q-9 -4 -15 -8t-13 -7q-8 0 -21 4t-24 11q21 -2 29 -3t16 3q10 3 17 11t14 10h10t9 -2zM483 605q-2 -15 3 -25.5t12.5 -15t16 -2.5t14.5 12
q2 2 1.5 2.5t-0.5 1.5q-1 1 -1 2q-14 8 -24 12.5t-22 12.5zM772 605q-13 -8 -23.5 -12.5t-21.5 -12.5q-5 0 0 -6q5 -10 13 -12t15.5 2.5t12.5 15t4 25.5zM569 76q0 -27 17 -33t41 -8q23 0 41.5 8.5t18.5 32.5q-11 -20 -27.5 -26t-32.5 -6q-7 0 -15.5 1t-16.5 4t-15 9.5
t-11 17.5zM341 529q3 6 3 19.5t-3 24.5q7 -14 10.5 -28t1.5 -31q-42 2 -79 -1t-75 -6q32 7 67.5 13.5t74.5 8.5zM899 514q-2 17 2 31t10 28q-2 -11 -2 -24.5t3 -19.5q38 -2 74 -8.5t68 -13.5q-38 3 -75.5 6t-79.5 1zM888 565q-6 -23 -6 -49q0 -9 -7 -9q-20 0 -45.5 -4
t-48.5 -11q-20 -8 -33.5 -20t-18.5 -23q0 8 1.5 14.5t9.5 13.5q-14 -7 -21 -21.5t-7 -23.5q-6 18 -2.5 30t15 20t29.5 13.5t42 11.5q21 7 41.5 10t31.5 3q3 9 7 23.5t12 21.5zM365 565q10 -7 13 -21.5t6 -23.5q11 0 31.5 -3t41.5 -10q24 -6 42 -11.5t29 -13.5t15 -20t-2 -30
q0 9 -6.5 23.5t-20.5 21.5q13 -12 10 -28q-5 11 -18.5 23t-33.5 20q-23 7 -48 11t-46 4q-6 0 -6 9q0 14 -2 26t-5 23zM627 374q-24 0 -43.5 16.5t-35.5 32.5q5 11 10.5 20.5t10.5 20.5q5 -6 10.5 -13t7.5 -7h79q5 0 9 7t9 13q8 -11 12.5 -20.5t12.5 -20.5q-17 -16 -37 -32.5
t-45 -16.5zM627 104q-3 10 -3.5 13.5t-2.5 8.5q-3 -3 -5.5 -6t-4.5 -3q-1 1 -2 4q-1 2 -1 11q-2 -5 -2.5 -8t-3.5 -7q-5 8 -5.5 21t1.5 19q-9 -12 -11.5 -31.5t-0.5 -27.5q-2 2 -5 6t-6 9q-2 10 -2.5 16.5t-0.5 13.5q0 45 -6 75t-16 41q5 -16 5.5 -26.5t0.5 -31.5
q-11 37 -22 71t-24.5 61t-30.5 46.5t-41 28.5q25 -17 39.5 -35.5t23 -38t14 -39.5t11.5 -39q7 -21 10.5 -41t6.5 -40t7 -39.5t13 -37.5q7 -11 22 -16.5t42 -5.5t42 5.5t21 16.5q18 37 22 76.5t15 81.5q6 19 11.5 39t14 39.5t23 38t39.5 35.5q-24 -9 -41 -28.5t-30.5 -46.5
t-24.5 -61t-22 -71q0 21 0.5 31.5t5.5 26.5q-10 -11 -14.5 -41t-6.5 -75q0 -7 -0.5 -13.5t-3.5 -16.5q-2 -5 -6 -9.5t-6 -7.5q1 4 1.5 12t-0.5 17t-4 17.5t-10 14.5q3 -6 3 -19t-5 -21q0 4 -2 7t-4 8q0 -7 -2 -11q-1 -3 -1 -4q-3 0 -4 3t-6 6q-2 -3 -2.5 -6.5t-2.5 -8.5v-7z
M614 571q-3 -3 -3 -15q-12 1 -20 -2.5t-14 -9.5t-11 -12t-12 -10q-22 -9 -39.5 -9.5t-31.5 4.5t-24 14.5t-17 21.5q12 -9 26 -16t27.5 -10.5t25.5 -2.5t20 8q-13 -5 -32 0q-10 2 -19.5 6t-17.5 9q-11 5 -20 11.5t-14 12.5q-2 5 -2.5 8.5t-3.5 3.5q-2 0 -2.5 -7.5t0.5 -12.5
q-2 3 -4.5 7.5t-2.5 9.5q0 8 4.5 17.5t12 16.5t18.5 9.5t25 -3.5l73 -40q3 -2 6.5 -4t6.5 -2q8 0 13 -4t-7 -11q-2 0 -3.5 -1.5t3.5 -1.5q3 0 4 1t1 2q17 7 11.5 23t-19.5 31q-9 8 -19 14.5t-18 11.5q-5 5 -7 9t-2 12q2 7 3 11.5t6 6.5q-2 -5 -3.5 -14t1.5 -14
q5 -7 14 -11.5t16 -6.5q11 -9 19 -17.5t17 -21.5q5 18 7 36t2 36q2 -20 2.5 -41t0.5 -44h31q-6 46 0 85q0 -36 9 -72q9 13 17 21.5t22 17.5q5 2 14 6.5t14 11.5q5 5 2 14t-6 14q10 -4 10 -18q0 -8 -1 -12t-9 -9q-7 -5 -16.5 -11.5t-15.5 -14.5q-17 -15 -22 -31t8 -23
q3 0 5.5 -1.5t4.5 -1.5q3 0 1 1.5t-4 1.5q-11 7 -7 11t16 4q2 0 4.5 2t5.5 4l72 40q15 6 27 3.5t19.5 -9.5t11 -16.5t2.5 -17.5q0 -5 -3 -9.5t-6 -7.5q3 5 3 12.5t-3 7.5v-3q0 -3 -2 -9q-5 -6 -14.5 -12.5t-19.5 -11.5q-8 -5 -17.5 -9t-19.5 -6q-23 -5 -32 0q6 -7 17.5 -8
t25 2.5t28 10.5t26.5 16q-7 -12 -17 -21.5t-24 -14.5t-31.5 -4.5t-39.5 9.5q-7 4 -12 10t-10.5 12t-13 9.5t-19.5 2.5q0 7 -2 10t-4 5h-22zM623 678q-23 0 -42 6t-38.5 11.5t-41.5 7t-50 -7.5q-18 37 -46.5 74.5t-71.5 71.5v-2q21 -25 38 -52.5t30 -52.5t22 -43.5t15 -25.5
q3 0 4 -1t3 -1t4 2t4 10q1 -19 -5.5 -32t-14.5 -25t-13 -26.5t1 -35.5q-12 14 -23 19.5t-21.5 8.5t-19.5 7t-16 14q18 -2 31 0t30 8q-6 4 -11 11.5t-8.5 15.5t-6.5 15t-4 10q-2 -2 -2 -12t2 -21q-3 3 -5.5 10.5t-4.5 15.5t-3.5 15.5t-2.5 10.5q-5 -15 0 -39q-8 14 -9.5 35
t-1.5 28q-5 -7 -6.5 -17.5t-3.5 -21.5q-4 13 -4.5 28.5t-0.5 19.5q-3 -7 -3.5 -12t-0.5 -10q-7 17 -10.5 40.5t-1.5 47.5q-4 -18 -6 -39t-1 -42.5t5.5 -41t13.5 -34.5l-39 24l-91 -18q32 -11 67 -17.5t63 -21.5q-15 -17 -38 -30.5t-50 -25t-55 -23t-53 -24.5q3 -2 19.5 0
t41 4t56 4.5t64.5 2.5q61 -2 104.5 -8.5t70 -20t36.5 -36t4 -56.5q23 -7 49 -18.5t52 -11.5v-155q-2 3 -5.5 5t-7 5t-8 9t-7.5 17q0 -18 8 -34t20 -30q11 16 20.5 34t9.5 33q-3 -12 -7.5 -18.5t-9 -10t-8 -5.5t-5.5 -5v155h2q23 0 49 11.5t49 18.5q-5 34 5.5 56.5t37 36
t69.5 20t103 8.5q33 0 64.5 -2.5t57 -4.5t42 -4t21.5 0q-26 13 -55 24.5t-56.5 23t-50.5 25t-38 30.5q29 15 64 21.5t66 17.5l-91 18l-37 -24q8 15 12.5 34t5.5 40t-1 42.5t-6 40.5q2 -24 -0.5 -47.5t-12.5 -40.5q0 5 -0.5 10t-2.5 12q0 -4 -0.5 -19.5t-5.5 -28.5
q0 11 -2 21.5t-4 17.5q-3 -7 -4.5 -28t-8.5 -35v21.5t-2 17.5q-2 -3 -3 -10.5t-2.5 -15.5t-3.5 -15.5t-4 -10.5v21t-2 12q0 -3 -2.5 -10t-6.5 -15t-9 -15.5t-10 -11.5q14 -6 27.5 -8t30.5 0q-6 -10 -14.5 -14t-19 -7t-21.5 -8.5t-21 -19.5q4 21 -0.5 34.5t-12 25.5
t-14.5 24.5t-7 30.5q2 -6 4.5 -7t4.5 -1l4 2q6 7 15.5 25t23 42.5t31.5 52t39 54.5q-3 0 -3 2q-41 -34 -70.5 -71.5t-44.5 -74.5q-29 9 -51.5 7.5t-43 -7t-40 -11.5t-42.5 -6h-6z" />
    <glyph glyph-name="a" unicode="a" 
d="M540 -5l-14 1l-40 4t-28 1h-36q-16 0 -33.5 -2t-34.5 -3l-14 -1l1 14l11 1q35 4 45 15.5t10 43.5v6l-2 57h-235l-2 -59v-4q0 -31 10 -43t45 -16l11 -1l1 -14l-14 1l-40 4t-28 1h-36q-16 0 -33.5 -2t-34.5 -3l-14 -1l1 14l11 1q35 4 45 15.5t10 43.5v4q0 129 46.5 231.5
t138.5 156.5q93 -54 141 -159q45 -98 45 -227v-6q0 -31 10 -43t45 -16l11 -1zM402 165q-9 111 -39.5 178.5t-75.5 92.5q-45 -24 -75 -90.5t-40 -180.5h230z" />
    <glyph glyph-name="b" unicode="b" horiz-adv-x="530" 
d="M469 135q0 -57 -40 -93q-47 -43 -139 -43l-143 2q-16 0 -33.5 -2t-34.5 -3l-14 -1l1 14l11 1q35 4 45 15.5t10 43.5v304q0 31 -10 43t-45 16l-11 1l-1 13h223q65 0 106.5 -27.5t41.5 -73.5q0 -28 -18 -53t-49 -38q100 -37 100 -119zM377 338q0 44 -30.5 66t-100.5 22
l-51 -3v-157h92q46 0 68 21.5t22 50.5zM402 134q0 48 -31 79t-89 31h-87v-139q0 -57 14.5 -69.5t73.5 -12.5q52 0 85.5 32.5t33.5 78.5z" />
    <glyph glyph-name="c" unicode="c" horiz-adv-x="550" 
d="M494 124l-12 -97q-22 -15 -69 -28.5t-86 -13.5q-111 0 -185 62q-77 65 -77 167q0 99 75 171t187 72q38 0 70 -10t65 -21q8 0 15 4l7 -98l-14 1q-16 54 -53.5 75.5t-98.5 21.5q-81 0 -133 -64t-52 -152q0 -90 59.5 -146t143.5 -56q64 0 95 21q38 26 45 91h18z" />
    <glyph glyph-name="d" unicode="d" horiz-adv-x="628" 
d="M563 229q0 -94 -75 -162t-187 -68l-154 2q-16 0 -33.5 -2t-34.5 -3l-14 -1l1 14l11 1q35 4 45 15.5t10 43.5v304q0 31 -10 43t-45 16l-11 1l-1 14l14 -1q22 -2 44.5 -3.5t60.5 -1.5l117 3q111 0 186.5 -60t75.5 -155zM493 227q0 85 -56.5 138.5t-137.5 53.5l-104 -3v-335
q0 -35 20.5 -47t83.5 -12q83 0 138.5 60.5t55.5 144.5z" />
    <glyph glyph-name="e" unicode="e" horiz-adv-x="460" 
d="M418 90q-19 -31 -27 -54q-4 -11 -11 -38l-114 3h-119q-16 0 -33.5 -2t-34.5 -3l-14 -1l1 14l11 1q35 4 45 15.5t10 43.5v304q0 31 -10 43t-45 16l-11 1l-1 14l14 -1l40 -4t28 -1h232l17 -82l-16 1q-9 34 -18.5 42t-41.5 8l-125 2v-154h163v-28h-163v-161q0 -26 5 -32
t29 -6h77q38 0 53 10t37 47z" />
    <glyph glyph-name="f" unicode="f" horiz-adv-x="420" 
d="M396 359l-16 1q-9 34 -18.5 42t-41.5 8l-125 2v-154h163v-28h-163v-161q0 -31 10 -43t45 -16l11 -1l1 -14l-14 1l-40 4t-28 1h-33q-16 0 -33.5 -2t-34.5 -3l-14 -1l1 14l11 1q35 4 45 15.5t10 43.5v304q0 31 -10 43t-45 16l-11 1l-1 14l14 -1l40 -4t28 -1h232z" />
    <glyph glyph-name="g" unicode="g" horiz-adv-x="577" 
d="M553 199l-1 -15h-7q-35 -4 -45 -15.5t-10 -43.5v-95q-23 -15 -74 -30t-89 -15q-111 0 -185 62q-77 65 -77 167q0 99 75 171t187 72q45 0 88.5 -15.5t49.5 -15.5q8 0 15 4l17 -100h-16q-19 53 -60.5 76.5t-102.5 23.5q-81 0 -133 -64t-52 -152q0 -90 59.5 -146t143.5 -56
q56 0 91 21v92q0 31 -10 43t-45 16l-11 1l-1 14l14 -1l40 -4t28 -1h33q16 0 33.5 2t34.5 3z" />
    <glyph glyph-name="h" unicode="h" horiz-adv-x="631" 
d="M566 -5l-14 1l-40 4t-28 1h-33q-16 0 -33.5 -2t-34.5 -3l-14 -1l1 14l11 1q35 4 45 15.5t10 43.5v128h-241v-128q0 -31 10 -43t45 -16l11 -1l1 -14l-14 1l-40 4t-28 1h-33q-16 0 -33.5 -2t-34.5 -3l-14 -1l1 14l11 1q35 4 45 15.5t10 43.5v304q0 31 -10 43t-45 16l-11 1
l-1 14l14 -1l40 -4t28 -1h33q16 0 33.5 2t34.5 3l14 1l-1 -14l-11 -1q-35 -4 -45 -15.5t-10 -43.5v-86h241v86q0 31 -10 43t-45 16l-11 1l-1 14l14 -1l40 -4t28 -1h33q16 0 33.5 2t34.5 3l14 1l-1 -14l-11 -1q-35 -4 -45 -15.5t-10 -43.5v-304q0 -31 10 -43t45 -16l11 -1z
M436 226v32h-241v-32h241z" />
    <glyph glyph-name="i" unicode="i" horiz-adv-x="345" 
d="M232 561q-40 -16 -56 -56h-7q-16 40 -56 56v7q40 16 56 56h7q16 -40 56 -56v-7zM271 -5l-14 1l-40 4t-28 1h-33q-16 0 -33.5 -2t-34.5 -3l-14 -1l1 14l11 1q35 4 45 15.5t10 43.5v304q0 31 -10 43t-45 16l-11 1l-1 14l14 -1l40 -4t28 -1h33q16 0 33.5 2t34.5 3l14 1
l-1 -14l-11 -1q-35 -4 -45 -15.5t-10 -43.5v-304q0 -31 10 -43t45 -16l11 -1z" />
    <glyph glyph-name="j" unicode="j" horiz-adv-x="345" 
d="M232 561q-40 -16 -56 -56h-7q-16 40 -56 56v7q40 16 56 56h7q16 -40 56 -56v-7zM271 447l-1 -14l-11 -1q-35 -4 -45 -15.5t-10 -43.5v-460l-63 -74v534q0 31 -10 43t-45 16l-11 1l-1 14l14 -1l40 -4t28 -1h33q16 0 33.5 2t34.5 3z" />
    <glyph glyph-name="k" unicode="k" horiz-adv-x="500" 
d="M707 -46q-6 -15 -37 -25.5t-73 -10.5q-92 0 -191 84q-87 98 -173 197q-11 8 -28 8q-7 -1 -10 -1v-137q0 -31 10 -43t45 -16l11 -1l1 -14l-14 1l-40 4t-28 1h-33q-16 0 -33.5 -2t-34.5 -3l-14 -1l1 14l11 1q35 4 45 15.5t10 43.5v304q0 31 -10 43t-45 16l-11 1l-1 14
l14 -1l40 -4t28 -1h33q16 0 33.5 2t34.5 3l14 1l-1 -14l-11 -1q-35 -4 -45 -15.5t-10 -43.5v-147q46 0 114.5 71.5t68.5 105.5q0 14 -11.5 20t-43.5 9l-11 1l-1 14l14 -1l40 -4t28 -1h13q16 0 33.5 2t34.5 3l14 1l-1 -14l-11 -1q-31 -3 -54 -29q-20 -29 -25 -37
q-30 -43 -60 -74.5t-61 -54.5q75 -101 142 -177q73 -83 148 -108q33 -11 70 -11q41 0 71 13z" />
    <glyph glyph-name="l" unicode="l" horiz-adv-x="452" 
d="M443 108q-26 -34 -42 -65q-12 -23 -18 -46l-202 4h-34q-16 0 -33.5 -2t-34.5 -3l-14 -1l1 14l11 1q35 4 45 15.5t10 43.5v304q0 31 -10 43t-45 16l-11 1l-1 14l14 -1l40 -4t28 -1h33q16 0 33.5 2t34.5 3l14 1l-1 -14l-11 -1q-35 -4 -45 -15.5t-10 -43.5v-304q0 -26 5 -32
t29 -6h74q39 0 53 7t40 40l24 30h23z" />
    <glyph glyph-name="m" unicode="m" horiz-adv-x="743" 
d="M678 -5l-14 1l-40 4t-28 1h-33q-16 0 -33.5 -2t-34.5 -3l-6 -1l1 15q37 4 47.5 15.5t10.5 43.5v320l-145 -38v-282q0 -31 10 -43t45 -16l4 -15l-6 1l-40 4t-28 1h-33q-16 0 -33.5 -2t-34.5 -3l-6 -1l1 15q37 4 47.5 15.5t10.5 43.5v282l-145 38v-320q0 -31 10 -43t45 -16
l4 -15l-6 1l-40 4t-28 1h-33q-16 0 -33.5 -2t-34.5 -3l-14 -1l1 14l11 1q35 4 45 15.5t10 43.5v304q0 31 -10 43t-45 16l-11 1l-1 14l14 -1q49 -4 68 -9l224 -58l225 58q15 4 68 9l14 1l-1 -14l-11 -1q-35 -4 -45 -15.5t-10 -43.5v-304q0 -31 10 -43t45 -16l11 -1z" />
    <glyph glyph-name="n" unicode="n" horiz-adv-x="605" 
d="M86 5l7 1q23 3 32 12t9 30v346q0 22 -9 31t-32 11l-7 1l-1 9h9l50 -4h32l49 4h10l-1 -9l-7 -1q-23 -2 -32 -11.5t-9 -30.5v-45l231 -167v212q0 22 -8.5 31t-31.5 11l-8 1v9h8l50 -4h34l49 4h9l-1 -9l-7 -1q-23 -2 -32 -11.5t-9 -30.5v-346q0 -22 9 -30.5t32 -11.5l7 -1
l1 -9l-9 1l-49 3h-34l-50 -3l-8 -1v9l8 1q23 3 31.5 12t8.5 30v66l-231 166v-232q0 -22 9 -30.5t32 -11.5l7 -1l1 -9l-10 1l-49 3h-32l-50 -3l-9 -1zM417 136v23l-231 167v-23z" />
    <glyph glyph-name="o" unicode="o" horiz-adv-x="653" 
d="M588 228q0 -100 -74.5 -171.5t-186.5 -71.5q-111 0 -185 62q-77 65 -77 167q0 99 75 171t187 72q111 0 186 -63.5t75 -165.5zM525 221q-10 87 -68 144q-61 60 -151 60q-80 0 -129 -52t-49 -130q0 -14 1 -22q9 -86 69.5 -145.5t149.5 -59.5q79 0 128.5 52.5t49.5 130.5
q0 14 -1 22z" />
    <glyph glyph-name="p" unicode="p" horiz-adv-x="460" 
d="M427 332q0 -63 -55 -104t-131 -41l-21 1v13h13q54 0 92 31t38 84q0 44 -31.5 75t-88.5 31q-28 0 -38 -2t-10 -29v-322q0 -31 10 -43t45 -16l11 -1l1 -14l-14 1l-40 4t-28 1h-33q-16 0 -33.5 -2t-34.5 -3l-14 -1l1 14l11 1q35 4 45 15.5t10 43.5v304q0 31 -10 43t-45 16
l-11 1l-1 14l14 -1l40 -4t28 -1h7q6 0 45 1.5t67 1.5q73 0 117 -32.5t44 -79.5z" />
    <glyph glyph-name="q" unicode="q" horiz-adv-x="653" 
d="M965 -126q-5 -23 -43 -45q-45 -26 -103 -26q-92 0 -219 44q-93 32 -197 85q-71 36 -95 53q-99 0 -169 62q-74 66 -74 167q0 99 75 171t187 72q111 0 186 -63.5t75 -165.5q0 -79 -48.5 -142.5t-128.5 -88.5q65 -36 131 -72q82 -43 141 -63q80 -27 148 -27q43 0 72.5 9
t61.5 30zM533 221q-10 87 -71 144q-64 60 -157 60q-83 0 -134 -52t-51 -129q0 -15 1 -23q9 -87 70 -144q65 -61 158 -61q83 0 134 52t51 130v14q-1 6 -1 9z" />
    <glyph glyph-name="r" unicode="r" horiz-adv-x="515" 
d="M805 -67q-6 -15 -37 -25.5t-73 -10.5q-83 0 -182 65q-71 47 -150 127l-82 86q-6 6 -23 12h-63v-118q0 -31 10 -43t45 -16l11 -1l1 -14l-14 1l-40 4t-28 1h-33q-16 0 -33.5 -2t-34.5 -3l-14 -1l1 14l11 1q35 4 45 15.5t10 43.5v304q0 31 -10 43t-45 16l-11 1l-1 14l14 -1
l40 -4t28 -1h7q6 0 45 1.5t67 1.5q73 0 117 -32.5t44 -79.5q0 -46 -31 -82q-26 -30 -64 -45q102 -108 180 -176q85 -75 152 -98q33 -11 70 -11q41 0 71 13zM363 316q0 44 -31.5 75t-88.5 31q-28 0 -38 -2t-10 -29v-182h88q36 12 58 40t22 67z" />
    <glyph glyph-name="s" unicode="s" horiz-adv-x="397" 
d="M343 115q0 -52 -45 -91t-114 -39q-37 0 -71 13q-20 9 -40 19l-16 94h14q24 -101 113 -101q45 0 73.5 22t28.5 62q0 37 -29 64q-23 21 -89 57q-49 28 -73 53q-31 33 -31 71q0 55 35.5 86.5t95.5 31.5q26 0 69 -16q24 -9 42 -9l13 -72h-12q-17 41 -52 59q-27 14 -64 14
q-32 0 -54 -21t-22 -52q0 -33 40 -60q8 -6 49 -29q90 -49 114.5 -81t24.5 -75z" />
    <glyph glyph-name="t" unicode="t" horiz-adv-x="456" 
d="M449 486l-40 -103h-16q2 6 2 14q0 11 -29 11h-106v-339q0 -31 10 -43t45 -16l11 -1l1 -14l-14 1l-40 4t-28 1h-33q-16 0 -33.5 -2t-34.5 -3l-14 -1l1 14l11 1q35 4 45 15.5t10 43.5v339h-116q-22 0 -33.5 -8t-25.5 -37h-15l39 103h17q-2 -12 -2 -13q0 -12 29 -12h107v56
q0 31 -10 43t-45 16l-11 1l-1 14l14 -1l40 -4t28 -1h33q16 0 33.5 2t34.5 3l14 1l-1 -14l-11 -1q-35 -4 -45 -15.5t-10 -43.5v-56h116q21 0 32 8t26 37h15z" />
    <glyph glyph-name="u" unicode="u" 
d="M540 447l-1 -14l-11 -1q-35 -4 -45 -15.5t-10 -43.5v-4q0 -129 -45 -228q-48 -106 -140 -160q-93 54 -139.5 155.5t-46.5 230.5v6q0 31 -10 43t-45 16l-11 1l-1 14l14 -1l40 -4t28 -1h36q16 0 33.5 2t34.5 3l14 1l-1 -14l-11 -1q-35 -4 -45 -15.5t-10 -43.5v-6
q0 -150 35 -246q31 -85 85 -115q54 30 86.5 119.5t32.5 243.5v4q0 31 -10 43t-45 16l-11 1l-1 14l14 -1l40 -4t28 -1h36q16 0 33.5 2t34.5 3z" />
    <glyph glyph-name="v" unicode="v" horiz-adv-x="506" 
d="M496 446l-2 -16l-10 -1q-26 -2 -39 -12.5t-26 -43.5l-152 -380h-11l-169 387q-12 27 -26 37t-40 12l-10 1l-1 16l13 -2l70 -3h36l69 3l14 2l-2 -16l-10 -1q-20 -3 -33.5 -11t-13.5 -24q0 -6 3 -14l121 -277l109 280q3 8 3 15q0 14 -14 21.5t-35 9.5l-10 1l-1 16l13 -2
q19 0 32 -1t25 -2h27l56 3z" />
    <glyph glyph-name="w" unicode="w" horiz-adv-x="820" 
d="M785 447l-1 -14l-11 -1q-35 -4 -45 -15.5t-10 -43.5v-4q0 -135 -37 -228q-42 -107 -133 -160q-50 29 -84.5 74t-53.5 101q-20 -58 -51 -99q-35 -46 -86 -76q-90 52 -133 159q-38 94 -38 227v6q0 31 -10 43t-45 16l-11 1l-1 14l14 -1l40 -4t28 -1h36q16 0 33.5 2t34.5 3
l14 1l-1 -14l-11 -1q-35 -4 -45 -15.5t-10 -43.5v-6q0 -156 26.5 -244t78.5 -117q51 28 77.5 117t26.5 246v4q0 31 -10 43t-45 16l-11 1l-1 14l14 -1l40 -4t28 -1h36q16 0 33.5 2t34.5 3l14 1l-1 -14l-11 -1q-35 -4 -45 -15.5t-10 -43.5v-6q0 -156 26.5 -244t78.5 -117
q51 28 77.5 117t26.5 246v4q0 31 -10 43t-45 16l-11 1l-1 14l14 -1l40 -4t28 -1h36q16 0 33.5 2t34.5 3z" />
    <glyph glyph-name="x" unicode="x" horiz-adv-x="538" 
d="M531 -5l-14 1l-40 4t-28 1h-33q-17 0 -37.5 -2t-37.5 -3l-14 -1l1 14l11 1q29 3 29 19q0 9 -5 17t-16 23l-88 118l-96 -118q-20 -25 -20 -38q0 -17 34 -21l11 -1l1 -14l-14 1l-40 4t-28 1h-13q-16 0 -33.5 -2t-34.5 -3l-14 -1l1 14l11 1q32 3 57 21q17 12 38 38l119 147
l-104 140q-35 47 -54.5 60t-45.5 16l-11 1l-1 14l14 -1l40 -4t28 -1h41q16 0 33.5 2t34.5 3l14 1l-1 -14l-11 -1q-34 -4 -34 -20q0 -7 5.5 -16.5t14.5 -22.5l78 -106l86 106q7 8 10 13q9 14 9 24q0 8 -7.5 14.5t-24.5 7.5l-11 1l-1 14l14 -1l40 -4t28 -1h13q16 0 33.5 2
t34.5 3l14 1l-1 -14l-11 -1q-33 -3 -58 -21q-17 -12 -38 -38l-109 -135l125 -169q19 -26 36 -38q24 -18 58 -21l11 -1z" />
    <glyph glyph-name="y" unicode="y" horiz-adv-x="506" 
d="M506 447l-1 -14l-11 -1q-33 -3 -53 -21q-13 -11 -30 -38l-117 -181v-123q0 -31 10 -43t45 -16l11 -1l1 -14l-14 1l-40 4t-28 1h-33q-16 0 -33.5 -2t-34.5 -3l-14 -1l1 14l11 1q35 4 45 15.5t10 43.5v118l-125 186q-16 25 -35 38q-24 17 -59 21l-11 1l-1 14l14 -1l40 -4
t28 -1h32q17 0 37.5 2t37.5 3l14 1l-1 -14l-11 -1q-29 -3 -29 -18q0 -7 7 -19q2 -3 14 -22l98 -146l94 146q13 20 13 32q0 23 -42 27l-11 1l-1 14l14 -1l40 -4t28 -1h8q16 0 33.5 2t34.5 3z" />
    <glyph glyph-name="z" unicode="z" horiz-adv-x="480" 
d="M431 88l-40 -113h-16q2 6 2 14q0 11 -29 11h-298v19l146 208h-117l28 29h110l106 152h-171q-32 0 -58 -55h-14l38 113h18q-3 -9 -3 -14q0 -11 29 -11h243v-18l-117 -167h128l-27 -29h-122l-136 -194h227q31 0 57 55h16z" />
    <glyph glyph-name="braceleft" unicode="{" horiz-adv-x="470" 
d="M373 -105l-1 -17q-81 11 -132 63.5t-51 125.5q0 22 7 57q16 80 16 92q0 84 -112 105v19q53 10 82.5 37.5t29.5 67.5q0 19 -7 52q-16 77 -16 97q0 72 51.5 125t131.5 64l1 -17q-113 -27 -113 -120v-631q0 -93 113 -120z" />
    <glyph glyph-name="bar" unicode="|" horiz-adv-x="510" 
d="M282 -200h-54v1000h54v-1000z" />
    <glyph glyph-name="braceright" unicode="}" horiz-adv-x="470" 
d="M370 321q-53 -10 -82.5 -37.5t-29.5 -67.5q0 -19 7 -52q16 -77 16 -97q0 -72 -51.5 -125t-131.5 -64l-1 17q113 27 113 120v631q0 93 -113 120l1 17q81 -11 132 -63.5t51 -125.5q0 -22 -7 -57q-16 -80 -16 -92q0 -84 112 -105v-19z" />
    <glyph glyph-name="asciitilde" unicode="~" horiz-adv-x="542" 
d="M519 391q0 -68 -38 -113t-93 -45q-31 0 -62.5 11t-88.5 42q-37 20 -62 29.5t-42 9.5q-37 0 -62.5 -25.5t-25.5 -66.5h-22q0 66 39.5 111.5t95.5 45.5q30 0 59 -10.5t81 -39.5q71 -39 108 -39t60.5 23.5t28.5 66.5h24z" />
    <glyph glyph-name="nonbreakingspace" unicode="&#xa0;" horiz-adv-x="278" 
 />
    <glyph glyph-name="exclamdown" unicode="&#xa1;" horiz-adv-x="300" 
d="M200 454q-45 -17 -61 -61h-8q-17 45 -61 61v8q21 7 36.5 23t24.5 38h8q12 -22 26.5 -38t34.5 -23v-8zM200 -84q-45 -17 -61 -61h-8q-17 45 -61 61v8q18 6 41 205q20 171 20 222h8q0 -51 21.5 -235.5t39.5 -191.5v-8z" />
    <glyph glyph-name="cent" unicode="&#xa2;" horiz-adv-x="590" 
d="M514 124l-12 -97q-22 -15 -69 -28.5t-86 -13.5q-76 0 -138 31l-58 -119h-26l64 131q-49 30 -76.5 77.5t-27.5 108.5q0 99 75 171t187 72q26 0 49 -5l47 97h27l-50 -103q16 -5 35 -12.5t27 -7.5t15 4l7 -98l-14 1q-11 36 -31.5 57t-50.5 31l-179 -365q55 -44 127 -44
q64 0 95 21q38 26 45 91h18zM383 427l-45 3q-81 0 -133 -64t-52 -152q0 -42 15 -77t43 -64z" />
    <glyph glyph-name="sterling" unicode="&#xa3;" horiz-adv-x="620" 
d="M557 613q-29 -16 -43.5 -28t-38.5 -39q-34 24 -58.5 33.5t-46.5 9.5q-55 0 -79 -67q-11 -29 -22 -112l-9 -70h148v-32h-153l-20 -154q-4 -28 -4 -53q0 -33 9.5 -45.5t28.5 -12.5h107q53 0 75 15t54 66l17 2q-23 -42 -32 -71q-7 -33 -12 -52l-303 9q-31 0 -44.5 -14
t-13.5 -50l-2 -11l-11 -1v14q0 24 2.5 50.5t2.5 27.5v10q25 0 37.5 29t19.5 87l20 154h-96v32h100l10 70q11 88 40 140q45 82 132 82q20 0 50 -5q38 -11 77 -21q14 0 25 3t28 14z" />
    <glyph glyph-name="currency" unicode="&#xa4;" horiz-adv-x="457" 
d="M389 -67l-14 1l-1 11q-4 35 -15.5 45t-43.5 10h-249l4 17q12 14 96 103q63 66 90 107q40 60 40 109q0 43 -24.5 70.5t-66.5 27.5q-34 0 -57 -21t-23 -49q0 -47 44 -55l10 -1l2 -15q-29 2 -45 3q-42 4 -65 8q0 74 47 116q41 37 98 37q62 0 102.5 -31t40.5 -86
q0 -70 -116 -187q-51 -50 -101 -99h173q31 0 43 10t16 45l1 11l14 1l-1 -14l-4 -40t-1 -28v-24q0 -16 2 -33.5t3 -34.5z" />
    <glyph glyph-name="yen" unicode="&#xa5;" horiz-adv-x="677" 
d="M667 627l-1 -13l-11 -1q-37 -4 -60.5 -22.5t-55.5 -69.5l-48 -77h116v-53h-150l-59 -94h209v-53h-230v-176q0 -29 14 -42t51 -17l11 -1l1 -13l-14 1l-78 5h-38l-78 -5l-14 -1l1 13l11 1q37 4 51 16t14 43v176h-229v53h196l-59 94h-137v53h104l-57 90q-31 49 -49 62
t-56 17l-11 1l-1 13l14 -1l88 -5h38l88 5l14 1l-1 -13l-11 -1q-31 -2 -46 -6.5t-15 -19.5q0 -8 7 -19l78 -124h182l66 106q10 17 10 29q0 16 -18 23t-47 11l-11 1l-1 13l14 -1l78 -5h38l78 5zM413 391h-116l58 -93z" />
    <glyph glyph-name="brokenbar" unicode="&#xa6;" horiz-adv-x="510" 
d="M282 461h-54v352h54v-352zM282 -17h-54v352h54v-352z" />
    <glyph glyph-name="section" unicode="&#xa7;" horiz-adv-x="443" 
d="M374 122q0 -61 -38 -99t-96 -38q-73 0 -117 52t-44 147v23q2 11 2 15q8 92 61 161q47 61 112 84q8 2 10 2q10 0 10 -7t-15 -14q-47 -26 -77 -81.5t-39 -143.5q37 45 97 45q59 0 96.5 -42.5t37.5 -103.5zM326 127q0 53 -22 88.5t-61 35.5q-42 0 -69.5 -35.5t-32.5 -88.5
q0 -54 21.5 -89t61.5 -35q42 0 69.5 35.5t32.5 88.5z" />
    <glyph glyph-name="dieresis" unicode="&#xa8;" horiz-adv-x="332" 
d="M315 513q-40 -16 -56 -56h-7q-16 40 -56 56v7q40 16 56 56h7q16 -40 56 -56v-7zM129 513q-40 -16 -56 -56h-7q-16 40 -56 56v7q40 16 56 56h7q16 -40 56 -56v-7z" />
    <glyph glyph-name="copyright" unicode="&#xa9;" horiz-adv-x="752" 
d="M702 311q0 -135 -95.5 -230.5t-230.5 -95.5t-230.5 95.5t-95.5 230.5t95.5 230.5t230.5 95.5t230.5 -95.5t95.5 -230.5zM675 311q0 123 -88 211t-211 88t-211 -88t-88 -211t88 -211t211 -88t211 88t88 211zM550 230l-11 -88q-21 -15 -61 -26.5t-79 -11.5
q-101 0 -168.5 57t-67.5 150q0 90 67 154t169 64q35 0 63 -9t58 -19q9 0 14 4l7 -88l-13 1q-15 48 -48.5 67.5t-88.5 19.5q-74 0 -120 -56.5t-46 -137.5q0 -80 54 -131t128 -51q59 0 86 19q34 23 40 82h17z" />
    <glyph glyph-name="ordfeminine" unicode="&#xaa;" horiz-adv-x="0" 
 />
    <glyph glyph-name="guillemotleft" unicode="&#xab;" horiz-adv-x="454" 
d="M359 83h-17l-117 166l117 169h17l-63 -169zM249 65h-18l-147 184l147 186h18l-95 -186z" />
    <glyph glyph-name="logicalnot" unicode="&#xac;" horiz-adv-x="667" 
d="M597 177h-52v238h-476v53h528v-291z" />
    <glyph glyph-name="minus" unicode="&#xad;" horiz-adv-x="667" 
d="M597 276h-528v61h528v-61z" />
    <glyph glyph-name="registered" unicode="&#xae;" horiz-adv-x="752" 
d="M702 311q0 -135 -95.5 -230.5t-230.5 -95.5t-230.5 95.5t-95.5 230.5t95.5 230.5t230.5 95.5t230.5 -95.5t95.5 -230.5zM476 396q0 40 -28 68t-80 28q-29 0 -36.5 -4t-7.5 -24v-161h56q42 7 67 29q29 25 29 64zM675 311q0 123 -88 211t-211 88t-211 -88t-88 -211t88 -211
t211 -88q59 0 110 20.5t94 60.5q-8 4 -33 24q-40 33 -100 86q-45 40 -89 80h-34v-109q0 -28 9 -39t41 -14l10 -1l1 -12h-13l-36 4t-25 1h-30q-14 0 -29.5 -2t-31.5 -3h-13l1 12l10 1q31 3 40.5 14t9.5 39v274q0 29 -9 39t-41 14l-10 1l-1 12l13 -1l61 -4h7h18q55 3 82 3
q66 0 105.5 -29t39.5 -72q0 -41 -26 -72t-70 -47l133 -159q8 -8 12.5 -14t8.5 -15q39 40 61.5 95t22.5 112z" />
    <glyph glyph-name="macron" unicode="&#xaf;" horiz-adv-x="333" 
d="M322 479h-311v63h311v-63z" />
    <glyph glyph-name="degree" unicode="&#xb0;" horiz-adv-x="333" 
d="M257 690q0 -39 -27 -66t-66 -27t-66.5 27.5t-27.5 65.5q0 39 27.5 66.5t66.5 27.5t66 -27t27 -67zM223 690q0 24 -17 42t-42 18t-42.5 -17.5t-17.5 -42.5t17 -42t43 -17q24 0 41.5 17.5t17.5 41.5z" />
    <glyph glyph-name="plusminus" unicode="&#xb1;" horiz-adv-x="667" 
d="M597 375h-238v-236h-53v236h-237v52h237v238h53v-238h238v-52zM597 0h-528v53h528v-53z" />
    <glyph glyph-name="twosuperior" unicode="&#xb2;" horiz-adv-x="411" 
d="M350 166l-13 1v9q-4 33 -14.5 41.5t-39.5 8.5h-224l4 15q15 18 86 93q55 59 81 97q36 54 36 97q0 39 -22 64t-60 25q-28 0 -48.5 -19.5t-23.5 -46.5q0 -22 8.5 -32.5t31.5 -14.5l9 -1l2 -13q-26 2 -40 3q-43 4 -59 7q0 66 42 104q37 33 88 33q55 0 92 -28t37 -77
q0 -62 -105 -168q-45 -45 -90 -89h155q28 0 39 9t15 40v10l13 1l-1 -13l-4 -61v-22l4 -61z" />
    <glyph glyph-name="threesuperior" unicode="&#xb3;" horiz-adv-x="396" 
d="M319 624q-10 -44 -31.5 -83.5t-52.5 -71.5q44 -11 70.5 -44.5t26.5 -79.5q0 -54 -38.5 -93.5t-96.5 -39.5q-31 0 -55.5 10t-45.5 28q-13 11 -23 11q-13 0 -30 -13l-8 -5l-9 8l9 6l38 33l17 17l34 37l7 10l9 -10l-6 -8q-14 -17 -14 -28q0 -9 9 -25q8 -19 29.5 -34
t48.5 -15q35 0 54.5 30t19.5 76q-4 43 -31 69t-63 26q-8 0 -16 -3q-3 -1 -8 -4l-3 5q46 38 73.5 72t38.5 70h-110q-28 0 -39 -9t-14 -40l-1 -10l-13 -1l1 12l4 36t1 26v21q0 14 -2 30t-3 31l-1 13l13 -1l1 -10q3 -32 13.5 -40.5t39.5 -8.5h157z" />
    <glyph glyph-name="acute" unicode="&#xb4;" horiz-adv-x="333" 
d="M275 626l-143 -169h-17l51 169h109z" />
    <glyph glyph-name="mu" unicode="&#xb5;" horiz-adv-x="609" 
d="M544 -5l-14 1l-40 4t-28 1h-48v60q-26 -33 -64.5 -52t-79.5 -19q-57 0 -94 24v-88q0 -31 10 -43t45 -16l11 -1l1 -14l-14 1l-40 4t-28 1h-33q-16 0 -33.5 -2t-34.5 -3l-14 -1l1 14l11 1q35 4 45 15.5t10 43.5v447q0 31 -10 43t-45 16l-11 1l-1 14l14 -1l40 -4t28 -1h33
q16 0 33.5 2t34.5 3l14 1l-1 -14l-11 -1q-35 -4 -45 -15.5t-10 -43.5v-204q0 -68 35 -104q31 -31 80 -31q35 0 67.5 19t55.5 52v268q0 31 -10 43t-45 16l-11 1l-1 14l14 -1l40 -4t28 -1h33q16 0 33.5 2t34.5 3l14 1l-1 -14l-11 -1q-35 -4 -45 -15.5t-10 -43.5v-304
q0 -31 10 -43t45 -16l11 -1z" />
    <glyph glyph-name="paragraph" unicode="&#xb6;" horiz-adv-x="630" 
d="M531 -206l-14 1l-78 5h-22v790h-91v-137h-37v112h-32v-112h-112v-32h112v-111h32v111h37v-421h-37v253h-44q-77 0 -131 53t-54 131q0 77 54 131t131 54h194l78 5l14 1l-1 -13l-11 -1q-37 -4 -51 -16t-14 -43v-688q0 -29 14 -42t51 -17l11 -1z" />
    <glyph glyph-name="periodcentered" unicode="&#xb7;" horiz-adv-x="443" 
d="M363 219q-9 -92 -61 -161q-47 -61 -112 -84q-4 -2 -10 -2q-10 0 -10 7t15 15q47 25 77 81t39 142q-38 -45 -97 -45t-96.5 42.5t-37.5 103.5q0 62 38.5 100.5t95.5 38.5q72 0 116.5 -53t44.5 -147v-23q-2 -11 -2 -15zM297 314q0 52 -20 85t-57 33q-39 0 -65 -34t-31 -84
q0 -51 20 -84.5t57 -33.5q39 0 65 34t31 84z" />
    <glyph glyph-name="periodcentered" unicode="&#x2219;" horiz-adv-x="443" 
d="M363 219q-9 -92 -61 -161q-47 -61 -112 -84q-4 -2 -10 -2q-10 0 -10 7t15 15q47 25 77 81t39 142q-38 -45 -97 -45t-96.5 42.5t-37.5 103.5q0 62 38.5 100.5t95.5 38.5q72 0 116.5 -53t44.5 -147v-23q-2 -11 -2 -15zM297 314q0 52 -20 85t-57 33q-39 0 -65 -34t-31 -84
q0 -51 20 -84.5t57 -33.5q39 0 65 34t31 84z" />
    <glyph glyph-name="cedilla" unicode="&#xb8;" horiz-adv-x="333" 
d="M258 -125q0 -34 -27 -59t-68 -25q-15 0 -26.5 3.5t-31.5 12.5l9 19q9 -6 23.5 -9t28.5 -3q20 0 36.5 17.5t16.5 36.5t-15.5 31.5t-37.5 12.5q-12 0 -22 -3.5t-19 -9.5l-21 -13l94 119h36l-36 -53q27 -10 43.5 -30.5t16.5 -46.5z" />
    <glyph glyph-name="onesuperior" unicode="&#xb9;" horiz-adv-x="346" 
d="M262 221l-13 1l-36 4t-25 1h-30q-14 0 -29.5 -2t-31.5 -3l-12 -1v13l10 1q31 3 40.5 14t9.5 39v274q0 29 -9 39t-41 14l-10 1v12l12 -1l61 -4h30l61 4l13 1l-1 -12l-10 -1q-32 -4 -40.5 -13.5t-8.5 -39.5v-274q0 -28 9 -39t40 -14l10 -1z" />
    <glyph glyph-name="ordmasculine" unicode="&#xba;" horiz-adv-x="0" 
 />
    <glyph glyph-name="guillemotright" unicode="&#xbb;" horiz-adv-x="454" 
d="M371 249l-148 -184h-18l95 184l-95 186h18zM229 249l-116 -166h-18l63 166l-63 169h18z" />
    <glyph glyph-name="onequarter" unicode="&#xbc;" horiz-adv-x="926" 
d="M819 46l-13 1l-1 10q-3 32 -13.5 40.5t-39.5 8.5l-1 -44q0 -28 9 -39t41 -14l10 -1l1 -13l-13 1q-21 3 -38 4t-23 1h-30q-14 0 -30 -2t-31 -3l-13 -1l1 13l10 1q31 3 40.5 14t9.5 39v44h-184l201 291h26l61 4l13 1l-1 -12l-10 -1q-32 -4 -41 -14t-9 -39v-194q29 0 40 9
t14 41l1 10h13l-1 -12l-4 -36t-1 -25v-9q0 -14 2 -30t3 -32zM704 654l-486 -681h-41l486 681h41zM262 221l-13 1l-36 4t-25 1h-30q-14 0 -29.5 -2t-31.5 -3l-12 -1v13l10 1q31 3 40.5 14t9.5 39v274q0 29 -9 39t-41 14l-10 1v12l12 -1l61 -4h30l61 4l13 1l-1 -12l-10 -1
q-32 -4 -40.5 -13.5t-8.5 -39.5v-274q0 -28 9 -39t40 -14l10 -1zM695 140v177l-124 -177h124z" />
    <glyph glyph-name="onehalf" unicode="&#xbd;" horiz-adv-x="960" 
d="M860 -60l-13 1v9q-4 33 -14.5 41.5t-39.5 8.5h-224l4 15q15 18 86 93q55 59 81 97q36 54 36 97q0 39 -22 64t-60 25q-28 0 -48.5 -19.5t-23.5 -46.5q0 -22 8.5 -32.5t31.5 -14.5l9 -1l2 -13q-26 2 -40 3q-43 4 -59 7q0 66 42 104q37 33 88 33q55 0 92 -28t37 -77
q0 -62 -105 -168q-45 -45 -90 -89h155q28 0 39 9t15 40v10l13 1l-1 -13l-4 -61v-22l4 -61zM704 654l-486 -681h-41l486 681h41zM262 221l-13 1l-36 4t-25 1h-30q-14 0 -29.5 -2t-31.5 -3l-12 -1v13l10 1q31 3 40.5 14t9.5 39v274q0 29 -9 39t-41 14l-10 1v12l12 -1l61 -4h30
l61 4l13 1l-1 -12l-10 -1q-32 -4 -40.5 -13.5t-8.5 -39.5v-274q0 -28 9 -39t40 -14l10 -1z" />
    <glyph glyph-name="threequarters" unicode="&#xbe;" horiz-adv-x="966" 
d="M859 46l-13 1l-1 10q-3 32 -13.5 40.5t-39.5 8.5l-1 -44q0 -28 9 -39t41 -14l10 -1l1 -13l-13 1q-21 3 -38 4t-23 1h-30q-14 0 -30 -2t-31 -3l-13 -1l1 13l10 1q31 3 40.5 14t9.5 39v44h-184l201 291h26l61 4l13 1l-1 -12l-10 -1q-32 -4 -41 -14t-9 -39v-194q29 0 40 9
t14 41l1 10h13l-1 -12l-4 -36t-1 -25v-9q0 -14 2 -30t3 -32zM764 654l-486 -681h-41l486 681h41zM352 345q0 -54 -38.5 -93.5t-96.5 -39.5q-31 0 -55.5 10t-45.5 28q-13 11 -23 11q-13 0 -30 -13l-8 -5l-9 8l9 6l38 33l17 17l34 37l7 10l9 -10l-6 -8q-14 -17 -14 -28
q0 -9 9 -25q8 -19 29.5 -34t48.5 -15q35 0 54.5 30t19.5 76q-4 43 -31 69t-63 26q-8 0 -16 -3q-3 -1 -8 -4l-3 5q46 38 73.5 72t38.5 70h-110q-28 0 -39 -9t-14 -40l-1 -10l-13 -1l1 12l4 36t1 26v21q0 14 -2 30t-3 31l-1 13l13 -1l1 -10q3 -32 13.5 -40.5t39.5 -8.5h157
q-10 -44 -31.5 -83.5t-52.5 -71.5q44 -11 70.5 -44.5t26.5 -79.5zM735 140v177l-124 -177h124z" />
    <glyph glyph-name="questiondown" unicode="&#xbf;" horiz-adv-x="438" 
d="M354 455q-21 -7 -37 -23.5t-24 -37.5h-8q-7 21 -23.5 37t-37.5 24v8q18 7 33.5 23.5t27.5 37.5h8q8 -19 24.5 -36.5t36.5 -24.5v-8zM391 -118q-38 -15 -62.5 -20.5t-66.5 -5.5q-88 0 -145 48.5t-57 127.5q0 54 44.5 101.5t108.5 70.5q38 15 48 25.5t13 30.5l10 81h10
l17 -160q-77 0 -126.5 -45.5t-49.5 -104.5q0 -58 36.5 -104t90.5 -46q59 0 83 29q17 21 30 82h11q0 -68 5 -110z" />
    <glyph glyph-name="Agrave" unicode="&#xc0;" horiz-adv-x="706" 
d="M656 -6l-14 1l-78 5h-38l-78 -5l-14 -1l1 13l11 1q37 4 51 16t14 43v14l-3 108h-310l-3 -108v-14q0 -29 14 -42t51 -17l11 -1l1 -13l-14 1l-78 5h-38l-78 -5l-14 -1l1 13l11 1q37 4 51 16t14 43v17q0 202 45 332q55 158 181 233q125 -74 180 -232q46 -132 46 -333v-17
q0 -29 14 -42t51 -17l11 -1zM506 227q0 158 -46 265q-40 92 -107 131q-67 -38 -107 -131q-46 -106 -46 -265h306z" />
    <glyph glyph-name="Aacute" unicode="&#xc1;" horiz-adv-x="706" 
d="M656 -6l-14 1l-78 5h-38l-78 -5l-14 -1l1 13l11 1q37 4 51 16t14 43v14l-3 108h-310l-3 -108v-14q0 -29 14 -42t51 -17l11 -1l1 -13l-14 1l-78 5h-38l-78 -5l-14 -1l1 13l11 1q37 4 51 16t14 43v17q0 202 45 332q55 158 181 233q125 -74 180 -232q46 -132 46 -333v-17
q0 -29 14 -42t51 -17l11 -1zM506 227q0 158 -46 265q-40 92 -107 131q-67 -38 -107 -131q-46 -106 -46 -265h306zM477 876l-143 -169h-17l51 169h109z" />
    <glyph glyph-name="Acircumflex" unicode="&#xc2;" horiz-adv-x="706" 
d="M656 -6l-14 1l-78 5h-38l-78 -5l-14 -1l1 13l11 1q37 4 51 16t14 43v14l-3 108h-310l-3 -108v-14q0 -29 14 -42t51 -17l11 -1l1 -13l-14 1l-78 5h-38l-78 -5l-14 -1l1 13l11 1q37 4 51 16t14 43v17q0 202 45 332q55 158 181 233q125 -74 180 -232q46 -132 46 -333v-17
q0 -29 14 -42t51 -17l11 -1zM506 227q0 158 -46 265q-40 92 -107 131q-67 -38 -107 -131q-46 -106 -46 -265h306zM492 708h-15l-122 113l-123 -113h-15l92 161h90z" />
    <glyph glyph-name="Atilde" unicode="&#xc3;" horiz-adv-x="706" 
d="M656 -6l-14 1l-78 5h-38l-78 -5l-14 -1l1 13l11 1q37 4 51 16t14 43v14l-3 108h-310l-3 -108v-14q0 -29 14 -42t51 -17l11 -1l1 -13l-14 1l-78 5h-38l-78 -5l-14 -1l1 13l11 1q37 4 51 16t14 43v17q0 202 45 332q55 158 181 233q125 -74 180 -232q46 -132 46 -333v-17
q0 -29 14 -42t51 -17l11 -1zM506 227q0 158 -46 265q-40 92 -107 131q-67 -38 -107 -131q-46 -106 -46 -265h306zM476 806q0 -49 -22 -73t-58 -24q-24 0 -46 11q-2 1 -37 22q-17 10 -27 14.5t-19 4.5q-17 0 -30 -13t-13 -39h-20q0 42 20 69.5t61 27.5q17 0 35 -8
q12 -5 38 -22q17 -11 29 -17t24 -6q18 0 31.5 13.5t13.5 39.5h20z" />
    <glyph glyph-name="Adieresis" unicode="&#xc4;" horiz-adv-x="706" 
d="M656 -6l-14 1l-78 5h-38l-78 -5l-14 -1l1 13l11 1q37 4 51 16t14 43v14l-3 108h-310l-3 -108v-14q0 -29 14 -42t51 -17l11 -1l1 -13l-14 1l-78 5h-38l-78 -5l-14 -1l1 13l11 1q37 4 51 16t14 43v17q0 202 45 332q55 158 181 233q125 -74 180 -232q46 -132 46 -333v-17
q0 -29 14 -42t51 -17l11 -1zM506 227q0 158 -46 265q-40 92 -107 131q-67 -38 -107 -131q-46 -106 -46 -265h306zM502 765q-40 -16 -56 -56h-7q-16 40 -56 56v7q40 16 56 56h7q16 -40 56 -56v-7zM316 765q-40 -16 -56 -56h-7q-16 40 -56 56v7q40 16 56 56h7q16 -40 56 -56
v-7z" />
    <glyph glyph-name="Aring" unicode="&#xc5;" horiz-adv-x="706" 
d="M656 -6l-14 1l-78 5h-38l-78 -5l-14 -1l1 13l11 1q37 4 51 16t14 43v14l-3 108h-310l-3 -108v-14q0 -29 14 -42t51 -17l11 -1l1 -13l-14 1l-78 5h-38l-78 -5l-14 -1l1 13l11 1q37 4 51 16t14 43v17q0 202 45 332q55 158 181 233q125 -74 180 -232q46 -132 46 -333v-17
q0 -29 14 -42t51 -17l11 -1zM506 227q0 158 -46 265q-40 92 -107 131q-67 -38 -107 -131q-46 -106 -46 -265h306zM443 801q0 -39 -27 -66t-66 -27t-66.5 27.5t-27.5 65.5q0 39 27.5 66.5t66.5 27.5t66 -27t27 -67zM409 801q0 24 -17 42t-42 18t-42.5 -17.5t-17.5 -42.5
t17 -42t43 -17q24 0 41.5 17.5t17.5 41.5z" />
    <glyph glyph-name="AE" unicode="&#xc6;" horiz-adv-x="904" 
d="M817 119q-23 -42 -32 -71q-7 -33 -12 -52q-20 2 -33 2q-51 3 -73 3q-26 0 -44.5 -1t-36.5 -6t-39.5 -16t-42.5 -22l-13 -6l-4 12l10 5q43 24 43 50q0 13 -7 30l-39 93h-307l-36 -95q-6 -15 -6 -28q0 -27 45 -50l10 -5l-3 -12l-13 5q-48 24 -71 33l-8 3q-23 10 -74 23
l-14 4l6 12l11 -3q21 -6 35 -6q31 0 46 38l188 491q4 12 4 18q0 17 -15 30t-39 15l-11 1l-1 13l14 -1l78 -5h347l19 -108h-14q-13 50 -26.5 61.5t-59.5 11.5l-223 2l98 -228h231v-32h-217l111 -263q12 -28 39 -28q71 0 101 15t61 65zM480 172l-147 348l-134 -348h281z" />
    <glyph glyph-name="Ccedilla" unicode="&#xc7;" horiz-adv-x="735" 
d="M667 169l-16 -133q-28 -21 -90.5 -36t-121.5 -15l-42 2l-24 -35q27 -10 43.5 -30.5t16.5 -46.5q0 -34 -27 -59t-68 -25q-15 0 -26.5 3.5t-31.5 12.5l9 19q9 -6 23.5 -9t28.5 -3q20 0 36.5 17.5t16.5 36.5t-15.5 31.5t-37.5 12.5q-12 0 -22 -3.5t-19 -9.5l-21 -13l83 106
q-124 21 -201 102q-81 85 -81 207q0 137 101 235q105 101 258 101q53 0 97 -13t89 -27q11 0 19 5l7 -128h-11q-23 78 -79 111q-49 29 -135 29q-115 0 -187.5 -91.5t-72.5 -220.5t86 -213q83 -81 200 -81q90 0 135 32q53 37 63 129h17z" />
    <glyph glyph-name="Egrave" unicode="&#xc8;" horiz-adv-x="596" 
d="M529 119q-23 -42 -32 -71q-7 -33 -12 -52l-157 5h-156l-78 -5l-14 -1l1 13l11 1q37 4 51 16t14 43v486q0 29 -14 42t-51 17l-11 1l-1 13l14 -1l78 -5h312l19 -108h-14q-13 50 -26.5 61.5t-59.5 11.5l-178 2v-228h226v-32h-226v-234q0 -41 7.5 -49.5t43.5 -8.5h107
q53 0 75 15t54 66z" />
    <glyph glyph-name="Eacute" unicode="&#xc9;" horiz-adv-x="596" 
d="M529 119q-23 -42 -32 -71q-7 -33 -12 -52l-157 5h-156l-78 -5l-14 -1l1 13l11 1q37 4 51 16t14 43v486q0 29 -14 42t-51 17l-11 1l-1 13l14 -1l78 -5h312l19 -108h-14q-13 50 -26.5 61.5t-59.5 11.5l-178 2v-228h226v-32h-226v-234q0 -41 7.5 -49.5t43.5 -8.5h107
q53 0 75 15t54 66zM438 876l-143 -169h-17l51 169h109z" />
    <glyph glyph-name="Ecircumflex" unicode="&#xca;" horiz-adv-x="596" 
d="M529 119q-23 -42 -32 -71q-7 -33 -12 -52l-157 5h-156l-78 -5l-14 -1l1 13l11 1q37 4 51 16t14 43v486q0 29 -14 42t-51 17l-11 1l-1 13l14 -1l78 -5h312l19 -108h-14q-13 50 -26.5 61.5t-59.5 11.5l-178 2v-228h226v-32h-226v-234q0 -41 7.5 -49.5t43.5 -8.5h107
q53 0 75 15t54 66zM449 708h-15l-122 113l-123 -113h-15l92 161h90z" />
    <glyph glyph-name="Edieresis" unicode="&#xcb;" horiz-adv-x="596" 
d="M529 119q-23 -42 -32 -71q-7 -33 -12 -52l-157 5h-156l-78 -5l-14 -1l1 13l11 1q37 4 51 16t14 43v486q0 29 -14 42t-51 17l-11 1l-1 13l14 -1l78 -5h312l19 -108h-14q-13 50 -26.5 61.5t-59.5 11.5l-178 2v-228h226v-32h-226v-234q0 -41 7.5 -49.5t43.5 -8.5h107
q53 0 75 15t54 66zM465 765q-40 -16 -56 -56h-7q-16 40 -56 56v7q40 16 56 56h7q16 -40 56 -56v-7zM279 765q-40 -16 -56 -56h-7q-16 40 -56 56v7q40 16 56 56h7q16 -40 56 -56v-7z" />
    <glyph glyph-name="Igrave" unicode="&#xcc;" horiz-adv-x="402" 
d="M312 -5l-14 1l-78 5h-38l-78 -5l-14 -1l1 13l11 1q37 4 51 16t14 43v486q0 29 -14 42t-51 17l-11 1l-1 13l14 -1l78 -5h38l78 5l14 1l-1 -13l-11 -1q-37 -4 -51 -16t-14 -43v-486q0 -29 14 -42t51 -17l11 -1zM210 707h-17l-143 169h109z" />
    <glyph glyph-name="Iacute" unicode="&#xcd;" horiz-adv-x="402" 
d="M312 -5l-14 1l-78 5h-38l-78 -5l-14 -1l1 13l11 1q37 4 51 16t14 43v486q0 29 -14 42t-51 17l-11 1l-1 13l14 -1l78 -5h38l78 5l14 1l-1 -13l-11 -1q-37 -4 -51 -16t-14 -43v-486q0 -29 14 -42t51 -17l11 -1zM330 876l-143 -169h-17l51 169h109z" />
    <glyph glyph-name="Icircumflex" unicode="&#xce;" horiz-adv-x="402" 
d="M312 -5l-14 1l-78 5h-38l-78 -5l-14 -1l1 13l11 1q37 4 51 16t14 43v486q0 29 -14 42t-51 17l-11 1l-1 13l14 -1l78 -5h38l78 5l14 1l-1 -13l-11 -1q-37 -4 -51 -16t-14 -43v-486q0 -29 14 -42t51 -17l11 -1zM335 708h-15l-122 113l-123 -113h-15l92 161h90z" />
    <glyph glyph-name="Idieresis" unicode="&#xcf;" horiz-adv-x="402" 
d="M312 -5l-14 1l-78 5h-38l-78 -5l-14 -1l1 13l11 1q37 4 51 16t14 43v486q0 29 -14 42t-51 17l-11 1l-1 13l14 -1l78 -5h38l78 5l14 1l-1 -13l-11 -1q-37 -4 -51 -16t-14 -43v-486q0 -29 14 -42t51 -17l11 -1zM357 765q-40 -16 -56 -56h-7q-16 40 -56 56v7q40 16 56 56h7
q16 -40 56 -56v-7zM171 765q-40 -16 -56 -56h-7q-16 40 -56 56v7q40 16 56 56h7q16 -40 56 -56v-7z" />
    <glyph glyph-name="Eth" unicode="&#xd0;" horiz-adv-x="816" 
d="M736 323q0 -133 -102.5 -228.5t-256.5 -95.5l-205 2l-78 -5l-14 -1l1 13l11 1q37 4 51 16t14 43v216h-117v46h117v224q0 29 -14 42t-51 17l-11 1l-1 13l14 -1l78 -5l205 5q152 0 255.5 -84.5t103.5 -218.5zM656 320q0 123 -81 201t-199 78l-151 -4v-265h142v-46h-142
v-172q0 -52 29 -70.5t122 -18.5q120 0 200 87.5t80 209.5z" />
    <glyph glyph-name="Ntilde" unicode="&#xd1;" horiz-adv-x="734" 
d="M94 9l10 1q32 4 45 17t13 42v485q0 31 -13 43t-45 16l-10 1l-1 13l13 -1l69 -5h33l69 5l13 1l-1 -13l-10 -1q-32 -4 -44.5 -17t-12.5 -42v-64l324 -234v298q0 31 -12.5 43t-44.5 16l-10 1l-1 13l12 -1l70 -5h34l70 5l12 1l-1 -13l-10 -1q-33 -4 -45.5 -17t-12.5 -42v-485
q0 -31 12.5 -43t45.5 -16l10 -1l1 -13l-12 1l-70 5h-34l-70 -5l-12 -1l1 13l10 1q32 4 44.5 17t12.5 42v92l-324 233v-325q0 -31 12.5 -43t44.5 -16l10 -1l1 -13l-13 1l-69 5h-33l-69 -5l-13 -1zM546 192v32l-324 234v-32zM511 806q0 -49 -22 -73t-58 -24q-24 0 -46 11
q-2 1 -37 22q-17 10 -27 14.5t-19 4.5q-17 0 -30 -13t-13 -39h-20q0 42 20 69.5t61 27.5q17 0 35 -8q12 -5 38 -22q17 -11 29 -17t24 -6q18 0 31.5 13.5t13.5 39.5h20z" />
    <glyph glyph-name="Ograve" unicode="&#xd2;" horiz-adv-x="876" 
d="M798 321q0 -137 -103 -236.5t-256 -99.5t-254 86q-105 89 -105 230q0 137 101 235q105 101 258 101t256 -87.5t103 -228.5zM729 311q-13 126 -99 209q-90 87 -222 87q-117 0 -189 -75t-72 -187v-17q2 -12 2 -17q13 -126 99 -209q90 -87 222 -87q117 0 189 75t72 187v17
q-2 12 -2 17z" />
    <glyph glyph-name="Oacute" unicode="&#xd3;" horiz-adv-x="876" 
d="M798 321q0 -137 -103 -236.5t-256 -99.5t-254 86q-105 89 -105 230q0 137 101 235q105 101 258 101t256 -87.5t103 -228.5zM729 311q-13 126 -99 209q-90 87 -222 87q-117 0 -189 -75t-72 -187v-17q2 -12 2 -17q13 -126 99 -209q90 -87 222 -87q117 0 189 75t72 187v17
q-2 12 -2 17zM582 876l-143 -169h-17l51 169h109z" />
    <glyph glyph-name="Ocircumflex" unicode="&#xd4;" horiz-adv-x="876" 
d="M798 321q0 -137 -103 -236.5t-256 -99.5t-254 86q-105 89 -105 230q0 137 101 235q105 101 258 101t256 -87.5t103 -228.5zM729 311q-13 126 -99 209q-90 87 -222 87q-117 0 -189 -75t-72 -187v-17q2 -12 2 -17q13 -126 99 -209q90 -87 222 -87q117 0 189 75t72 187v17
q-2 12 -2 17zM584 708h-15l-122 113l-123 -113h-15l92 161h90z" />
    <glyph glyph-name="Otilde" unicode="&#xd5;" horiz-adv-x="876" 
d="M798 321q0 -137 -103 -236.5t-256 -99.5t-254 86q-105 89 -105 230q0 137 101 235q105 101 258 101t256 -87.5t103 -228.5zM729 311q-13 126 -99 209q-90 87 -222 87q-117 0 -189 -75t-72 -187v-17q2 -12 2 -17q13 -126 99 -209q90 -87 222 -87q117 0 189 75t72 187v17
q-2 12 -2 17zM557 806q0 -49 -22 -73t-58 -24q-24 0 -46 11q-2 1 -37 22q-17 10 -27 14.5t-19 4.5q-17 0 -30 -13t-13 -39h-20q0 42 20 69.5t61 27.5q17 0 35 -8q12 -5 38 -22q17 -11 29 -17t24 -6q18 0 31.5 13.5t13.5 39.5h20z" />
    <glyph glyph-name="Odieresis" unicode="&#xd6;" horiz-adv-x="876" 
d="M798 321q0 -137 -103 -236.5t-256 -99.5t-254 86q-105 89 -105 230q0 137 101 235q105 101 258 101t256 -87.5t103 -228.5zM729 311q-13 126 -99 209q-90 87 -222 87q-117 0 -189 -75t-72 -187v-17q2 -12 2 -17q13 -126 99 -209q90 -87 222 -87q117 0 189 75t72 187v17
q-2 12 -2 17zM582 765q-40 -16 -56 -56h-7q-16 40 -56 56v7q40 16 56 56h7q16 -40 56 -56v-7zM396 765q-40 -16 -56 -56h-7q-16 40 -56 56v7q40 16 56 56h7q16 -40 56 -56v-7z" />
    <glyph glyph-name="multiply" unicode="&#xd7;" horiz-adv-x="668" 
d="M575 525l-204 -204l202 -202l-37 -37l-201 202l-204 -202l-37 37l203 202l-203 204l36 38l204 -205l204 205z" />
    <glyph glyph-name="Oslash" unicode="&#xd8;" horiz-adv-x="876" 
d="M798 321q0 -137 -103 -236.5t-256 -99.5q-121 0 -212 57l-84 -97l-22 20l80 94q-56 42 -88.5 104.5t-32.5 137.5q0 137 101 235q105 101 258 101q121 0 212 -57l84 97l23 -20l-82 -94q57 -42 89.5 -104t32.5 -138zM729 311q-6 60 -30 112t-64 92l-370 -429
q42 -34 93.5 -52.5t111.5 -18.5q117 0 189 75t72 187v17q-2 12 -2 17zM612 535q-41 35 -92 53.5t-112 18.5q-117 0 -189 -75t-72 -187v-17q2 -12 2 -17q6 -60 30 -112t64 -92z" />
    <glyph glyph-name="Ugrave" unicode="&#xd9;" horiz-adv-x="746" 
d="M696 628l-1 -13l-11 -1q-37 -4 -51 -16t-14 -43v-17q0 -194 -55 -332q-62 -156 -191 -233q-128 76 -190 232q-56 140 -56 333v17q0 29 -14 42t-51 17l-11 1l-1 13l14 -1l78 -5h38l78 5l14 1l-1 -13l-11 -1q-37 -4 -51 -16t-14 -43v-14q0 -227 53 -371q46 -126 125 -171
q79 45 125 171q53 144 53 371v14q0 29 -14 42t-51 17l-11 1l-1 13l14 -1l78 -5h38l78 5z" />
    <glyph glyph-name="Uacute" unicode="&#xda;" horiz-adv-x="746" 
d="M696 628l-1 -13l-11 -1q-37 -4 -51 -16t-14 -43v-17q0 -194 -55 -332q-62 -156 -191 -233q-128 76 -190 232q-56 140 -56 333v17q0 29 -14 42t-51 17l-11 1l-1 13l14 -1l78 -5h38l78 5l14 1l-1 -13l-11 -1q-37 -4 -51 -16t-14 -43v-14q0 -227 53 -371q46 -126 125 -171
q79 45 125 171q53 144 53 371v14q0 29 -14 42t-51 17l-11 1l-1 13l14 -1l78 -5h38l78 5zM527 876l-143 -169h-17l51 169h109z" />
    <glyph glyph-name="Ucircumflex" unicode="&#xdb;" horiz-adv-x="746" 
d="M696 628l-1 -13l-11 -1q-37 -4 -51 -16t-14 -43v-17q0 -194 -55 -332q-62 -156 -191 -233q-128 76 -190 232q-56 140 -56 333v17q0 29 -14 42t-51 17l-11 1l-1 13l14 -1l78 -5h38l78 5l14 1l-1 -13l-11 -1q-37 -4 -51 -16t-14 -43v-14q0 -227 53 -371q46 -126 125 -171
q79 45 125 171q53 144 53 371v14q0 29 -14 42t-51 17l-11 1l-1 13l14 -1l78 -5h38l78 5zM516 708h-15l-122 113l-123 -113h-15l92 161h90z" />
    <glyph glyph-name="Udieresis" unicode="&#xdc;" horiz-adv-x="746" 
d="M696 628l-1 -13l-11 -1q-37 -4 -51 -16t-14 -43v-17q0 -194 -55 -332q-62 -156 -191 -233q-128 76 -190 232q-56 140 -56 333v17q0 29 -14 42t-51 17l-11 1l-1 13l14 -1l78 -5h38l78 5l14 1l-1 -13l-11 -1q-37 -4 -51 -16t-14 -43v-14q0 -227 53 -371q46 -126 125 -171
q79 45 125 171q53 144 53 371v14q0 29 -14 42t-51 17l-11 1l-1 13l14 -1l78 -5h38l78 5zM529 765q-40 -16 -56 -56h-7q-16 40 -56 56v7q40 16 56 56h7q16 -40 56 -56v-7zM343 765q-40 -16 -56 -56h-7q-16 40 -56 56v7q40 16 56 56h7q16 -40 56 -56v-7z" />
    <glyph glyph-name="Yacute" unicode="&#xdd;" horiz-adv-x="677" 
d="M667 627l-1 -13l-11 -1q-37 -4 -60.5 -22.5t-55.5 -69.5l-162 -258v-195q0 -29 14 -42t51 -17l11 -1l1 -13l-14 1l-78 5h-38l-78 -5l-14 -1l1 13l11 1q37 4 51 16t14 43v176l-182 290q-31 49 -49 62t-56 17l-11 1l-1 13l14 -1l88 -5h38l88 5l14 1l-1 -13l-11 -1
q-31 -2 -46 -6.5t-15 -19.5q0 -8 7 -19l169 -270l157 252q10 17 10 29q0 16 -18 23t-47 11l-11 1l-1 13l14 -1l78 -5h38l78 5zM470 876l-143 -169h-17l51 169h109z" />
    <glyph glyph-name="Thorn" unicode="&#xde;" horiz-adv-x="590" 
d="M547 354q0 -87 -75 -145t-178 -58l-34 3v9l25 -1q81 0 138.5 46.5t57.5 122.5q0 64 -45 108q-50 48 -136 48q-49 0 -62 -7.5t-13 -41.5v-370q0 -29 14 -42t51 -17l11 -1l1 -13l-14 1l-78 5h-38l-78 -5l-14 -1l1 13l11 1q37 4 51 16t14 43v486q0 29 -14 42t-51 17l-11 1
l-1 13l14 -1l78 -5h38l78 5l14 1l-1 -13l-11 -1q-37 -4 -51 -16t-14 -43v-47l103 3q101 0 160 -44.5t59 -111.5z" />
    <glyph glyph-name="germandbls" unicode="&#xdf;" horiz-adv-x="624" 
d="M547 177q0 -85 -49 -137t-119 -52q-46 0 -46 32q0 27 24 27q7 0 18 -5l12 -7q21 -10 30 -10q23 0 39 39t16 99q0 65 -27.5 113t-76.5 58q-22 4 -47 4.5t-42 0.5v15q84 0 126.5 40t42.5 106q0 58 -30.5 89.5t-82.5 31.5t-80 -43q-31 -47 -31 -139v-371q0 -29 14 -42
t51 -17l11 -1l1 -13l-14 1l-78 5h-38l-78 -5l-14 -1l1 13l11 1q37 4 51 16t14 43v249h-71v28h71v58q0 146 67 200q42 34 123 34q79 0 131.5 -39.5t52.5 -94.5q0 -50 -40 -90t-120 -63q83 -15 128 -56q49 -45 49 -117z" />
    <glyph glyph-name="agrave" unicode="&#xe0;" 
d="M540 -5l-14 1l-40 4t-28 1h-36q-16 0 -33.5 -2t-34.5 -3l-14 -1l1 14l11 1q35 4 45 15.5t10 43.5v6l-2 57h-235l-2 -59v-4q0 -31 10 -43t45 -16l11 -1l1 -14l-14 1l-40 4t-28 1h-36q-16 0 -33.5 -2t-34.5 -3l-14 -1l1 14l11 1q35 4 45 15.5t10 43.5v4q0 129 46.5 231.5
t138.5 156.5q93 -54 141 -159q45 -98 45 -227v-6q0 -31 10 -43t45 -16l11 -1zM402 165q-9 111 -39.5 178.5t-75.5 92.5q-45 -24 -75 -90.5t-40 -180.5h230z" />
    <glyph glyph-name="aacute" unicode="&#xe1;" 
d="M540 -5l-14 1l-40 4t-28 1h-36q-16 0 -33.5 -2t-34.5 -3l-14 -1l1 14l11 1q35 4 45 15.5t10 43.5v6l-2 57h-235l-2 -59v-4q0 -31 10 -43t45 -16l11 -1l1 -14l-14 1l-40 4t-28 1h-36q-16 0 -33.5 -2t-34.5 -3l-14 -1l1 14l11 1q35 4 45 15.5t10 43.5v4q0 129 46.5 231.5
t138.5 156.5q93 -54 141 -159q45 -98 45 -227v-6q0 -31 10 -43t45 -16l11 -1zM402 165q-9 111 -39.5 178.5t-75.5 92.5q-45 -24 -75 -90.5t-40 -180.5h230zM418 692l-143 -169h-17l51 169h109z" />
    <glyph glyph-name="acircumflex" unicode="&#xe2;" 
d="M540 -5l-14 1l-40 4t-28 1h-36q-16 0 -33.5 -2t-34.5 -3l-14 -1l1 14l11 1q35 4 45 15.5t10 43.5v6l-2 57h-235l-2 -59v-4q0 -31 10 -43t45 -16l11 -1l1 -14l-14 1l-40 4t-28 1h-36q-16 0 -33.5 -2t-34.5 -3l-14 -1l1 14l11 1q35 4 45 15.5t10 43.5v4q0 129 46.5 231.5
t138.5 156.5q93 -54 141 -159q45 -98 45 -227v-6q0 -31 10 -43t45 -16l11 -1zM402 165q-9 111 -39.5 178.5t-75.5 92.5q-45 -24 -75 -90.5t-40 -180.5h230zM420 521h-15l-122 113l-123 -113h-15l92 161h90z" />
    <glyph glyph-name="atilde" unicode="&#xe3;" 
d="M540 -5l-14 1l-40 4t-28 1h-36q-16 0 -33.5 -2t-34.5 -3l-14 -1l1 14l11 1q35 4 45 15.5t10 43.5v6l-2 57h-235l-2 -59v-4q0 -31 10 -43t45 -16l11 -1l1 -14l-14 1l-40 4t-28 1h-36q-16 0 -33.5 -2t-34.5 -3l-14 -1l1 14l11 1q35 4 45 15.5t10 43.5v4q0 129 46.5 231.5
t138.5 156.5q93 -54 141 -159q45 -98 45 -227v-6q0 -31 10 -43t45 -16l11 -1zM402 165q-9 111 -39.5 178.5t-75.5 92.5q-45 -24 -75 -90.5t-40 -180.5h230zM420 619q0 -49 -22 -73t-58 -24q-24 0 -46 11q-2 1 -37 22q-17 10 -27 14.5t-19 4.5q-17 0 -30 -13t-13 -39h-20
q0 42 20 69.5t61 27.5q17 0 35 -8q12 -5 38 -22q17 -11 29 -17t24 -6q18 0 31.5 13.5t13.5 39.5h20z" />
    <glyph glyph-name="adieresis" unicode="&#xe4;" 
d="M540 -5l-14 1l-40 4t-28 1h-36q-16 0 -33.5 -2t-34.5 -3l-14 -1l1 14l11 1q35 4 45 15.5t10 43.5v6l-2 57h-235l-2 -59v-4q0 -31 10 -43t45 -16l11 -1l1 -14l-14 1l-40 4t-28 1h-36q-16 0 -33.5 -2t-34.5 -3l-14 -1l1 14l11 1q35 4 45 15.5t10 43.5v4q0 129 46.5 231.5
t138.5 156.5q93 -54 141 -159q45 -98 45 -227v-6q0 -31 10 -43t45 -16l11 -1zM402 165q-9 111 -39.5 178.5t-75.5 92.5q-45 -24 -75 -90.5t-40 -180.5h230zM447 578q-43 -16 -61 -56h-7q-18 39 -60 56v7q42 17 60 56h7q8 -17 25 -33t36 -23v-7zM247 578q-43 -16 -61 -56h-7
q-18 40 -60 56v7q42 16 60 56h7q8 -17 25 -33t36 -23v-7z" />
    <glyph glyph-name="aring" unicode="&#xe5;" 
d="M540 -5l-14 1l-40 4t-28 1h-36q-16 0 -33.5 -2t-34.5 -3l-14 -1l1 14l11 1q35 4 45 15.5t10 43.5v6l-2 57h-235l-2 -59v-4q0 -31 10 -43t45 -16l11 -1l1 -14l-14 1l-40 4t-28 1h-36q-16 0 -33.5 -2t-34.5 -3l-14 -1l1 14l11 1q35 4 45 15.5t10 43.5v4q0 129 46.5 231.5
t138.5 156.5q93 -54 141 -159q45 -98 45 -227v-6q0 -31 10 -43t45 -16l11 -1zM402 165q-9 111 -39.5 178.5t-75.5 92.5q-45 -24 -75 -90.5t-40 -180.5h230zM372 615q0 -39 -27 -66t-66 -27t-66.5 27.5t-27.5 65.5q0 39 27.5 66.5t66.5 27.5t66 -27t27 -67zM338 615
q0 24 -17 42t-42 18t-42.5 -17.5t-17.5 -42.5t17 -42t43 -17q24 0 41.5 17.5t17.5 41.5z" />
    <glyph glyph-name="ae" unicode="&#xe6;" horiz-adv-x="655" 
d="M613 90q-19 -31 -27 -54q-4 -11 -11 -38l-109 3q-13 0 -26.5 -0.5t-30.5 -4.5t-26 -8t-34 -19l-12 -7l-5 14l10 5q36 21 36 42q0 11 -10 34l-18 41h-216l-14 -34q-9 -20 -9 -33q0 -21 38 -42l10 -5l-4 -14l-13 7l-61 30l-3 1l-65 21l-13 4l6 13l11 -4q16 -5 31 -5
q16 0 24.5 8.5t17.5 30.5l121 300q5 13 5 21q0 15 -13 24t-37 11l-11 1l-1 14l14 -1l68 -5h266l17 -82l-16 1q-9 34 -18.5 42t-41.5 8l-165 2l69 -154h163v-28h-150l70 -161q10 -21 25.5 -29.5t40.5 -8.5h10q37 0 52 11q10 7 33 46zM336 129l-100 224l-90 -224h190z" />
    <glyph glyph-name="ccedilla" unicode="&#xe7;" horiz-adv-x="550" 
d="M494 124l-12 -97q-22 -15 -69 -28.5t-86 -13.5h-33q-14 3 -20 4l-25 -37q27 -10 43.5 -30.5t16.5 -46.5q0 -34 -27 -59t-68 -25q-15 0 -26.5 3.5t-31.5 12.5l9 19q9 -6 23.5 -9t28.5 -3q20 0 36.5 17.5t16.5 36.5t-15.5 31.5t-37.5 12.5q-12 0 -22 -3.5t-19 -9.5l-21 -13
l87 110q-79 22 -128 79.5t-49 138.5q0 99 75 171t187 72q38 0 70 -10t65 -21q8 0 15 4l7 -98l-14 1q-16 54 -53.5 75.5t-98.5 21.5q-81 0 -133 -64t-52 -152q0 -90 59.5 -146t143.5 -56q64 0 95 21q38 26 45 91h18z" />
    <glyph glyph-name="egrave" unicode="&#xe8;" horiz-adv-x="460" 
d="M418 90q-19 -31 -27 -54q-4 -11 -11 -38l-114 3h-119q-16 0 -33.5 -2t-34.5 -3l-14 -1l1 14l11 1q35 4 45 15.5t10 43.5v304q0 31 -10 43t-45 16l-11 1l-1 14l14 -1l40 -4t28 -1h232l17 -82l-16 1q-9 34 -18.5 42t-41.5 8l-125 2v-154h163v-28h-163v-161q0 -26 5 -32
t29 -6h77q38 0 53 10t37 47z" />
    <glyph glyph-name="eacute" unicode="&#xe9;" horiz-adv-x="460" 
d="M418 90q-19 -31 -27 -54q-4 -11 -11 -38l-114 3h-119q-16 0 -33.5 -2t-34.5 -3l-14 -1l1 14l11 1q35 4 45 15.5t10 43.5v304q0 31 -10 43t-45 16l-11 1l-1 14l14 -1l40 -4t28 -1h232l17 -82l-16 1q-9 34 -18.5 42t-41.5 8l-125 2v-154h163v-28h-163v-161q0 -26 5 -32
t29 -6h77q38 0 53 10t37 47zM367 692l-143 -169h-17l51 169h109z" />
    <glyph glyph-name="ecircumflex" unicode="&#xea;" horiz-adv-x="460" 
d="M418 90q-19 -31 -27 -54q-4 -11 -11 -38l-114 3h-119q-16 0 -33.5 -2t-34.5 -3l-14 -1l1 14l11 1q35 4 45 15.5t10 43.5v304q0 31 -10 43t-45 16l-11 1l-1 14l14 -1l40 -4t28 -1h232l17 -82l-16 1q-9 34 -18.5 42t-41.5 8l-125 2v-154h163v-28h-163v-161q0 -26 5 -32
t29 -6h77q38 0 53 10t37 47zM383 521h-15l-122 113l-123 -113h-15l92 161h90z" />
    <glyph glyph-name="edieresis" unicode="&#xeb;" horiz-adv-x="460" 
d="M418 90q-19 -31 -27 -54q-4 -11 -11 -38l-114 3h-119q-16 0 -33.5 -2t-34.5 -3l-14 -1l1 14l11 1q35 4 45 15.5t10 43.5v304q0 31 -10 43t-45 16l-11 1l-1 14l14 -1l40 -4t28 -1h232l17 -82l-16 1q-9 34 -18.5 42t-41.5 8l-125 2v-154h163v-28h-163v-161q0 -26 5 -32
t29 -6h77q38 0 53 10t37 47zM393 578q-40 -16 -56 -56h-7q-16 40 -56 56v7q40 16 56 56h7q16 -40 56 -56v-7zM207 578q-40 -16 -56 -56h-7q-16 40 -56 56v7q40 16 56 56h7q16 -40 56 -56v-7z" />
    <glyph glyph-name="igrave" unicode="&#xec;" horiz-adv-x="345" 
d="M271 -5l-14 1l-40 4t-28 1h-33q-16 0 -33.5 -2t-34.5 -3l-14 -1l1 14l11 1q35 4 45 15.5t10 43.5v304q0 31 -10 43t-45 16l-11 1l-1 14l14 -1l40 -4t28 -1h33q16 0 33.5 2t34.5 3l14 1l-1 -14l-11 -1q-35 -4 -45 -15.5t-10 -43.5v-304q0 -31 10 -43t45 -16l11 -1z" />
    <glyph glyph-name="iacute" unicode="&#xed;" horiz-adv-x="345" 
d="M271 -5l-14 1l-40 4t-28 1h-33q-16 0 -33.5 -2t-34.5 -3l-14 -1l1 14l11 1q35 4 45 15.5t10 43.5v304q0 31 -10 43t-45 16l-11 1l-1 14l14 -1l40 -4t28 -1h33q16 0 33.5 2t34.5 3l14 1l-1 -14l-11 -1q-35 -4 -45 -15.5t-10 -43.5v-304q0 -31 10 -43t45 -16l11 -1z
M294 692l-143 -169h-17l51 169h109z" />
    <glyph glyph-name="icircumflex" unicode="&#xee;" horiz-adv-x="345" 
d="M271 -5l-14 1l-40 4t-28 1h-33q-16 0 -33.5 -2t-34.5 -3l-14 -1l1 14l11 1q35 4 45 15.5t10 43.5v304q0 31 -10 43t-45 16l-11 1l-1 14l14 -1l40 -4t28 -1h33q16 0 33.5 2t34.5 3l14 1l-1 -14l-11 -1q-35 -4 -45 -15.5t-10 -43.5v-304q0 -31 10 -43t45 -16l11 -1z
M312 521h-15l-122 113l-123 -113h-15l92 161h90z" />
    <glyph glyph-name="idieresis" unicode="&#xef;" horiz-adv-x="345" 
d="M325 578q-40 -16 -56 -56h-7q-16 40 -56 56v7q40 16 56 56h7q16 -40 56 -56v-7zM139 578q-40 -16 -56 -56h-7q-16 40 -56 56v7q40 16 56 56h7q16 -40 56 -56v-7zM271 -5l-14 1l-40 4t-28 1h-33q-16 0 -33.5 -2t-34.5 -3l-14 -1l1 14l11 1q35 4 45 15.5t10 43.5v304
q0 31 -10 43t-45 16l-11 1l-1 14l14 -1l40 -4t28 -1h33q16 0 33.5 2t34.5 3l14 1l-1 -14l-11 -1q-35 -4 -45 -15.5t-10 -43.5v-304q0 -31 10 -43t45 -16l11 -1z" />
    <glyph glyph-name="Yacute.001" unicode="&#xf0;" horiz-adv-x="628" 
d="M563 229q0 -94 -75 -162t-187 -68l-154 2q-16 0 -33.5 -2t-34.5 -3l-14 -1l1 14l11 1q35 4 45 15.5t10 43.5v136h-107v42h107v126q0 31 -10 43t-45 16l-11 1l-1 14l14 -1q22 -2 44.5 -3.5t60.5 -1.5l117 3q111 0 186.5 -60t75.5 -155zM493 227q0 85 -56.5 138.5
t-137.5 53.5l-104 -3v-169h157v-42h-157v-124q0 -35 20.5 -47t83.5 -12q83 0 138.5 60.5t55.5 144.5z" />
    <glyph glyph-name="ntilde" unicode="&#xf1;" horiz-adv-x="605" 
d="M86 5l7 1q23 3 32 12t9 30v346q0 22 -9 31t-32 11l-7 1l-1 9h9l50 -4h32l49 4h10l-1 -9l-7 -1q-23 -2 -32 -11.5t-9 -30.5v-45l231 -167v212q0 22 -8.5 31t-31.5 11l-8 1v9h8l50 -4h34l49 4h9l-1 -9l-7 -1q-23 -2 -32 -11.5t-9 -30.5v-346q0 -22 9 -30.5t32 -11.5l7 -1
l1 -9l-9 1l-49 3h-34l-50 -3l-8 -1v9l8 1q23 3 31.5 12t8.5 30v66l-231 166v-232q0 -22 9 -30.5t32 -11.5l7 -1l1 -9l-10 1l-49 3h-32l-50 -3l-9 -1zM417 136v23l-231 167v-23zM437 619q0 -49 -22 -73t-58 -24q-24 0 -46 11q-2 1 -37 22q-17 10 -27 14.5t-19 4.5
q-17 0 -30 -13t-13 -39h-20q0 42 20 69.5t61 27.5q17 0 35 -8q12 -5 38 -22q17 -11 29 -17t24 -6q18 0 31.5 13.5t13.5 39.5h20z" />
    <glyph glyph-name="ograve" unicode="&#xf2;" horiz-adv-x="653" 
d="M588 228q0 -100 -74.5 -171.5t-186.5 -71.5q-111 0 -185 62q-77 65 -77 167q0 99 75 171t187 72q111 0 186 -63.5t75 -165.5zM525 221q-10 87 -68 144q-61 60 -151 60q-80 0 -129 -52t-49 -130q0 -14 1 -22q9 -86 69.5 -145.5t149.5 -59.5q79 0 128.5 52.5t49.5 130.5
q0 14 -1 22z" />
    <glyph glyph-name="oacute" unicode="&#xf3;" horiz-adv-x="653" 
d="M588 228q0 -100 -74.5 -171.5t-186.5 -71.5q-111 0 -185 62q-77 65 -77 167q0 99 75 171t187 72q111 0 186 -63.5t75 -165.5zM525 221q-10 87 -68 144q-61 60 -151 60q-80 0 -129 -52t-49 -130q0 -14 1 -22q9 -86 69.5 -145.5t149.5 -59.5q79 0 128.5 52.5t49.5 130.5
q0 14 -1 22zM443 692l-143 -169h-17l51 169h109z" />
    <glyph glyph-name="ocircumflex" unicode="&#xf4;" horiz-adv-x="653" 
d="M588 228q0 -100 -74.5 -171.5t-186.5 -71.5q-111 0 -185 62q-77 65 -77 167q0 99 75 171t187 72q111 0 186 -63.5t75 -165.5zM525 221q-10 87 -68 144q-61 60 -151 60q-80 0 -129 -52t-49 -130q0 -14 1 -22q9 -86 69.5 -145.5t149.5 -59.5q79 0 128.5 52.5t49.5 130.5
q0 14 -1 22zM456 521h-15l-122 113l-123 -113h-15l92 161h90z" />
    <glyph glyph-name="otilde" unicode="&#xf5;" horiz-adv-x="653" 
d="M588 228q0 -100 -74.5 -171.5t-186.5 -71.5q-111 0 -185 62q-77 65 -77 167q0 99 75 171t187 72q111 0 186 -63.5t75 -165.5zM525 221q-10 87 -68 144q-61 60 -151 60q-80 0 -129 -52t-49 -130q0 -14 1 -22q9 -86 69.5 -145.5t149.5 -59.5q79 0 128.5 52.5t49.5 130.5
q0 14 -1 22zM457 619q0 -49 -22 -73t-58 -24q-24 0 -46 11q-2 1 -37 22q-17 10 -27 14.5t-19 4.5q-17 0 -30 -13t-13 -39h-20q0 42 20 69.5t61 27.5q17 0 35 -8q12 -5 38 -22q17 -11 29 -17t24 -6q18 0 31.5 13.5t13.5 39.5h20z" />
    <glyph glyph-name="odieresis" unicode="&#xf6;" horiz-adv-x="653" 
d="M588 228q0 -100 -74.5 -171.5t-186.5 -71.5q-111 0 -185 62q-77 65 -77 167q0 99 75 171t187 72q111 0 186 -63.5t75 -165.5zM525 221q-10 87 -68 144q-61 60 -151 60q-80 0 -129 -52t-49 -130q0 -14 1 -22q9 -86 69.5 -145.5t149.5 -59.5q79 0 128.5 52.5t49.5 130.5
q0 14 -1 22zM474 578q-40 -16 -56 -56h-7q-16 40 -56 56v7q40 16 56 56h7q16 -40 56 -56v-7zM288 578q-40 -16 -56 -56h-7q-16 40 -56 56v7q40 16 56 56h7q16 -40 56 -56v-7z" />
    <glyph glyph-name="divide" unicode="&#xf7;" horiz-adv-x="668" 
d="M368 525q0 -15 -10.5 -25.5t-24.5 -10.5q-15 0 -25.5 11.5t-10.5 26.5q0 13 10.5 22.5t25.5 9.5q14 0 24.5 -9.5t10.5 -24.5zM598 296h-528v51h528v-51zM368 122q0 -14 -10 -24.5t-25 -10.5t-25.5 10.5t-10.5 24.5q0 15 10 25t26 10q15 0 25 -10t10 -25z" />
    <glyph glyph-name="oslash" unicode="&#xf8;" horiz-adv-x="653" 
d="M588 228q0 -100 -74.5 -171.5t-186.5 -71.5q-80 0 -146 36l-61 -75l-19 19l57 70q-45 31 -69 76.5t-24 102.5q0 99 75 171t187 72q80 0 146 -36l61 75l20 -19l-58 -71q44 -31 68 -76.5t24 -101.5zM525 221q-9 84 -65 141l-246 -301q28 -22 61 -33.5t73 -11.5
q79 0 128.5 52.5t49.5 130.5q0 14 -1 22zM440 380q-58 45 -134 45q-80 0 -129 -52t-49 -130q0 -14 1 -22q9 -85 65 -142z" />
    <glyph glyph-name="ugrave" unicode="&#xf9;" 
d="M540 447l-1 -14l-11 -1q-35 -4 -45 -15.5t-10 -43.5v-4q0 -129 -45 -228q-48 -106 -140 -160q-93 54 -139.5 155.5t-46.5 230.5v6q0 31 -10 43t-45 16l-11 1l-1 14l14 -1l40 -4t28 -1h36q16 0 33.5 2t34.5 3l14 1l-1 -14l-11 -1q-35 -4 -45 -15.5t-10 -43.5v-6
q0 -150 35 -246q31 -85 85 -115q54 30 86.5 119.5t32.5 243.5v4q0 31 -10 43t-45 16l-11 1l-1 14l14 -1l40 -4t28 -1h36q16 0 33.5 2t34.5 3z" />
    <glyph glyph-name="uacute" unicode="&#xfa;" 
d="M540 447l-1 -14l-11 -1q-35 -4 -45 -15.5t-10 -43.5v-4q0 -129 -45 -228q-48 -106 -140 -160q-93 54 -139.5 155.5t-46.5 230.5v6q0 31 -10 43t-45 16l-11 1l-1 14l14 -1l40 -4t28 -1h36q16 0 33.5 2t34.5 3l14 1l-1 -14l-11 -1q-35 -4 -45 -15.5t-10 -43.5v-6
q0 -150 35 -246q31 -85 85 -115q54 30 86.5 119.5t32.5 243.5v4q0 31 -10 43t-45 16l-11 1l-1 14l14 -1l40 -4t28 -1h36q16 0 33.5 2t34.5 3zM426 692l-143 -169h-17l51 169h109z" />
    <glyph glyph-name="ucircumflex" unicode="&#xfb;" 
d="M540 447l-1 -14l-11 -1q-35 -4 -45 -15.5t-10 -43.5v-4q0 -129 -45 -228q-48 -106 -140 -160q-93 54 -139.5 155.5t-46.5 230.5v6q0 31 -10 43t-45 16l-11 1l-1 14l14 -1l40 -4t28 -1h36q16 0 33.5 2t34.5 3l14 1l-1 -14l-11 -1q-35 -4 -45 -15.5t-10 -43.5v-6
q0 -150 35 -246q31 -85 85 -115q54 30 86.5 119.5t32.5 243.5v4q0 31 -10 43t-45 16l-11 1l-1 14l14 -1l40 -4t28 -1h36q16 0 33.5 2t34.5 3zM429 521h-15l-122 113l-123 -113h-15l92 161h90z" />
    <glyph glyph-name="udieresis" unicode="&#xfc;" 
d="M540 447l-1 -14l-11 -1q-35 -4 -45 -15.5t-10 -43.5v-4q0 -129 -45 -228q-48 -106 -140 -160q-93 54 -139.5 155.5t-46.5 230.5v6q0 31 -10 43t-45 16l-11 1l-1 14l14 -1l40 -4t28 -1h36q16 0 33.5 2t34.5 3l14 1l-1 -14l-11 -1q-35 -4 -45 -15.5t-10 -43.5v-6
q0 -150 35 -246q31 -85 85 -115q54 30 86.5 119.5t32.5 243.5v4q0 31 -10 43t-45 16l-11 1l-1 14l14 -1l40 -4t28 -1h36q16 0 33.5 2t34.5 3zM439 578q-40 -16 -56 -56h-7q-16 40 -56 56v7q40 16 56 56h7q16 -40 56 -56v-7zM253 578q-40 -16 -56 -56h-7q-16 40 -56 56v7
q40 16 56 56h7q16 -40 56 -56v-7z" />
    <glyph glyph-name="yacute" unicode="&#xfd;" horiz-adv-x="506" 
d="M506 447l-1 -14l-11 -1q-33 -3 -53 -21q-13 -11 -30 -38l-117 -181v-123q0 -31 10 -43t45 -16l11 -1l1 -14l-14 1l-40 4t-28 1h-33q-16 0 -33.5 -2t-34.5 -3l-14 -1l1 14l11 1q35 4 45 15.5t10 43.5v118l-125 186q-16 25 -35 38q-24 17 -59 21l-11 1l-1 14l14 -1l40 -4
t28 -1h32q17 0 37.5 2t37.5 3l14 1l-1 -14l-11 -1q-29 -3 -29 -18q0 -7 7 -19q2 -3 14 -22l98 -146l94 146q13 20 13 32q0 23 -42 27l-11 1l-1 14l14 -1l40 -4t28 -1h8q16 0 33.5 2t34.5 3zM402 692l-143 -169h-17l51 169h109z" />
    <glyph glyph-name="thorn" unicode="&#xfe;" horiz-adv-x="460" 
d="M427 248q0 -63 -55 -104t-131 -41l-21 1v13h13q54 0 92 31t38 84q0 44 -31.5 75t-88.5 31q-28 0 -38 -2t-10 -29v-238q0 -31 10 -43t45 -16l11 -1l1 -14l-14 1l-40 4t-28 1h-33q-16 0 -33.5 -2t-34.5 -3l-14 -1l1 14l11 1q35 4 45 15.5t10 43.5v304q0 31 -10 43t-45 16
l-11 1l-1 14l14 -1l40 -4t28 -1h33q16 0 33.5 2t34.5 3l14 1l-1 -14l-11 -1q-35 -4 -45 -15.5t-10 -43.5v-14l71 1q73 0 117 -32.5t44 -79.5z" />
    <glyph glyph-name="ydieresis" unicode="&#xff;" horiz-adv-x="506" 
d="M506 447l-1 -14l-11 -1q-33 -3 -53 -21q-13 -11 -30 -38l-117 -181v-123q0 -31 10 -43t45 -16l11 -1l1 -14l-14 1l-40 4t-28 1h-33q-16 0 -33.5 -2t-34.5 -3l-14 -1l1 14l11 1q35 4 45 15.5t10 43.5v118l-125 186q-16 25 -35 38q-24 17 -59 21l-11 1l-1 14l14 -1l40 -4
t28 -1h32q17 0 37.5 2t37.5 3l14 1l-1 -14l-11 -1q-29 -3 -29 -18q0 -7 7 -19q2 -3 14 -22l98 -146l94 146q13 20 13 32q0 23 -42 27l-11 1l-1 14l14 -1l40 -4t28 -1h8q16 0 33.5 2t34.5 3zM411 578q-40 -16 -56 -56h-7q-16 40 -56 56v7q40 16 56 56h7q16 -40 56 -56v-7z
M225 578q-40 -16 -56 -56h-7q-16 40 -56 56v7q40 16 56 56h7q16 -40 56 -56v-7z" />
    <glyph glyph-name="dotlessi" unicode="&#x131;" horiz-adv-x="345" 
d="M271 -5l-14 1l-40 4t-28 1h-33q-16 0 -33.5 -2t-34.5 -3l-14 -1l1 14l11 1q35 4 45 15.5t10 43.5v304q0 31 -10 43t-45 16l-11 1l-1 14l14 -1l40 -4t28 -1h33q16 0 33.5 2t34.5 3l14 1l-1 -14l-11 -1q-35 -4 -45 -15.5t-10 -43.5v-304q0 -31 10 -43t45 -16l11 -1z" />
    <glyph glyph-name="Lslash" unicode="&#x141;" horiz-adv-x="592" 
d="M565 146q-33 -45 -53 -87q-14 -29 -23 -65q-70 2 -109 3q-143 4 -170 4h-38l-78 -5l-14 -1l1 13l11 1q37 4 51 16t14 43v189l-116 -96v56l116 96v241q0 29 -14 42t-51 17l-11 1l-1 13l14 -1l78 -5h38l78 5l14 1l-1 -13l-11 -1q-37 -4 -51 -16t-14 -43v-185l143 118v-56
l-143 -118v-219q0 -41 7.5 -49.5t43.5 -8.5h104q56 0 75.5 10t56.5 58l32 42h21z" />
    <glyph glyph-name="lslash" unicode="&#x142;" horiz-adv-x="452" 
d="M443 108q-26 -34 -42 -65q-12 -23 -18 -46l-202 4h-34q-16 0 -33.5 -2t-34.5 -3l-14 -1l1 14l11 1q35 4 45 15.5t10 43.5v112l-101 -65v46l101 65v146q0 31 -10 43t-45 16l-11 1l-1 14l14 -1l40 -4t28 -1h33q16 0 33.5 2t34.5 3l14 1l-1 -14l-11 -1q-35 -4 -45 -15.5
t-10 -43.5v-106l102 66v-46l-102 -66v-152q0 -26 5 -32t29 -6h74q39 0 53 7t40 40l24 30h23z" />
    <glyph glyph-name="OE" unicode="&#x152;" horiz-adv-x="1036" 
d="M968 119q-23 -42 -32 -71q-7 -33 -12 -52l-157 5h-156l-79 -5q-46 -11 -93 -11q-153 0 -254 86q-105 89 -105 230q0 137 101 235q105 101 258 101q53 0 101 -12l71 -4h312l19 -108h-14q-13 50 -26.5 61.5t-59.5 11.5l-178 2v-228h226v-32h-226v-234q0 -41 7.5 -49.5
t43.5 -8.5h107q53 0 75 15t54 66zM596 73v476q-39 27 -87 42.5t-101 15.5q-117 0 -189 -75t-72 -187v-17q2 -12 2 -17q13 -126 99 -209q90 -87 222 -87q69 0 123 28q0 3 1.5 14t1.5 16z" />
    <glyph glyph-name="oe" unicode="&#x153;" horiz-adv-x="776" 
d="M736 90q-19 -31 -27 -54q-4 -11 -11 -38l-114 3h-119l-54 -4q-39 -12 -84 -12q-111 0 -185 62q-77 65 -77 167q0 99 75 171t187 72q24 0 46.5 -3t44.5 -10l47 -3h232l17 -82l-16 1q-9 34 -18.5 42t-41.5 8l-125 2v-154h163v-28h-163v-161q0 -26 5 -32t29 -6h77
q38 0 53 10t37 47zM450 69v302q-59 54 -144 54q-80 0 -129 -52t-49 -130q0 -14 1 -22q9 -86 69.5 -145.5t149.5 -59.5q58 0 100 28q2 7 2 25z" />
    <glyph glyph-name="Scaron" unicode="&#x160;" horiz-adv-x="530" 
d="M462 156q0 -67 -62 -119t-155 -52q-49 0 -97 15q-44 17 -55 21l-20 128h14q16 -73 53.5 -106t104.5 -33q63 0 104 32t41 86q0 56 -40 99q-34 36 -126 88q-65 37 -99 72q-43 45 -43 95q0 72 48.5 113.5t129.5 41.5q38 0 80 -14t71 -14l15 -95h-8q-24 60 -73 83
q-35 16 -90 16q-48 0 -79 -29t-31 -74q0 -34 22.5 -62.5t103.5 -75.5q95 -54 133 -90q58 -56 58 -126zM369 881l-97 -174h-44l-97 174h23l96 -106l96 106h23z" />
    <glyph glyph-name="scaron" unicode="&#x161;" horiz-adv-x="397" 
d="M343 115q0 -52 -45 -91t-114 -39q-37 0 -71 13q-20 9 -40 19l-16 94h14q24 -101 113 -101q45 0 73.5 22t28.5 62q0 37 -29 64q-23 21 -89 57q-49 28 -73 53q-31 33 -31 71q0 55 35.5 86.5t95.5 31.5q26 0 69 -16q24 -9 42 -9l13 -72h-12q-17 41 -52 59q-27 14 -64 14
q-32 0 -54 -21t-22 -52q0 -33 40 -60q8 -6 49 -29q90 -49 114.5 -81t24.5 -75zM316 697l-97 -174h-44l-97 174h23l96 -106l96 106h23z" />
    <glyph glyph-name="Ydieresis" unicode="&#x178;" horiz-adv-x="677" 
d="M667 627l-1 -13l-11 -1q-37 -4 -60.5 -22.5t-55.5 -69.5l-162 -258v-195q0 -29 14 -42t51 -17l11 -1l1 -13l-14 1l-78 5h-38l-78 -5l-14 -1l1 13l11 1q37 4 51 16t14 43v176l-182 290q-31 49 -49 62t-56 17l-11 1l-1 13l14 -1l88 -5h38l88 5l14 1l-1 -13l-11 -1
q-31 -2 -46 -6.5t-15 -19.5q0 -8 7 -19l169 -270l157 252q10 17 10 29q0 16 -18 23t-47 11l-11 1l-1 13l14 -1l78 -5h38l78 5zM505 762q-40 -16 -56 -56h-7q-16 40 -56 56v7q40 16 56 56h7q16 -40 56 -56v-7zM319 762q-40 -16 -56 -56h-7q-16 40 -56 56v7q40 16 56 56h7
q16 -40 56 -56v-7z" />
    <glyph glyph-name="Zcaron" unicode="&#x17d;" horiz-adv-x="650" 
d="M592 103l-50 -140l-15 1q3 11 3 17q0 11 -9.5 15t-36.5 4h-421v21l222 304h-183l30 32h176l164 226h-278q-30 0 -46.5 -11t-36.5 -54h-12l50 140l15 -1q-3 -11 -3 -17q0 -11 9.5 -15t36.5 -4h353v-19l-179 -245h188l-30 -32h-181l-208 -287h347q30 0 46.5 11t36.5 54h12z
M470 883l-97 -174h-44l-97 174h23l96 -106l96 106h23z" />
    <glyph glyph-name="zcaron" unicode="&#x17e;" horiz-adv-x="480" 
d="M431 88l-40 -113h-16q2 6 2 14q0 11 -29 11h-298v19l146 208h-117l28 29h110l106 152h-171q-32 0 -58 -55h-14l38 113h18q-3 -9 -3 -14q0 -11 29 -11h243v-18l-117 -167h128l-27 -29h-122l-136 -194h227q31 0 57 55h16zM369 696l-97 -174h-44l-97 174h23l96 -106l96 106
h23z" />
    <glyph glyph-name="florin" unicode="&#x192;" horiz-adv-x="500" 
d="M534 636h-86q0 28 -6.5 39.5t-19.5 11.5q-22 0 -34 -22.5t-22 -78.5l-26 -142h128v-32h-134l-12 -62q-27 -143 -61 -255q-42 -135 -90 -209q-56 -86 -121 -86q-26 0 -43.5 14.5t-17.5 38.5q0 18 11 31t28 13q12 0 22 -9t10 -20q0 -6 -7 -18l-4 -11q0 -9 13 -9
q44 0 82 149l110 433h-104v32h112l25 100q21 82 58 124.5t85 42.5q65 0 72 -56h32v-19z" />
    <glyph glyph-name="hungarumlaut" unicode="&#x2ba;" horiz-adv-x="333" 
d="M312 612l-2 -8q-33 -12 -101 -171h-8q4 29 9.5 65t5.5 63q0 36 -16 43l2 8q19 7 37 24t32 37h8q4 -24 10.5 -38.5t22.5 -22.5zM160 612l-2 -8q-33 -12 -101 -171h-8q4 29 9.5 65t5.5 63q0 36 -16 43l2 8q19 7 37 24t32 37h8q4 -24 10.5 -38.5t22.5 -22.5z" />
    <glyph glyph-name="circumflex" unicode="&#x2c6;" horiz-adv-x="333" 
d="M304 457h-15l-122 113l-123 -113h-15l92 161h90z" />
    <glyph glyph-name="caron" unicode="&#x2c7;" horiz-adv-x="333" 
d="M286 631l-97 -174h-44l-97 174h23l96 -106l96 106h23z" />
    <glyph glyph-name="breve" unicode="&#x2d8;" horiz-adv-x="333" 
d="M306 597q0 -59 -40.5 -97.5t-99.5 -38.5q-57 0 -95.5 37.5t-43.5 98.5h15q34 -63 125 -63q100 0 123 63h16z" />
    <glyph glyph-name="dotaccent" unicode="&#x2d9;" horiz-adv-x="302" 
d="M204 494q0 -15 -10 -26t-28 -11q-15 0 -26 11t-11 26t10.5 26.5t26.5 11.5t27 -11t11 -27z" />
    <glyph glyph-name="ring" unicode="&#x2da;" horiz-adv-x="333" 
d="M257 550q0 -39 -27 -66t-66 -27t-66.5 27.5t-27.5 65.5q0 39 27.5 66.5t66.5 27.5t66 -27t27 -67zM223 550q0 24 -17 42t-42 18t-42.5 -17.5t-17.5 -42.5t17 -42t43 -17q24 0 41.5 17.5t17.5 41.5z" />
    <glyph glyph-name="ogonek" unicode="&#x2db;" horiz-adv-x="333" 
d="M309 -140q-42 -23 -63.5 -30t-49.5 -7q-50 0 -81 25t-31 66q0 57 39 94h26q-13 -26 -13 -49q0 -41 29 -68t75 -27q13 0 28 3t31 8z" />
    <glyph glyph-name="tilde" unicode="&#x2dc;" horiz-adv-x="333" 
d="M303 564q0 -49 -22 -73t-58 -24q-24 0 -46 11q-2 1 -37 22q-17 10 -27 14.5t-19 4.5q-17 0 -30 -13t-13 -39h-20q0 42 20 69.5t61 27.5q17 0 35 -8q12 -5 38 -22q17 -11 29 -17t24 -6q18 0 31.5 13.5t13.5 39.5h20z" />
    <glyph glyph-name="summation" unicode="&#x3a3;" horiz-adv-x="1033" 
d="M1007 90q-19 -31 -27 -54q-4 -11 -11 -38l-114 3h-124l-78 -5l-14 -1l1 13l11 1q37 4 51 16t14 43v228h-366v-228q0 -29 14 -42t51 -17l11 -1l1 -13l-14 1l-78 5h-38l-78 -5l-14 -1l1 13l11 1q37 4 51 16t14 43v683h-171q-30 0 -46.5 -11t-36.5 -54h-12l50 139h15
q-3 -11 -3 -17q0 -11 9.5 -15t36.5 -4h437q30 0 46.5 11t36.5 54h12l-50 -139h-15q3 11 3 17q0 11 -9.5 15t-36.5 4h-198v-359h366v162q0 29 -14 42t-51 17l-11 1l-1 13l14 -1l78 -5h38l78 5l14 1l-1 -13l-11 -1q-37 -4 -51 -16t-14 -43v-113l184 -1l17 -81l-16 1
q-9 34 -18.5 42t-41.5 8l-125 2v-154h90q12 0 22 11t15 23h6q13 -32 45 -45v-6q-32 -13 -45 -45h-6q-5 12 -15 23t-22 11h-90v-161q0 -26 5 -32t29 -6h77q38 0 53 10t37 47zM716 328v32h-366v-32h366z" />
    <glyph glyph-name="Omega" unicode="&#x3a9;" horiz-adv-x="0" 
 />
    <glyph glyph-name="pi" unicode="&#x3c0;" horiz-adv-x="706" 
d="M644 -3h-13l-56 4h-27l-56 -4h-13v15h11q25 3 34.5 11.5t9.5 27.5v265q-44 0 -78.5 7.5t-74.5 22.5v-295q0 -20 9 -28t35 -11h11v-15h-13l-56 4h-27l-56 -4h-14l1 15h11q25 3 34.5 11.5t9.5 27.5v329q-43 35 -79.5 48.5t-73.5 13.5v-391q0 -20 9 -28t35 -11h11v-15h-13
l-56 4h-27l-57 -4h-13l1 15h11q25 3 34.5 11.5t9.5 27.5v385q0 33 -38 38l-17 1l-1 16l20 -2l95 -7q47 0 94 -21q39 -17 83 -52q35 -28 85.5 -41t112.5 -13q20 0 41 1.5t32 2.5h19l-1 -15h-17q-21 -3 -29 -11t-8 -28v-254q0 -20 9 -28t35 -11h11v-15z" />
    <glyph glyph-name="afii10023" unicode="&#x401;" horiz-adv-x="596" 
d="M529 119q-23 -42 -32 -71q-7 -33 -12 -52l-157 5h-156l-78 -5l-14 -1l1 13l11 1q37 4 51 16t14 43v486q0 29 -14 42t-51 17l-11 1l-1 13l14 -1l78 -5h312l19 -108h-14q-13 50 -26.5 61.5t-59.5 11.5l-178 2v-228h226v-32h-226v-234q0 -41 7.5 -49.5t43.5 -8.5h107
q53 0 75 15t54 66zM464 755q-40 -16 -56 -56h-7q-16 40 -56 56v7q40 16 56 56h7q16 -40 56 -56v-7zM278 755q-40 -16 -56 -56h-7q-16 40 -56 56v7q40 16 56 56h7q16 -40 56 -56v-7z" />
    <glyph glyph-name="afii10051" unicode="&#x402;" horiz-adv-x="640" 
d="M620 686l-50 -139h-15q3 11 3 17q0 11 -9.5 15t-36.5 4h-158v-515q0 -29 14 -42t51 -17l11 -1l1 -13l-14 1l-78 5h-38l-78 -5l-14 -1l1 13l11 1q37 4 51 16t14 43v515h-171q-30 0 -46.5 -11t-36.5 -54h-12l50 139h15q-3 -11 -3 -17q0 -11 9.5 -15t36.5 -4h158v111
q0 29 -14 42t-51 17l-11 1l-1 13l14 -1l78 -5h38l78 5l14 1l-1 -13l-11 -1q-37 -4 -51 -16t-14 -43v-111h171q30 0 46.5 11t36.5 54h12zM570 -5l-14 1l-40 4t-28 1h-33q-16 0 -33.5 -2t-34.5 -3l-14 -1l1 14l11 1q35 4 45 15.5t10 43.5v128h-241v-128q0 -31 10 -43t45 -16
l11 -1l1 -14l-14 1l-40 4t-28 1h-33q-16 0 -33.5 -2t-34.5 -3l-14 -1l1 14l11 1q35 4 45 15.5t10 43.5v304q0 31 -10 43t-45 16l-11 1l-1 14l14 -1l40 -4t28 -1h33q16 0 33.5 2t34.5 3l14 1l-1 -14l-11 -1q-35 -4 -45 -15.5t-10 -43.5v-86h241v86q0 31 -10 43t-45 16l-11 1
l-1 14l14 -1l40 -4t28 -1h33q16 0 33.5 2t34.5 3l14 1l-1 -14l-11 -1q-35 -4 -45 -15.5t-10 -43.5v-304q0 -31 10 -43t45 -16l11 -1zM440 226v32h-241v-32h241z" />
    <glyph glyph-name="afii10052" unicode="&#x403;" horiz-adv-x="833" 
d="M544 475l-32 42q-37 48 -56.5 58t-75.5 10h-104q-36 0 -43.5 -8.5t-7.5 -49.5v-460q0 -31 14 -43t51 -16l11 -1l1 -13l-14 1l-78 5h-38l-78 -5l-14 -1l1 13l11 1q37 4 51 17t14 42v486q0 31 -14 43t-51 16l-11 1l-1 13l14 -1l78 -5h38q27 0 170 4q39 1 109 3
q9 -36 23 -65q20 -42 53 -87h-21zM496 979l-143 -169h-17l51 169h109z" />
    <glyph glyph-name="afii10053" unicode="&#x404;" horiz-adv-x="547" 
d="M121 322h143q39 0 39 16q0 5 -4 17h24l51 -137h-20q-16 37 -34 49q-14 11 -44 11l-155 -1q6 -103 65 -176q57 -71 145 -71q69 0 101 28q37 37 46 123h19l-12 -131q-23 -19 -73 -37q-48 -19 -89 -19q-115 0 -193 84q-80 86 -80 224q0 131 77 229q79 97 196 97q39 0 72 -13
q16 -7 34 -14t35 -15q7 0 15 6l7 -132l-15 1q-15 72 -55 102q-43 29 -104 29q-82 0 -136 -83q-26 -42 -39.5 -87.5t-15.5 -99.5z" />
    <glyph glyph-name="afii10054" unicode="&#x405;" horiz-adv-x="530" 
d="M462 156q0 -67 -62 -119t-155 -52q-49 0 -97 15q-44 17 -55 21l-20 128h14q16 -73 53.5 -106t104.5 -33q63 0 104 32t41 86q0 56 -40 99q-34 36 -126 88q-65 37 -99 72q-43 45 -43 95q0 72 48.5 113.5t129.5 41.5q38 0 80 -14t71 -14l15 -95h-8q-24 60 -73 83
q-35 16 -90 16q-48 0 -79 -29t-31 -74q0 -34 22.5 -62.5t103.5 -75.5q95 -54 133 -90q58 -56 58 -126z" />
    <glyph glyph-name="afii10055" unicode="&#x406;" horiz-adv-x="402" 
d="M266 731q-43 -18 -61 -61h-8q-18 43 -61 61v8q43 18 61 61h8q18 -43 61 -61v-8zM312 -5l-14 1l-78 5h-38l-78 -5l-14 -1l1 13l11 1q37 4 51 16t14 43v486q0 29 -14 42t-51 17l-11 1l-1 13l14 -1l78 -5h38l78 5l14 1l-1 -13l-11 -1q-37 -4 -51 -16t-14 -43v-486
q0 -29 14 -42t51 -17l11 -1z" />
    <glyph glyph-name="afii10056" unicode="&#x407;" horiz-adv-x="379" 
d="M180 731q-43 -18 -61 -61h-8q-18 43 -61 61v8q43 18 61 61h8q18 -43 61 -61v-8zM293 -5l-14 1l-78 5h-38l-78 -5l-14 -1l1 13l11 1q37 4 51 16t14 43v486q0 29 -14 42t-51 17l-11 1l-1 13l14 -1l78 -5h38l78 5l14 1l-1 -13l-11 -1q-37 -4 -51 -16t-14 -43v-486
q0 -29 14 -42t51 -17l11 -1zM329 731q-43 -18 -61 -61h-8q-18 43 -61 61v8q43 18 61 61h8q18 -43 61 -61v-8z" />
    <glyph glyph-name="afii10057" unicode="&#x408;" horiz-adv-x="402" 
d="M266 731q-43 -18 -61 -61h-8q-18 43 -61 61v8q43 18 61 61h8q18 -43 61 -61v-8zM312 627l-1 -13l-11 -1q-37 -4 -51 -16t-14 -43v-690l-68 -94v784q0 29 -14 42t-51 17l-11 1l-1 13l14 -1l78 -5h38l78 5z" />
    <glyph glyph-name="afii10058" unicode="&#x409;" horiz-adv-x="833" 
 />
    <glyph glyph-name="afii10059" unicode="&#x40a;" horiz-adv-x="833" 
 />
    <glyph glyph-name="afii10060" unicode="&#x40b;" horiz-adv-x="833" 
 />
    <glyph glyph-name="afii10061" unicode="&#x40c;" horiz-adv-x="650" 
d="M932 -77q-6 -15 -46.5 -27.5t-97.5 -12.5q-116 0 -233 92q-81 63 -171 180q-93 120 -95 122q-9 7 -17 11q-17 8 -34 8q-8 0 -13 -1v-227q0 -29 14 -42t51 -17l11 -1l1 -13l-14 1l-78 5h-38l-78 -5l-14 -1l1 13l11 1q37 4 51 16t14 43v486q0 29 -14 42t-51 17l-11 1l-1 13
l14 -1l78 -5h38l78 5l14 1l-1 -13l-11 -1q-37 -4 -51 -16t-14 -43v-239q69 0 170 109q95 103 95 153q0 17 -18.5 24.5t-52.5 11.5l-11 1l-1 13l14 -1l78 -5h38l78 5l14 1l-1 -13l-11 -1q-44 -5 -71 -34q-11 -12 -40 -58q-46 -72 -89 -116q-38 -39 -100 -83q21 -2 87 -88
q90 -118 143 -173q101 -104 197 -138q44 -16 99 -16q56 0 89 16zM405 979l-143 -169h-17l51 169h109z" />
    <glyph glyph-name="afii10062" unicode="&#x40e;" horiz-adv-x="833" 
d="M662 628l-1 -16l-11 -1q-38 -6 -59 -29q-23 -23 -54 -85l-131 -334q-28 -66 -52.5 -122.5t-52 -100.5t-63 -74t-86.5 -45q-35 -10 -68 -11.5t-62.5 8t-53.5 30.5t-39 56q39 -27 78.5 -36.5t77 -4.5t71.5 21.5t63 40.5q24 21 43.5 45.5t34.5 49t25 46.5t15 39l-201 408
q-32 62 -48 77q-8 8 -22 13t-32 8l-11 1l-1 16l14 -1l85 -6h37l86 6l14 1l-1 -16l-11 -1q-30 -3 -44.5 -8.5t-14.5 -23.5q0 -11 6 -24l180 -364l138 342q10 19 10 36q0 20 -17.5 28.5t-46.5 13.5l-10 1l-1 16l13 -1l76 -6h37l76 6zM556 950q0 -59 -40.5 -97.5t-99.5 -38.5
q-57 0 -95.5 37.5t-43.5 98.5h15q34 -63 125 -63q100 0 123 63h16z" />
    <glyph glyph-name="afii10145" unicode="&#x40f;" horiz-adv-x="833" 
 />
    <glyph glyph-name="afii10017" unicode="&#x410;" horiz-adv-x="706" 
d="M656 -6l-14 1l-78 5h-38l-78 -5l-14 -1l1 13l11 1q37 4 51 16t14 43v14l-3 108h-310l-3 -108v-14q0 -29 14 -42t51 -17l11 -1l1 -13l-14 1l-78 5h-38l-78 -5l-14 -1l1 13l11 1q37 4 51 16t14 43v17q0 201 45 332q56 159 181 233q124 -73 180 -232q46 -131 46 -333v-17
q0 -29 14 -42t51 -17l11 -1zM506 227q0 160 -46 265q-41 93 -107 131q-66 -37 -107 -131q-46 -105 -46 -265h306z" />
    <glyph glyph-name="uni0411" unicode="&#x411;" horiz-adv-x="626" 
d="M488 627l21 -108h-12q-9 23 -15.5 36.5t-13 20t-16 8.5t-25.5 2h-234v-212h134q32 -2 56.5 -5.5t41.5 -8.5q148 -46 148 -169q0 -79 -55 -130q-65 -60 -189 -60l-189 2l-78 -5l-14 -1l1 13l11 1q37 4 51 16t14 43v485q0 29 -14 42t-51 17l-11 1l-1 13zM496 187
q0 70 -44 114q-49 47 -131 47h-127v-202q0 -84 21 -103q20 -19 107 -19q75 0 125 47q49 46 49 116z" />
    <glyph glyph-name="afii10019" unicode="&#x412;" horiz-adv-x="626" 
d="M576 189q0 -79 -55 -130q-64 -60 -190 -60l-189 2l-78 -5l-14 -1l1 13l11 1q37 4 51 16t14 43v486q0 29 -14 42t-51 17l-11 1l-1 13l279 1q89 0 145 -37.5t56 -102.5q0 -43 -27.5 -78.5t-74.5 -51.5q148 -46 148 -169zM461 479q0 65 -43.5 97t-146.5 32l-76 -4v-232h134
q68 0 103 35q29 29 29 72zM497 187q0 71 -44 114q-48 47 -131 47h-127v-202q0 -84 21 -103t107 -19q76 0 125 47t49 116z" />
    <glyph glyph-name="afii10020" unicode="&#x413;" horiz-adv-x="585" 
d="M514 475l-32 42q-37 48 -56.5 58t-75.5 10h-104q-36 0 -43.5 -8.5t-7.5 -49.5v-460q0 -31 14 -43t51 -16l11 -1l1 -13l-14 1l-78 5h-38l-78 -5l-14 -1l1 13l11 1q37 4 51 17t14 42v486q0 31 -14 43t-51 16l-11 1l-1 13l14 -1l78 -5h38q27 0 170 4q39 1 109 3
q9 -36 23 -65q20 -42 53 -87h-21z" />
    <glyph glyph-name="afii10021" unicode="&#x414;" horiz-adv-x="753" 
d="M652 48q8 -28 25 -64t56 -84h-21l-35 41q-21 23 -34.5 36.5t-27.5 20t-32 8t-48 1.5q-50 -3 -105 -3.5t-103 0.5q-55 1 -109 3q-30 0 -48 -1.5t-32 -8t-27.5 -20t-34.5 -36.5l-33 -41h-23q40 48 56.5 84t25.5 64h8q4 0 9.5 -0.5t13.5 -1.5h23l99 511v-2q0 14 -3 22
t-11 12.5t-21 6.5t-33 4h-13l-2 19l19 -2h2q9 -1 21.5 -1.5t25 -0.5h24h18.5h197h18h23t24.5 0.5t21.5 1.5h4l17 2l-1 -19h-14q-18 -2 -31 -4t-20.5 -5.5t-11 -11t-3.5 -20.5l89 -513h22.5t18.5 1q9 0 16 1zM420 578h-83l-103 -534q38 -2 75.5 -3t68.5 -1q29 0 66 1t75 3z
" />
    <glyph glyph-name="afii10022" unicode="&#x415;" horiz-adv-x="549" 
d="M499 119q-23 -42 -32 -71q-7 -33 -12 -52l-157 5h-156l-78 -5l-14 -1l1 13l11 1q37 4 51 16t14 43v486q0 29 -14 42t-51 17l-11 1l-1 13l14 -1l78 -5h312l19 -108h-14q-13 50 -26.5 61.5t-59.5 11.5l-178 2v-228h226v-32h-226v-234q0 -41 7.5 -49.5t43.5 -8.5h107
q53 0 75 15t54 66z" />
    <glyph glyph-name="afii10024" unicode="&#x416;" horiz-adv-x="974" 
d="M716 624l78 -4h39l80 4h11v-11h-11q-42 -7 -71 -36q-7 -6 -16 -20.5t-24 -34.5q-47 -73 -86 -119q-21 -17 -45.5 -38t-56.5 -44q21 0 86 -87q42 -50 83.5 -105t89.5 -100q8 -5 15.5 -10t28.5 -5h7v-16h-11l-80 8h-35l-78 -8h-13v16h13q17 0 25 3t13 8q9 7 -0.5 26.5
t-25 40.5t-32 39t-20.5 24q-87 117 -94 122q-4 3 -8.5 6t-7.5 7q-9 2 -18 4.5t-18 2.5h-11v-228q0 -15 3 -26.5t13 -17.5q5 -5 17.5 -8.5t33.5 -7.5h7v-3v-8h-11l-80 4h-35l-78 -4h-12h-4l4 8v3h8q41 7 51 16q9 6 12 17.5t3 26.5v228h-11q-9 0 -18 -2.5t-18 -4.5
q-3 -4 -7.5 -7t-7.5 -6q-3 -2 -26.5 -32t-68.5 -90q-4 -6 -20 -24t-32 -39t-25.5 -40.5t-0.5 -26.5q5 -5 13 -8t25 -3h13v-16h-13l-78 8h-35l-79 -8h-16v16h12q18 0 26 5t13 10q51 45 93 100t84 105q65 87 87 87q-32 23 -56.5 44t-45.5 38q-20 24 -42 53.5t-45 65.5
q-15 20 -24 34.5t-15 20.5q-15 15 -32.5 23.5t-38.5 12.5h-12v11h12l79 -4h40l78 4h11v-11h-11q-36 -7 -51 -13q-12 -2 -16 -8t-4 -15q0 -55 95 -154q50 -54 91.5 -82t76.5 -28v240q0 20 -3 24q-3 5 -4.5 11t-7.5 9q-3 2 -11 5l-16 6q-7 0 -12.5 2.5t-11.5 2.5h-8l-4 11h4
h12l78 -4h35l80 4h11h4l-4 -11h-7q-7 0 -12.5 -2.5t-11.5 -2.5q-9 -3 -17 -6t-10 -5q-7 -3 -8.5 -9t-4.5 -11q-3 -4 -3 -24v-240q35 0 76.5 28t92.5 82q95 101 95 154q0 9 -6 15t-14 8q-17 5 -51 13h-13v11h13z" />
    <glyph glyph-name="afii10025" unicode="&#x417;" horiz-adv-x="594" 
d="M500 300q23 -23 33.5 -52t10.5 -62q0 -38 -15 -70.5t-48 -61.5q-29 -29 -69 -42.5t-86 -13.5q-26 0 -48.5 3t-42.5 11q-18 6 -37 16.5t-36 24.5q-10 8 -20.5 12t-18.5 4q-23 0 -54 -21l-7 -6l-12 8l12 8q9 8 16 12.5t12 6.5q22 17 34 28l29 24q2 3 7 9t15 14q7 5 14 12.5
t18 18.5l13 11l5 -9l-5 -8q-25 -24 -25 -44q0 -12 6 -22q1 -5 6 -16q10 -14 22 -27t30 -25q19 -10 39.5 -15.5t43.5 -5.5q57 0 91 40q17 21 27 45t10 55q0 15 -1 20q-9 61 -52 98q-10 7 -18 13.5t-17.5 11t-22.5 7t-32 2.5q-14 -2 -19.5 -12t-7.5 -30v-7l-9 -1v10l4 51v25
l-4 52v9l8 -1l1 -7q2 -24 10.5 -33t26.5 -10t37.5 5.5t37.5 23.5q36 30 41 82q1 2 1 16q0 24 -7 44.5t-23 36.5q-27 34 -74 34q-40 0 -68 -19q-16 -8 -26 -19t-18 -23q-5 -6 -7 -13q-2 -4 -3.5 -8.5t-1.5 -9.5q0 -8 5.5 -16.5t16.5 -19.5l5 -5l-7 -8l-8 8q-10 9 -16 15.5
t-10 10.5q-15 13 -19 18l-25 20q-10 12 -28 23q-7 4 -23 17l-12 7l10 6l8 -6q13 -9 23.5 -12.5t19.5 -3.5q17 0 35 14q14 11 29.5 19.5t30.5 13.5q17 6 35.5 8.5t38.5 2.5q77 0 130 -46q52 -46 52 -110q0 -28 -8.5 -51t-28.5 -43q-8 -9 -19.5 -16.5t-22.5 -14.5
q17 -8 32.5 -18.5t29.5 -22.5z" />
    <glyph glyph-name="afii10026" unicode="&#x418;" horiz-adv-x="683" 
d="M633 -4l-13 1l-69 5h-33l-69 -5l-13 -1l1 13l10 1q32 4 44.5 16t12.5 43v325l-324 -233v-92q0 -29 12.5 -42t44.5 -17l10 -1l1 -13l-12 1l-70 5h-34l-70 -5l-12 -1l1 13l10 1q33 4 45.5 16t12.5 43v485q0 29 -12.5 42t-45.5 17l-10 1l-1 13l12 -1l70 -5h34l70 5l12 1
l-1 -13l-10 -1q-32 -4 -44.5 -16t-12.5 -43v-298l324 234v64q0 29 -12.5 42t-44.5 17l-10 1l-1 13l13 -1l69 -5h33l69 5l13 1l-1 -13l-10 -1q-32 -4 -45 -16t-13 -43v-485q0 -29 13 -42t45 -17l10 -1zM504 426v32l-324 -234v-32z" />
    <glyph glyph-name="afii10027" unicode="&#x419;" horiz-adv-x="683" 
d="M633 -4l-13 1l-69 5h-33l-69 -5l-13 -1l1 13l10 1q32 4 44.5 16t12.5 43v325l-324 -233v-92q0 -29 12.5 -42t44.5 -17l10 -1l1 -13l-12 1l-70 5h-34l-70 -5l-12 -1l1 13l10 1q33 4 45.5 16t12.5 43v485q0 29 -12.5 42t-45.5 17l-10 1l-1 13l12 -1l70 -5h34l70 5l12 1
l-1 -13l-10 -1q-32 -4 -44.5 -16t-12.5 -43v-298l324 234v64q0 29 -12.5 42t-44.5 17l-10 1l-1 13l13 -1l69 -5h33l69 5l13 1l-1 -13l-10 -1q-32 -4 -45 -16t-13 -43v-485q0 -29 13 -42t45 -17l10 -1zM504 426v32l-324 -234v-32zM300 806q-13 -13 -23 -22.5t-15 -18
t-3.5 -16.5t10.5 -18q14 -15 31 -21.5t37 -7.5q26 0 54 11q20 13 27 25t5 23t-11.5 22.5t-21.5 24.5q22 -4 53 -18.5t50 -40.5q-17 -18 -38.5 -33.5t-50.5 -26.5q-38 -8 -66.5 -8t-60.5 8q-26 8 -45.5 22t-35.5 43q5 7 15.5 15t24.5 15.5t30.5 13t33.5 8.5z" />
    <glyph glyph-name="afii10028" unicode="&#x41a;" horiz-adv-x="659" 
d="M902 -77q-6 -15 -46.5 -27.5t-97.5 -12.5q-116 0 -233 92q-81 63 -171 180q-93 120 -95 122q-9 7 -17 11q-17 8 -34 8q-8 0 -13 -1v-227q0 -29 14 -42t51 -17l11 -1l1 -13l-14 1l-78 5h-38l-78 -5l-14 -1l1 13l11 1q37 4 51 16t14 43v486q0 29 -14 42t-51 17l-11 1l-1 13
l14 -1l78 -5h38l78 5l14 1l-1 -13l-11 -1q-37 -4 -51 -16t-14 -43v-239q69 0 170 109q95 103 95 153q0 17 -18.5 24.5t-52.5 11.5l-11 1l-1 13l14 -1l78 -5h38l78 5l14 1l-1 -13l-11 -1q-44 -5 -71 -34q-11 -12 -40 -58q-46 -72 -89 -116q-38 -39 -100 -83q21 -2 87 -88
q90 -118 143 -173q101 -104 197 -138q44 -16 99 -16q56 0 89 16z" />
    <glyph glyph-name="afii10029" unicode="&#x41b;" horiz-adv-x="709" 
d="M659 -5l-14 1l-78 5h-38l-78 -5l-14 -1l1 13l11 1q37 4 51 16t14 43v515h-163l-141 -518q0 -15 1 -24.5t5.5 -16t15 -10t28.5 -5.5l11 -1l1 -13l-14 1l-78 5h-38l-78 -5l-14 -1l1 13l11 1q18 2 41 16t39 38q20 31 30.5 74.5t25.5 92.5q15 47 27.5 96t23 92.5t19 79
t15.5 56.5q0 29 -14 42t-51 17l-11 1l-1 13l14 -1l78 -5h269l78 5l14 1l-1 -13l-11 -1q-37 -4 -51 -16t-14 -43v-486q0 -29 14 -42t51 -17l11 -1z" />
    <glyph glyph-name="afii10030" unicode="&#x41c;" horiz-adv-x="900" 
d="M850 -5l-14 1l-78 5h-38l-78 -5l-14 -1l1 13l11 1q37 4 51 16t14 43v493l-221 -68v-425q0 -29 14 -42t51 -17l11 -1l1 -13l-14 1l-78 5h-38l-78 -5l-14 -1l1 13l11 1q37 4 51 16t14 43v425l-221 68v-493q0 -29 14 -42t51 -17l11 -1l1 -13l-14 1l-78 5h-38l-78 -5l-14 -1
l1 13l11 1q37 4 51 16t14 43v486q0 29 -14 42t-51 17l-11 1l-1 13l14 -1q42 -4 55 -6q30 -6 89 -24l242 -74l242 74q51 16 81.5 21.5t62.5 8.5l14 1l-1 -13l-11 -1q-37 -4 -51 -16t-14 -43v-486q0 -29 14 -42t51 -17l11 -1z" />
    <glyph glyph-name="afii10031" unicode="&#x41d;" horiz-adv-x="756" 
d="M706 -5l-14 1l-78 5h-38l-78 -5l-14 -1l1 13l11 1q37 4 51 16t14 43v228h-366v-228q0 -29 14 -42t51 -17l11 -1l1 -13l-14 1l-78 5h-38l-78 -5l-14 -1l1 13l11 1q37 4 51 16t14 43v486q0 29 -14 42t-51 17l-11 1l-1 13l14 -1l78 -5h38l78 5l14 1l-1 -13l-11 -1
q-37 -4 -51 -16t-14 -43v-162h366v162q0 29 -14 42t-51 17l-11 1l-1 13l14 -1l78 -5h38l78 5l14 1l-1 -13l-11 -1q-37 -4 -51 -16t-14 -43v-486q0 -29 14 -42t51 -17l11 -1zM561 328v32h-366v-32h366z" />
    <glyph glyph-name="afii10032" unicode="&#x41e;" horiz-adv-x="818" 
d="M768 321q0 -137 -103 -236.5t-256 -99.5t-254 86q-105 89 -105 230q0 137 101 235q105 101 258 101t256 -87.5t103 -228.5zM699 311q-13 126 -99 209q-90 87 -222 87q-117 0 -189 -75t-72 -187v-17q2 -12 2 -17q13 -126 99 -209q90 -87 222 -87q117 0 189 75t72 187v17
q-2 12 -2 17z" />
    <glyph glyph-name="afii10033" unicode="&#x41f;" horiz-adv-x="709" 
d="M659 -5l-14 1l-78 5h-38l-78 -5l-14 -1l1 13l11 1q37 4 51 16t14 43v515h-319v-515q0 -29 14 -42t51 -17l11 -1l1 -13l-14 1l-78 5h-38l-78 -5l-14 -1l1 13l11 1q37 4 51 16t14 43v486q0 29 -14 42t-51 17l-11 1l-1 13l14 -1l78 -5h425l78 5l14 1l-1 -13l-11 -1
q-37 -4 -51 -16t-14 -43v-486q0 -29 14 -42t51 -17l11 -1z" />
    <glyph glyph-name="afii10034" unicode="&#x420;" horiz-adv-x="567" 
d="M517 470q0 -87 -75 -145t-178 -58l-34 3v9l25 -1q81 0 138.5 46.5t57.5 122.5q0 64 -45 108q-50 48 -136 48q-49 0 -62 -7.5t-13 -41.5v-486q0 -29 14 -42t51 -17l11 -1l1 -13l-14 1l-78 5h-38l-78 -5l-14 -1l1 13l11 1q37 4 51 16t14 43v486q0 29 -14 42t-51 17l-11 1
l-1 13l14 -1q21 -2 37.5 -3.5t40.5 -1.5q17 0 80.5 2.5t75.5 2.5q101 0 160 -44.5t59 -111.5z" />
    <glyph glyph-name="afii10035" unicode="&#x421;" horiz-adv-x="687" 
d="M637 169l-16 -133q-28 -21 -90.5 -36t-121.5 -15q-153 0 -254 86q-105 89 -105 230q0 137 101 235q105 101 258 101q53 0 97 -13t89 -27q11 0 19 5l7 -128h-11q-23 78 -79 111q-49 29 -135 29q-115 0 -187.5 -91.5t-72.5 -220.5t86 -213q83 -81 200 -81q90 0 135 32
q53 37 63 129h17z" />
    <glyph glyph-name="afii10036" unicode="&#x422;" horiz-adv-x="700" 
d="M650 686l-50 -139h-15q3 11 3 17q0 11 -9.5 15t-36.5 4h-158v-515q0 -29 14 -42t51 -17l11 -1l1 -13l-14 1l-78 5h-38l-78 -5l-14 -1l1 13l11 1q37 4 51 16t14 43v515h-171q-30 0 -46.5 -11t-36.5 -54h-12l50 139h15q-3 -11 -3 -17q0 -11 9.5 -15t36.5 -4h158v111
q0 29 -14 42t-51 17l-11 1l-1 13l14 -1l78 -5h38l78 5l14 1l-1 -13l-11 -1q-37 -4 -51 -16t-14 -43v-111h171q30 0 46.5 11t36.5 54h12z" />
    <glyph glyph-name="afii10037" unicode="&#x423;" horiz-adv-x="747" 
d="M691 628l-1 -16l-11 -1q-38 -6 -59 -29q-23 -23 -54 -85l-131 -334q-28 -66 -52.5 -122.5t-52 -100.5t-63 -74t-86.5 -45q-35 -10 -68 -11.5t-62.5 8t-53.5 30.5t-39 56q39 -27 78.5 -36.5t77 -4.5t71.5 21.5t63 40.5q24 21 43.5 45.5t34.5 49t25 46.5t15 39l-201 408
q-32 62 -48 77q-8 8 -22 13t-32 8l-11 1l-1 16l14 -1l85 -6h37l86 6l14 1l-1 -16l-11 -1q-30 -3 -44.5 -8.5t-14.5 -23.5q0 -11 6 -24l180 -364l138 342q10 19 10 36q0 20 -17.5 28.5t-46.5 13.5l-10 1l-1 16l13 -1l76 -6h37l76 6z" />
    <glyph glyph-name="afii10038" unicode="&#x424;" horiz-adv-x="812" 
d="M543 626q101 0 160 -45q59 -44 59 -111q0 -87 -75 -145q-74 -58 -178 -58l-34 3v9l25 -1q82 0 138 46q58 46 58 123q0 64 -45 108q-50 48 -136 48q-48 0 -62 -8q-13 -13 -13 -41v-486q0 -29 14 -42t51 -17l11 -1l1 -13l-14 1l-78 5h-38l-78 -5l-14 -1l1 13l11 1
q37 4 51 17t14 42v486q0 28 -13 41q-14 8 -62 8q-87 0 -136 -48q-45 -44 -45 -108q0 -77 57 -123q58 -46 139 -46l25 1v-9l-34 -3q-104 0 -178 58q-75 58 -75 145q0 67 59 111q58 45 160 45q20 0 37.5 -1t37.5 -2t35.5 -1t26.5 -1q11 1 26 1t35 1t38 2t38 1z" />
    <glyph glyph-name="afii10039" unicode="&#x425;" horiz-adv-x="759" 
d="M709 -5l-14 1l-78 5h-59l-78 -5l-14 -1l1 13l11 1q53 6 53 36q0 11 -9 23l-152 206l-162 -206q-11 -14 -11 -27q0 -28 46 -32l11 -1l1 -13l-14 1l-78 5h-21l-78 -5l-14 -1l1 13l11 1q33 3 59 22q16 12 36 37l188 239l-182 247q-21 28 -46 42.5t-49 16.5l-11 1l-1 13
l14 -1l78 -5h59l78 5l14 1l-1 -13l-11 -1q-23 -2 -34 -11t-11 -22t10 -26l139 -189l148 189q9 11 9 25q0 13 -10.5 22.5t-33.5 11.5l-11 1l-1 13l14 -1l78 -5h21l78 5l14 1l-1 -13l-11 -1q-32 -3 -57 -21q-19 -13 -38 -38l-174 -222l195 -264q19 -26 31 -36q23 -20 55 -23
l11 -1z" />
    <glyph glyph-name="afii10040" unicode="&#x426;" horiz-adv-x="751" 
d="M604 40l55 -1q17 7 24 18t18 20q-2 -4 -9.5 -30t-22.5 -63t-40 -79t-63 -78q-46 -44 -105.5 -71.5t-117.5 -32t-106.5 19t-72.5 83.5q33 -41 74.5 -57t86.5 -11.5t90 26t86.5 54.5t76.5 75t58 88q-17 0 -34.5 -0.5t-34.5 0.5h-425l-78 -5l-14 -1l1 13l11 1q37 4 51 17
t14 42v486q0 31 -14 43t-51 16l-11 1l-1 13l14 -1l78 -5h38l78 5l14 1l-1 -13l-11 -1q-37 -4 -51 -17t-14 -42v-515h319v515q0 31 -14 43t-51 16l-11 1l-1 13l14 -1l78 -5h38l78 5l14 1l-1 -13l-11 -1q-37 -4 -51 -17t-14 -42v-486q-1 -14 3.5 -21t18.5 -7z" />
    <glyph glyph-name="afii10041" unicode="&#x427;" horiz-adv-x="693" 
d="M643 -6l-14 1l-78 5h-38l-78 -5l-14 -1l1 13l11 1q37 4 51 16.5t14 43.5v228q-27 -12 -57 -19t-61 -10.5t-60.5 -3t-56.5 4.5q-47 8 -82 31t-53 68q-5 11 -8 26.5t-4.5 37.5t-1.5 52t2 72q0 29 -14 42t-51 17l-11 1l-1 13l14 -1l78 -5h38l78 5l14 1l-1 -13l-11 -1
q-37 -4 -51 -16t-14 -43v-121q-1 -42 15.5 -69t44 -42t62.5 -19.5t70 -1t67.5 13t54.5 22.5v217q0 29 -14 42t-51 17l-11 1l-1 13l14 -1l78 -5h38l78 5l14 1l-1 -13l-11 -1q-37 -4 -51 -16t-14 -43v-487q0 -29 14 -42.5t51 -17.5l11 -1z" />
    <glyph glyph-name="afii10042" unicode="&#x428;" horiz-adv-x="900" 
d="M847 617l-11 -1q-37 -4 -51 -23t-14 -48v-485q0 -22 15 -34.5t52 -16.5l11 -1l1 -13l-14 1q-97 9 -192.5 8.5t-192.5 0.5t-193.5 1.5t-194.5 -10.5l-14 -1l1 13l11 1q37 4 51 17.5t14 33.5v485q0 27 -14 47t-51 24l-11 1l-1 13l14 -1q21 -1 42 -6.5t43.5 -12t48.5 -12
t59 -6.5l14 1l-1 -13l-11 -1q-37 -4 -50.5 -14.5t-13.5 -39.5v-480h220v413q0 31 -13.5 43t-50.5 16h-12v14l14 -1l77 -5h38l78 5l14 1l-1 -13l-11 -1q-37 -4 -51 -17t-14 -42v-412h221v479q0 30 -14 39t-51 13l-11 1l-1 13l14 -1q31 0 55.5 5.5t47 12t44.5 12.5t47 9l14 1z
" />
    <glyph glyph-name="afii10043" unicode="&#x429;" horiz-adv-x="933" 
d="M846 618l-11 -1q-37 -4 -51 -23t-14 -48v-499l77 -1q17 7 24 17.5t18 20.5q-2 -4 -9.5 -30.5t-22.5 -63t-40 -78.5t-63 -78q-30 -29 -67.5 -51.5t-77 -36t-78.5 -16.5t-73.5 6.5t-62.5 33t-44 63.5q33 -41 75 -57t86.5 -11.5t90 26t87 54.5t76.5 75t58 88
q-94 -1 -187 -1.5t-187 -1.5q-97 -1 -194 0.5t-195 -9.5l-14 -1l1 13l11 1q37 4 51.5 17.5t13.5 33.5v486q0 27 -14 47t-51 24l-11 1l-1 13l14 -1q22 -1 42.5 -6.5t43 -12t48.5 -12t59 -6.5l14 1l-1 -13l-11 -1q-37 -4 -50.5 -14.5t-13.5 -39.5v-481l221 1v413q0 31 -14 43
t-51 16h-11l-1 14l14 -1l78 -5h38l78 5l14 1l-1 -13l-11 -1q-37 -4 -51 -17t-14 -42v-413h221v479q0 31 -14 40t-51 13l-11 1l-1 13l14 -1q31 0 55.5 5.5t47 12t44.5 12.5t47 9l14 1z" />
    <glyph glyph-name="afii10044" unicode="&#x42a;" horiz-adv-x="716" 
d="M596 299q75 -59 75 -145q0 -67 -59 -112q-59 -44 -160 -44q-12 0 -76 3q-32 1 -52 1.5t-28 0.5q-24 0 -40.5 -1.5t-37.5 -3.5l-14 -1l1 13l11 1q37 4 51 17t14 42v486q-2 19 -9 28t-18 12.5t-24.5 2.5t-26.5 -1q-10 -1 -22 -3.5t-22 -8.5q-18 -13 -51 -67l-32 -42h-21
q34 47 53 87q14 30 23 65q40 -1 73 -3l92 -3h38l78 5l14 1l-1 -13l-11 -1q-37 -4 -51 -17t-14 -42v-486q0 -35 13 -42t62 -7q86 0 136 48q45 43 45 108q0 76 -58 122q-58 47 -138 47l-25 -1v9l34 3q104 0 178 -58z" />
    <glyph glyph-name="afii10045" unicode="&#x42b;" horiz-adv-x="824" 
d="M517 152q0 -67 -59 -111.5t-160 -44.5q-12 0 -75.5 2.5t-80.5 2.5q-24 0 -40.5 -1.5t-37.5 -3.5l-14 -1l1 13l11 1q37 4 51 17t14 42v486q0 31 -14 43t-51 16l-11 1l-1 13l14 -1l78 -5h38l78 5l14 1l-1 -13l-11 -1q-37 -4 -51 -17t-14 -42v-486q0 -34 13 -41.5t62 -7.5
q86 0 136 48q45 44 45 108q0 76 -57.5 122.5t-138.5 46.5l-25 -1v9l34 3q103 0 178 -58t75 -145zM774 -5l-14 1l-78 5h-38l-78 -5l-14 -1l1 13l11 1q37 4 51 16t14 43v486q0 29 -14 42t-51 17l-11 1l-1 13l14 -1l78 -5h38l78 5l14 1l-1 -13l-11 -1q-37 -4 -51 -16t-14 -43
v-486q0 -29 14 -42t51 -17l11 -1z" />
    <glyph glyph-name="afii10046" unicode="&#x42c;" horiz-adv-x="567" 
d="M517 152q0 -67 -59 -111.5t-160 -44.5q-12 0 -75.5 2.5t-80.5 2.5q-24 0 -40.5 -1.5t-37.5 -3.5l-14 -1l1 13l11 1q37 4 51 17t14 42v486q0 31 -14 43t-51 16l-11 1l-1 13l14 -1l78 -5h38l78 5l14 1l-1 -13l-11 -1q-37 -4 -51 -17t-14 -42v-486q0 -34 13 -41.5t62 -7.5
q86 0 136 48q45 44 45 108q0 76 -57.5 122.5t-138.5 46.5l-25 -1v9l34 3q103 0 178 -58t75 -145z" />
    <glyph glyph-name="afii10047" unicode="&#x42d;" horiz-adv-x="547" 
d="M426 322q-2 54 -15.5 99.5t-39.5 87.5q-54 83 -136 83q-61 0 -104 -29q-40 -30 -55 -102l-15 -1l7 132q7 -6 15 -6q17 8 35 15t34 14q33 13 72 13q117 0 196 -97q77 -98 77 -229q0 -138 -80 -224q-78 -84 -193 -84q-41 0 -89 19q-50 18 -73 37l-12 131h19q9 -86 46 -123
q32 -28 101 -28q88 0 145 71q59 73 65 176l-155 1q-30 0 -44 -11q-18 -12 -34 -49h-20l51 137h24q-4 -12 -4 -17q0 -16 39 -16h143v0z" />
    <glyph glyph-name="afii10048" unicode="&#x42e;" horiz-adv-x="944" 
d="M611 637q121 0 202 -88q81 -87 81 -228q0 -137 -81 -237q-81 -99 -202 -99q-119 0 -199 86q-81 86 -83 225h-134v-228q0 -29 14 -42t51 -17l11 -1l1 -13l-14 1l-78 5h-38l-78 -5l-14 -1l1 13l11 1q37 4 51 16t14 43v486q0 29 -14 42t-51 17l-11 1l-1 13l14 -1l78 -5h38
l78 5l14 1l-1 -13l-11 -1q-37 -4 -51 -16t-14 -43v-162h144q18 80 70 144q83 101 202 101zM840 311q-11 127 -78 209q-72 87 -175 87q-92 0 -149 -75q-56 -74 -56 -187v-17q1 -6 1.5 -10.5t0.5 -6.5q9 -126 77 -209q70 -87 174 -87q93 0 149 75q58 74 58 187v17
q-1 6 -1.5 10.5t-0.5 6.5zM195 360h153l-3 -31h-150v31z" />
    <glyph glyph-name="afii10049" unicode="&#x42f;" horiz-adv-x="692" 
d="M-359 -89q27 -12 58.5 -19t64.5 -7q45 0 81 13q89 31 198 122q34 28 75 67.5t92 90.5q45 46 73 72.5t40 34.5q-67 24 -107.5 72.5t-40.5 112.5q0 67 59 111q58 45 160 45q12 0 75 -3q32 -1 52.5 -1.5t28.5 -0.5q24 0 40.5 1.5t37.5 3.5l14 1l-1 -13l-11 -1
q-37 -4 -51 -17t-14 -42v-486q0 -31 14 -43t51 -16l11 -1l1 -13l-14 1l-78 5h-38l-78 -5l-14 -1l1 13l11 1q37 4 51 17t14 42v203h-88q-38 -17 -150 -130q-133 -134 -211 -191q-133 -97 -250 -97q-53 0 -101 22q-50 21 -56 36zM241 447q0 -54 30 -92.5t81 -59.5h145v259
q0 34 -13 41q-14 8 -62 8q-87 0 -136 -48q-45 -44 -45 -108z" />
    <glyph glyph-name="afii10065" unicode="&#x430;" horiz-adv-x="595" 
d="M550 -5l-14 1q-15 2 -25 2.5t-15 1.5t-12 1h-16h-36q-16 0 -33.5 -2t-34.5 -3l-14 -1l1 14l11 1q35 4 45 15.5t10 43.5v6l-2 57h-235l-2 -59v-4q0 -31 10 -43t45 -16l11 -1l1 -14l-14 1q-15 2 -25 2.5t-15 1.5t-12 1h-16h-36q-16 0 -33.5 -2t-34.5 -3l-14 -1l1 14l11 1
q35 4 45 15.5t10 43.5v4q0 129 46.5 231.5t138.5 156.5q93 -54 141 -159q45 -98 45 -227v-6q0 -31 10 -43t45 -16l11 -1zM412 165q-9 112 -39.5 179t-75.5 92q-45 -24 -75 -90t-40 -181h230z" />
    <glyph glyph-name="afii10066" unicode="&#x431;" horiz-adv-x="482" 
d="M373 463l16 -80h-9q-7 17 -11.5 27t-9.5 15t-12 6.5t-19 1.5h-173v-157h99q50 -3 73 -10q109 -34 109 -126q0 -59 -40 -96q-49 -44 -140 -44l-140 1l-58 -3l-10 -1l1 10h8q27 3 37.5 12t10.5 32v359q0 22 -10.5 31.5t-37.5 11.5l-8 1l-1 10zM379 138q0 50 -32 84
q-37 35 -97 35h-94v-150q0 -61 16 -76q14 -14 79 -14q55 0 92 35q36 33 36 86z" />
    <glyph glyph-name="afii10067" unicode="&#x432;" horiz-adv-x="473" 
d="M428 136q0 -57 -40 -94q-46 -44 -138 -44l-138 1l-57 -3l-10 -1l1 9l8 1q27 3 37 12t10 31v354q0 21 -10 30.5t-37 12.5l-8 1l-1 10h203q65 0 106 -27t41 -75q0 -31 -20 -57t-55 -37q108 -34 108 -124zM344 348q0 47 -31.5 70.5t-106.5 23.5l-55 -3v-169h97q50 0 75 25
q21 21 21 53zM371 135q0 52 -32 83q-35 34 -96 34h-92v-147q0 -61 15 -75t78 -14q55 0 91 34.5t36 84.5z" />
    <glyph glyph-name="afii10068" unicode="&#x433;" horiz-adv-x="446" 
d="M386 347l-24 31q-27 35 -41.5 42.5t-55.5 7.5h-76q-27 0 -32.5 -6t-5.5 -36v-338q0 -23 10.5 -32t37.5 -12h8l1 -10l-10 1l-58 3h-28l-57 -3l-10 -1v10h9q27 3 37 12.5t10 31.5v357q0 22 -10 31t-37 12l-9 1v9h10l57 -4h28q20 0 125 3q29 1 80 2q7 -26 17 -48
q15 -31 39 -64h-15z" />
    <glyph glyph-name="afii10069" unicode="&#x434;" horiz-adv-x="565" 
d="M486 36q6 -20 18 -47t41 -62h-15l-26 30q-15 18 -25 27.5t-20.5 14.5t-23.5 6t-35 1q-37 -2 -78 -2.5t-76 0.5l-80 2q-22 0 -35 -1t-23.5 -6t-21 -14.5t-25.5 -27.5l-24 -30h-17q30 35 41.5 62t17.5 47h7q3 0 7.5 -0.5t10.5 -1.5h16l73 377v-1q0 20 -10.5 24.5t-38.5 8.5
h-11l-2 14l15 -2h2q14 -1 34 -1h31h145h30.5t33.5 1h3l13 2l-1 -14h-10q-27 -4 -37.5 -7.5t-10.5 -23.5l65 -378h16t14 1q7 0 12 1zM314 426h-60l-77 -393l56 -2t51 -1q21 0 48.5 1t55.5 2z" />
    <glyph glyph-name="afii10070" unicode="&#x435;" horiz-adv-x="457" 
d="M412 94q-20 -32 -28 -56q-4 -12 -12 -40l-118 3h-118q-16 0 -34.5 -2t-35.5 -3l-15 -1l1 15l11 1q37 4 47.5 16t10.5 45v316q0 32 -10.5 44.5t-47.5 16.5l-11 1l-1 15l15 -1q31 -3 41.5 -4t28.5 -1h235l18 -86l-17 1q-9 36 -19 44t-43 8l-130 3v-161h170v-29h-170v-167
q0 -27 5.5 -33.5t30.5 -6.5h80q39 0 54.5 10.5t38.5 49.5z" />
    <glyph glyph-name="afii10072" unicode="&#x436;" horiz-adv-x="731" 
d="M533 457l58 -3h28l59 3h8v-8h-8q-30 -6 -52 -26q-5 -5 -11.5 -15.5t-17.5 -25.5q-17 -26 -33 -48t-31 -39q-15 -13 -33 -28t-41 -32q14 0 63 -64q30 -36 61 -76.5t66 -73.5q6 -4 11 -7.5t21 -3.5h5v-12h-8l-59 6h-25l-58 -6h-9v12h9q13 0 18.5 2t9.5 6q7 5 0 19
t-18.5 29.5t-23.5 29t-15 17.5q-32 44 -49.5 66t-19.5 24q-3 2 -6.5 4t-5.5 5q-6 2 -12.5 3.5t-13.5 1.5h-8v-167q0 -11 2 -19t10 -13q6 -6 37 -12h5v-2v-6h-8l-59 3h-25l-57 -3h-9h-3l3 6v2h6q30 6 37 12q7 5 9 13t2 19v167h-8q-7 0 -13.5 -1.5t-12.5 -3.5q-2 -3 -5.5 -5
t-5.5 -4t-20 -24t-50 -66q-3 -4 -15 -17.5t-23.5 -29t-18.5 -29.5t0 -19q4 -4 9.5 -6t18.5 -2h9v-12h-9l-58 6h-25l-58 -6h-12v12h9q13 0 18.5 3.5t9.5 7.5q38 33 69 73.5t61 76.5q48 64 64 64q-24 17 -41.5 32t-33.5 28q-15 17 -31 39t-33 48q-11 15 -17 25.5t-11 15.5
q-21 20 -52 26h-9v8h9l58 -3h29l57 3h8v-8h-8q-13 -3 -22 -5t-15 -4q-9 -2 -12 -6.5t-3 -10.5q0 -40 70 -113q36 -39 66.5 -60t56.5 -21v176q0 15 -2 18q-2 4 -3 8t-6 6q-2 2 -8 4l-12 4q-5 0 -9 2t-8 2h-6l-3 8h3h9l57 -3h25l59 3h8h3l-3 -8h-5q-5 0 -9 -2t-9 -2
q-6 -2 -11.5 -4t-7.5 -4q-5 -2 -6.5 -6t-3.5 -8q-2 -3 -2 -18v-176q26 0 56.5 21t67.5 60q70 75 70 113q0 6 -4.5 10.5t-10.5 6.5q-7 2 -16 4t-22 5h-9v8h9z" />
    <glyph glyph-name="afii10073" unicode="&#x437;" horiz-adv-x="456" 
d="M378 220q17 -17 24.5 -38.5t7.5 -45.5q0 -28 -11 -52t-35 -45q-21 -21 -50.5 -31t-63.5 -10q-18 0 -35 2.5t-31 7.5t-27.5 12.5t-26.5 17.5q-14 12 -28 12q-18 0 -40 -15l-5 -5l-9 6l9 6q14 11 20 14q8 6 14 11t11 9l22 18q2 2 5 6.5t11 10.5q9 7 23 23l10 8l3 -7l-3 -6
q-19 -16 -19 -32q0 -9 5 -16q0 -2 4 -12q8 -11 16.5 -20t21.5 -18q28 -15 61 -15q43 0 67 29q13 15 20 32.5t7 40.5q0 11 -1 15q-6 45 -38 72q-14 11 -26 18.5t-40 6.5q-10 -2 -14 -9t-6 -22v-5l-6 -1v7l3 38v18l-3 38v7l6 -1v-5q2 -17 8 -24t20 -7q13 -1 27 3.5t28 17.5
q25 21 30 60v12q0 17 -5 32.5t-17 26.5q-19 25 -54 25q-30 0 -50 -14q-11 -5 -19 -13.5t-13 -17.5q-2 -2 -3 -4.5t-2 -4.5q-4 -8 -4 -13q0 -6 4 -12.5t12 -14.5l4 -3l-5 -6l-6 6q-8 6 -12 11t-7 8q-12 9 -14 13l-18 14q-10 10 -21 17l-7.5 5t-9.5 8l-9 5l8 4l6 -4
q16 -12 31 -12q12 0 26 10q23 18 44 25q23 8 54 8q57 0 95 -34q39 -35 39 -81q0 -41 -28 -69q-12 -12 -30 -22q12 -6 23 -14z" />
    <glyph glyph-name="afii10074" unicode="&#x438;" horiz-adv-x="517" 
d="M471 -4l-10 1l-50 3h-24l-50 -3l-9 -1v9l8 1q23 3 32 11.5t9 31.5v236l-236 -169v-67q0 -21 9.5 -30.5t32.5 -12.5l7 -1l1 -9l-9 1l-51 3h-24l-51 -3l-9 -1l1 9l7 1q24 3 33 11.5t9 31.5v353q0 21 -9 30.5t-33 11.5l-7 1l-1 10l9 -1l51 -4h24l51 4l9 1l-1 -10l-7 -1
q-23 -2 -32.5 -11t-9.5 -31v-217l236 170v47q0 21 -9 30.5t-32 11.5l-8 1v10l9 -1l50 -4h24l50 4l10 1l-1 -10l-7 -1q-24 -2 -33 -11t-9 -31v-353q0 -21 9 -30.5t33 -12.5l7 -1zM377 309v23l-236 -170v-24z" />
    <glyph glyph-name="afii10075" unicode="&#x439;" horiz-adv-x="515" 
d="M471 -4l-10 1l-50 3h-24l-50 -3l-9 -1v9l8 1q23 3 32 11.5t9 31.5v236l-236 -169v-67q0 -21 9.5 -30.5t32.5 -12.5l7 -1l1 -9l-9 1l-51 3h-24l-51 -3l-9 -1l1 9l7 1q24 3 33 11.5t9 31.5v353q0 21 -9 30.5t-33 11.5l-7 1l-1 10l9 -1l51 -4h24l51 4l9 1l-1 -10l-7 -1
q-23 -2 -32.5 -11t-9.5 -31v-217l236 170v47q0 21 -9 30.5t-32 11.5l-8 1v10l9 -1l50 -4h24l50 4l10 1l-1 -10l-7 -1q-24 -2 -33 -11t-9 -31v-353q0 -21 9 -30.5t33 -12.5l7 -1zM377 309v23l-236 -170v-24zM229 587q-20 -20 -28.5 -30t5.5 -25q18 -19 50 -21q19 0 39 8
q14 10 19 18.5t3.5 16.5t-8 16.5t-15.5 17.5q16 -2 38.5 -13t36.5 -30q-12 -13 -27.5 -24t-37.5 -19q-28 -6 -48.5 -6t-43.5 6q-19 5 -33.5 15.5t-25.5 31.5q8 10 29.5 22t46.5 16z" />
    <glyph glyph-name="afii10076" unicode="&#x43a;" horiz-adv-x="531" 
d="M700 -45q-6 -16 -37.5 -26.5t-74.5 -10.5q-94 0 -195 86q-89 100 -177 201q-11 8 -28 8q-7 -1 -10 -1v-140q0 -32 10 -44t46 -16l11 -1l1 -14l-14 1q-31 3 -41 4t-29 1h-32q-17 0 -34.5 -2t-35.5 -3l-14 -1l1 14l11 1q36 4 46 15.5t10 44.5v310q0 32 -10 44.5t-46 16.5
l-11 1l-1 14l14 -1q31 -3 41 -4t29 -1h32q17 0 34.5 2t35.5 3l14 1l-1 -14l-11 -1q-36 -4 -46 -16t-10 -45v-150q47 0 117 73t70 108q0 14 -12 20.5t-45 9.5l-11 1l-1 14l14 -1q31 -3 41 -4t29 -1h13q16 0 34 2t36 3l14 1l-1 -14l-11 -1q-32 -3 -56 -30q-20 -30 -25 -38
q-31 -44 -61.5 -76t-62.5 -55q77 -103 145 -181q75 -85 151 -110q34 -12 72 -12q42 0 72 14z" />
    <glyph glyph-name="afii10077" unicode="&#x43b;" horiz-adv-x="536" 
d="M491 -5l-10 1l-57 3h-28l-57 -3l-10 -1v10h8q27 3 37.5 12t10.5 32v377h-119l-104 -380q0 -21 5 -29.5t32 -11.5h8l1 -10l-11 1l-57 3h-28l-57 -3l-10 -1l1 10h8q13 2 30 12t28 28q14 23 22 55t19 67t20.5 70.5t17 68t14 58.5t11.5 41q0 21 -10.5 30.5t-37.5 12.5l-8 1
l-1 9h11l57 -4h197l57 4h10v-9l-8 -1q-27 -3 -37.5 -11.5t-10.5 -31.5v-356q0 -22 10.5 -31.5t37.5 -12.5h8v-10z" />
    <glyph glyph-name="afii10078" unicode="&#x43c;" horiz-adv-x="677" 
d="M632 -5l-10 1l-58 3h-27l-58 -3l-10 -1l1 9l7 1q28 3 38 12t10 31v362l-161 -49v-313q0 -21 10 -30.5t37 -12.5l8 -1l1 -9l-10 1l-58 3h-27l-58 -3l-10 -1l1 9l7 1q28 3 38 12t10 31v313l-161 49v-362q0 -21 10 -30.5t37 -12.5l8 -1l1 -9l-10 1l-58 3h-27l-58 -3l-10 -1
l1 9l8 1q27 3 37 12t10 31v357q0 21 -10 31t-37 12l-8 1l-1 9h10q31 -3 40 -5q23 -4 66 -18l177 -54l178 54q37 13 59.5 17t46.5 6h10l-1 -9l-8 -1q-27 -2 -37 -11.5t-10 -31.5v-357q0 -21 10 -30.5t37 -12.5l8 -1z" />
    <glyph glyph-name="afii10079" unicode="&#x43d;" horiz-adv-x="569" 
d="M524 -5l-10 1l-57 3h-28l-57 -3l-10 -1l1 9l8 1q27 3 37.5 11.5t10.5 32.5v166h-268v-166q0 -22 10.5 -31.5t37.5 -12.5l7 -1l1 -9l-10 1l-57 3h-28l-57 -3l-10 -1l1 9l8 1q26 3 37 11.5t11 32.5v354q0 22 -11 31.5t-37 12.5l-8 1l-1 9l10 -1l57 -3h28l57 3l10 1l-1 -9
l-7 -1q-27 -3 -37.5 -11.5t-10.5 -32.5v-118h268v118q0 22 -10.5 31.5t-37.5 12.5l-8 1l-1 9l10 -1l57 -3h28l57 3l10 1v-9l-8 -1q-27 -3 -37.5 -11.5t-10.5 -32.5v-354q0 -22 10.5 -31.5t37.5 -12.5l8 -1v-9zM419 238v23h-268v-23h268z" />
    <glyph glyph-name="afii10080" unicode="&#x43e;" horiz-adv-x="613" 
d="M568 228q0 -100 -74.5 -171.5t-186.5 -71.5q-111 0 -185 62q-77 65 -77 167q0 99 75 171t187 72q111 0 186 -63.5t75 -165.5zM505 221q-10 87 -68 144q-61 60 -151 60q-80 0 -129 -52t-49 -130q0 -14 1 -22q9 -86 69.5 -145.5t149.5 -59.5q79 0 128.5 52.5t49.5 130.5
q0 14 -1 22z" />
    <glyph glyph-name="afii10081" unicode="&#x43f;" horiz-adv-x="537" 
d="M492 -5l-10 1l-58 3h-27l-58 -3l-10 -1l1 10h8q27 3 37.5 12t10.5 32v378h-235v-378q0 -22 10.5 -31.5t37.5 -12.5h8l1 -10l-10 1l-58 3h-27l-58 -3l-10 -1l1 10h8q27 3 37.5 12t10.5 32v356q0 22 -10.5 31.5t-37.5 12.5h-8l-1 10l10 -1l58 -4h311l58 4l10 1l-1 -10h-8
q-27 -3 -37.5 -12t-10.5 -32v-356q0 -22 10.5 -31.5t37.5 -12.5h8z" />
    <glyph glyph-name="afii10082" unicode="&#x440;" horiz-adv-x="461" 
d="M416 340q0 -64 -56.5 -106t-134.5 -42l-21 1v13h13q56 0 94.5 32t38.5 86q0 45 -32 77t-91 32q-28 0 -38.5 -2t-10.5 -30v-330q0 -32 10.5 -44.5t46.5 -16.5l11 -1l1 -14l-14 1q-31 3 -41.5 4t-28.5 1h-34q-16 0 -34 -2t-36 -3l-14 -1l1 14l11 1q36 4 46.5 16t10.5 45
v311q0 32 -10.5 44.5t-46.5 16.5l-11 1l-1 14l14 -1q31 -3 41.5 -4t28.5 -1h7q6 0 46 1.5t69 1.5q75 0 120 -33t45 -82z" />
    <glyph glyph-name="afii10083" unicode="&#x441;" horiz-adv-x="507" 
d="M462 135l-11 -94q-22 -15 -67.5 -28t-83.5 -13q-108 0 -180 60q-75 64 -75 163q0 96 73 166t182 70q37 0 68 -9.5t63 -20.5q8 0 15 4l6 -96l-13 1q-16 53 -52.5 74t-95.5 21q-79 0 -129.5 -62.5t-50.5 -147.5q0 -88 58 -142.5t140 -54.5q62 0 92 21q37 25 44 88h17z" />
    <glyph glyph-name="afii10084" unicode="&#x442;" horiz-adv-x="515" 
d="M470 484l-35 -98h-11q2 8 2 12q0 8 -6.5 10.5t-26.5 2.5h-111v-364q0 -21 9.5 -30t36.5 -12l7 -1l1 -9l-10 1l-55 3h-27l-55 -3l-10 -1l1 9l7 1q27 3 36.5 11.5t9.5 30.5v364h-121q-21 0 -32.5 -7.5t-26.5 -38.5h-8l35 99h11q-2 -8 -2 -12q0 -8 6.5 -11t25.5 -3h112v79
q0 21 -9.5 30t-36.5 12l-7 1l-1 9l10 -1l55 -4h27l55 4l10 1l-1 -9l-7 -1q-27 -3 -36.5 -11.5t-9.5 -30.5v-79h121q21 0 32.5 8t25.5 38h9z" />
    <glyph glyph-name="afii10085" unicode="&#x443;" horiz-adv-x="600" 
d="M550 458l-1 -13l-8 -1q-30 -5 -47 -23q-9 -9 -20 -25.5t-23 -42.5l-104 -265q-23 -53 -42 -97.5t-41.5 -79.5t-51 -59.5t-68.5 -36.5q-27 -8 -53.5 -9t-50 6.5t-42.5 24.5t-31 45q31 -22 62.5 -29.5t61.5 -4t57 17t50 32.5q19 16 34.5 35.5t27 39t19.5 37.5t13 31
l-160 325q-26 50 -38 61q-12 12 -43 17l-9 1l-1 13l11 -1l68 -5h29l69 5l11 1l-1 -13l-9 -1q-24 -2 -35.5 -6.5t-11.5 -18.5q0 -7 5 -20l143 -289l110 272q5 8 6.5 15.5t1.5 13.5q0 15 -14 22t-37 11l-8 1l-1 13l11 -1l60 -5h30l60 5z" />
    <glyph glyph-name="afii10086" unicode="&#x444;" horiz-adv-x="603" 
d="M400 450q72 0 116 -32q42 -33 42 -81q0 -62 -54 -104q-52 -42 -128 -42l-25 3v6l18 -1q60 0 100 33q42 33 42 89q0 47 -33 77q-35 35 -98 35q-36 0 -44 -5q-10 -10 -10 -30v-350q0 -22 10.5 -31t36.5 -12h8l1 -10l-10 1l-57 3h-27l-56 -3l-11 -1l1 10h8q26 3 36.5 12
t10.5 31v350q0 19 -9 30q-5 2 -16 3.5t-29 1.5q-63 0 -98 -35q-32 -30 -32 -77q0 -56 41 -89q39 -33 100 -33l17 1v-6l-24 -3q-76 0 -128 42q-54 42 -54 104q0 47 42 81q43 32 116 32q14 0 27 -1t27 -1q14 -1 25.5 -1t18.5 -1q8 1 19 1t25 1q15 0 28 1t27 1z" />
    <glyph glyph-name="afii10087" unicode="&#x445;" horiz-adv-x="621" 
d="M576 -5l-14 1q-31 3 -41 4t-29 1h-34q-17 0 -38 -2t-38 -3l-15 -1l1 14l12 1q29 3 29 20q0 9 -5 17t-16 24l-90 120l-99 -120q-20 -26 -20 -39q0 -18 35 -22l11 -1l1 -14l-14 1q-31 3 -41 4t-29 1h-13q-16 0 -34 -2t-36 -3l-14 -1l1 14l11 1q33 3 59 22q17 12 38 39
l122 150l-106 143q-36 48 -56 61.5t-46 16.5l-12 1l-1 14l15 -1q30 -3 40.5 -4t28.5 -1h42q16 0 34 2t36 3l14 1l-1 -14l-11 -1q-35 -4 -35 -20q0 -8 5.5 -17.5t14.5 -22.5l80 -109l88 109q7 8 10 13q10 14 10 25q0 8 -8 14.5t-25 7.5l-11 1l-1 14l14 -1q31 -3 41 -4t28 -1
h14q16 0 34 2t35 3l15 1l-1 -14l-12 -1q-33 -3 -59 -21q-17 -13 -39 -39l-111 -138l128 -173q19 -27 36 -39q25 -19 60 -22l11 -1z" />
    <glyph glyph-name="afii10088" unicode="&#x446;" horiz-adv-x="566" 
d="M451 26l41 -1q13 5 18 13t13 15q-2 -3 -7 -22.5t-16.5 -47t-29.5 -58.5t-46 -57q-34 -32 -77.5 -52.5t-86.5 -23.5t-78.5 14t-53.5 61q24 -30 54.5 -41.5t63.5 -8.5t66.5 19t64 40.5t56 55.5t42.5 64q-13 0 -25 -0.5t-26 0.5h-312l-57 -3l-11 -1l1 9l8 1q27 3 37 12.5
t10 31.5v358q0 23 -10 31.5t-37 10.5l-8 1l-1 10l11 -1l57 -4h28l57 4l10 1v-10l-9 -1q-27 -2 -37 -11.5t-10 -30.5v-379h234v379q0 23 -10 31.5t-37 10.5l-9 1v10l10 -1l57 -4h28l57 4l11 1l-1 -10l-8 -1q-27 -2 -37 -11.5t-10 -30.5v-358q-1 -11 2 -15.5t13 -4.5z" />
    <glyph glyph-name="afii10089" unicode="&#x447;" horiz-adv-x="526" 
d="M479 -6l-10 1l-57 3h-28l-56 -3l-11 -1l1 9l8 1q27 3 37 12t10 32v166q-39 -17 -85.5 -21.5t-85.5 1.5q-34 5 -59.5 22t-38.5 50q-8 16 -10 46t1 91q0 21 -10.5 30.5t-36.5 12.5l-8 1l-1 9l10 -1l57 -3h28l57 3l10 1l-1 -9l-8 -1q-27 -3 -37 -11.5t-10 -31.5v-88
q-1 -46 25.5 -68t63.5 -27t76 3t63 22v158q0 21 -10 30.5t-37 12.5l-8 1l-1 9l11 -1l56 -3h28l57 3l10 1l-1 -9l-8 -1q-26 -3 -36.5 -11.5t-10.5 -31.5v-355q0 -21 10.5 -31t36.5 -13l8 -1z" />
    <glyph glyph-name="afii10090" unicode="&#x448;" horiz-adv-x="673" 
d="M628 447l-8 -1q-26 -3 -36.5 -16.5t-10.5 -35.5v-352q0 -16 11 -25t38 -12l8 -1l1 -9l-11 1q-70 6 -139.5 6h-139.5q-71 1 -140.5 1.5t-141.5 -7.5l-10 -1l1 9l8 1q26 3 36.5 13t10.5 24v352q0 20 -10.5 34.5t-36.5 17.5l-8 1l-1 9l10 -1q16 0 31 -4t31.5 -9t35 -9
t42.5 -5l10 1v-9l-8 -1q-27 -3 -37 -10.5t-10 -28.5v-349h160v300q0 23 -10 31.5t-36 11.5h-9v10l10 -1l56 -3h27l57 3l10 1v-9l-8 -1q-27 -3 -37.5 -12.5t-10.5 -30.5v-299h161v348q0 22 -10.5 28.5t-36.5 9.5h-8l-1 10l10 -1q22 0 40 4t34.5 8.5t32.5 9t34 6.5l10 1z" />
    <glyph glyph-name="afii10091" unicode="&#x449;" horiz-adv-x="695" 
d="M626 449l-9 -1q-26 -2 -36.5 -15.5t-10.5 -35.5v-362l56 -1q13 5 18 13t13 15q-2 -3 -7 -22t-16.5 -45.5t-29.5 -57t-46 -56.5q-33 -32 -76 -52t-85 -23t-77 14t-53 61q36 -45 85 -49.5t97.5 18.5t91.5 65.5t69 92.5q-68 0 -135.5 -1t-135.5 -3q-71 0 -141 1.5t-141 -7.5
h-10l1 10l8 1q27 2 37.5 12t9.5 24v352q0 20 -10 34.5t-37 16.5l-8 1l-1 10l10 -1q16 0 31 -4t31.5 -9t35 -9t42.5 -5l10 1l-1 -11h-8q-26 -3 -36.5 -10t-10.5 -28v-349h161v300q0 23 -10 31.5t-37 10.5h-8l-1 11l11 -1l56 -3h27l57 3l10 1l-1 -10l-8 -1q-26 -2 -36 -11.5
t-10 -30.5v-300h160v348q0 22 -10.5 28.5t-36.5 8.5l-9 1v11l10 -1q22 0 40 4t34 8.5l32 9t34 6.5l10 1v-10z" />
    <glyph glyph-name="afii10092" unicode="&#x44a;" horiz-adv-x="537" 
d="M438 216q54 -42 54 -105q0 -50 -43 -81q-43 -32 -116 -32h-18.5t-36.5 2q-23 1 -37.5 1h-20.5q-17 0 -29 -0.5t-28 -2.5l-10 -1l1 9l8 1q26 3 36.5 12.5t10.5 30.5v353q-1 14 -6.5 20.5t-13.5 8.5t-17.5 1.5t-19.5 -0.5q-7 0 -15.5 -2t-15.5 -6q-8 -5 -17 -17.5
t-21 -31.5l-23 -30h-15q25 33 38 63q11 21 17 47q16 -1 29 -1.5t24 -0.5l67 -2h28l56 3l10 1v-10h-8q-27 -3 -37.5 -12.5t-10.5 -30.5v-353q0 -26 10 -30q9 -6 45 -6q62 0 99 35q32 32 32 79q0 56 -42 88q-40 34 -100 34h-18v6l25 2q77 0 129 -42z" />
    <glyph glyph-name="afii10093" unicode="&#x44b;" horiz-adv-x="617" 
d="M385 109q0 -48 -43 -80.5t-116 -32.5q-9 0 -55.5 1.5t-58.5 1.5q-18 0 -30 -1t-27 -2l-10 -1l1 9l8 1q27 3 37 12.5t10 30.5v354q0 22 -10 31t-37 12l-8 1l-1 9l10 -1l57 -3h28l56 3l11 1l-1 -9l-8 -1q-27 -3 -37 -12.5t-10 -30.5v-354q0 -25 9 -30.5t45 -5.5q63 0 99 35
q33 32 33 79q0 55 -42 89t-101 34l-18 -1v7l25 2q75 0 129.5 -42t54.5 -106zM572 -5l-10 1l-57 3h-28l-56 -3l-11 -1l1 9l8 1q27 3 37 12t10 31v354q0 21 -10 30.5t-37 12.5l-8 1l-1 9l11 -1l56 -3h28l57 3l10 1l-1 -9l-8 -1q-27 -3 -37 -12t-10 -31v-354q0 -21 10 -30.5
t37 -12.5l8 -1z" />
    <glyph glyph-name="afii10094" unicode="&#x44c;" horiz-adv-x="433" 
d="M388 110q0 -49 -43.5 -81.5t-117.5 -32.5q-9 0 -55.5 1.5t-58.5 1.5q-18 0 -30 -1t-28 -2l-10 -1l1 10h8q27 3 37.5 12.5t10.5 31.5v356q0 23 -10.5 32t-37.5 12h-8l-1 10l10 -1l58 -3h28l57 3l10 1l-1 -10h-8q-27 -3 -37 -12.5t-10 -31.5v-356q0 -25 9.5 -30.5
t45.5 -5.5q63 0 100 35q33 32 33 79q0 56 -42.5 90t-101.5 34l-19 -1v7l25 2q76 0 131 -42.5t55 -106.5z" />
    <glyph glyph-name="afii10095" unicode="&#x44d;" horiz-adv-x="414" 
d="M318 232q-2 38 -11.5 71.5t-28.5 63.5q-39 60 -99 60q-45 0 -75 -21q-29 -21 -40 -74h-11l5 95q3 -2 5.5 -3t5.5 -1q13 6 26 11t24 10q24 10 52 10q85 0 142 -71q56 -71 56 -166q0 -99 -58 -162q-57 -61 -140 -61q-30 0 -64 14q-37 12 -53 27l-9 95h14q6 -61 33 -90
q25 -20 73 -20q65 0 105 52q43 51 48 127l-113 1q-21 0 -32 -8q-12 -8 -24 -36h-15l37 100h18q-2 -5 -2.5 -8t-0.5 -5q0 -11 28 -11h104v0z" />
    <glyph glyph-name="afii10096" unicode="&#x44e;" horiz-adv-x="698" 
d="M447 458q87 0 147 -64q58 -62 58 -165q0 -101 -58 -172q-60 -72 -147 -72t-144 62q-59 62 -61 164h-97v-166q0 -21 10.5 -30.5t36.5 -12.5h8l1 -10l-10 1l-57 4h-27l-57 -4l-10 -1l1 10h8q26 3 36.5 11.5t10.5 31.5v353q0 21 -10.5 30.5t-36.5 12.5h-8l-1 10l10 -1l57 -4
h27l57 4l10 1l-1 -10h-8q-26 -3 -36.5 -11.5t-10.5 -31.5v-118h105q12 58 50 105q61 73 147 73zM613 221q-7 91 -56 152q-53 63 -127 63q-67 0 -109 -54q-40 -53 -40 -136v-12q1 -5 1 -8v-5q8 -90 56 -151q51 -63 126 -63q69 0 108 54q43 53 43 136v12l-1.5 7.5t-0.5 4.5z
M145 257h111l-2 -22h-109v22z" />
    <glyph glyph-name="afii10097" unicode="&#x44f;" horiz-adv-x="521" 
d="M-264 -69q43 -19 91 -19q31 0 60 9q67 24 146 90q25 21 55.5 50t68.5 67q32 34 53 53.5t30 25.5q-50 18 -79.5 53.5t-29.5 83.5q0 50 43 82q45 34 119 34q8 0 55 -3q24 0 39 -0.5t21 -0.5q18 0 30 1t28 3h10l-1 -9l-8 -1q-27 -3 -37.5 -12.5t-10.5 -31.5v-359
q0 -23 10.5 -32t37.5 -12h8l1 -10l-10 1l-58 3h-28l-58 -3l-10 -1l1 10h8q27 3 37.5 12.5t10.5 31.5v150h-65q-29 -12 -111 -96q-99 -101 -156 -141q-99 -72 -185 -72q-39 0 -75 16q-37 17 -41 27zM180 327q0 -39 22 -68t60 -44h107v191q0 25 -10 31q-5 2 -16 4t-30 2
q-64 0 -100 -36q-33 -32 -33 -80z" />
    <glyph glyph-name="afii10071" unicode="&#x451;" horiz-adv-x="434" 
d="M384 87q-17 -31 -24 -53q-5 -24 -9 -38l-116 3h-117l-58 -3l-10 -1l1 10h8q27 3 37.5 12t10.5 32v362q0 21 -10.5 31t-37.5 13l-8 1l-1 9l10 -1l58 -3h233l14 -81h-11q-9 38 -19 46.5t-45 8.5l-132 1v-169h168v-24h-168v-174q0 -31 5.5 -37t32.5 -6h79q40 0 56.5 11
t39.5 49zM201 560q-32 -13 -45 -45h-6q-14 32 -46 45v6q32 14 46 46h6q13 -32 45 -46v-6zM339 560q-32 -13 -45 -45h-6q-13 32 -45 45v6q32 14 45 46h6q13 -32 45 -46v-6z" />
    <glyph glyph-name="afii10099" unicode="&#x452;" horiz-adv-x="631" 
d="M566 -5l-14 1l-40 4t-28 1h-33q-16 0 -33.5 -2t-34.5 -3l-14 -1l1 14l11 1q35 4 45 15.5t10 43.5v128h-241v-128q0 -31 10 -43t45 -16l11 -1l1 -14l-14 1l-40 4t-28 1h-33q-16 0 -33.5 -2t-34.5 -3l-14 -1l1 14l11 1q35 4 45 15.5t10 43.5v304q0 31 -10 43t-45 16l-11 1
l-1 14l14 -1l40 -4t28 -1h33q16 0 33.5 2t34.5 3l14 1l-1 -14l-11 -1q-35 -4 -45 -15.5t-10 -43.5v-86h241v86q0 31 -10 43t-45 16l-11 1l-1 14l14 -1l40 -4t28 -1h33q16 0 33.5 2t34.5 3l14 1l-1 -14l-11 -1q-35 -4 -45 -15.5t-10 -43.5v-304q0 -31 10 -43t45 -16l11 -1z
M436 226v32h-241v-32h241z" />
    <glyph glyph-name="afii10100" unicode="&#x453;" horiz-adv-x="833" 
 />
    <glyph glyph-name="afii10101" unicode="&#x454;" horiz-adv-x="424" 
d="M101 232h104q28 0 28 11q0 2 -0.5 5t-2.5 8h18l37 -100h-15q-12 28 -24 36q-11 8 -32 8l-113 -1q5 -76 48 -127q40 -52 105 -52q48 0 73 20q27 29 33 90h14l-9 -95q-16 -15 -53 -27q-34 -14 -64 -14q-83 0 -140 61q-58 63 -58 162q0 95 56 166q57 71 142 71q28 0 52 -10
q11 -5 24 -10t26 -11q3 0 5.5 1t5.5 3l5 -95h-11q-11 53 -40 74q-30 21 -75 21q-60 0 -99 -60q-19 -30 -28.5 -63.5t-11.5 -71.5z" />
    <glyph glyph-name="afii10102" unicode="&#x455;" horiz-adv-x="397" 
d="M343 115q0 -52 -45 -91t-114 -39q-37 0 -71 13q-20 9 -40 19l-16 94h14q24 -101 113 -101q45 0 73.5 22t28.5 62q0 37 -29 64q-23 21 -89 57q-49 28 -73 53q-31 33 -31 71q0 55 35.5 86.5t95.5 31.5q26 0 69 -16q24 -9 42 -9l13 -72h-12q-17 41 -52 59q-27 14 -64 14
q-32 0 -54 -21t-22 -52q0 -33 40 -60q8 -6 49 -29q90 -49 114.5 -81t24.5 -75z" />
    <glyph glyph-name="afii10103" unicode="&#x456;" horiz-adv-x="345" 
d="M232 561q-40 -16 -56 -56h-7q-16 40 -56 56v7q40 16 56 56h7q16 -40 56 -56v-7zM271 -5l-14 1l-40 4t-28 1h-33q-16 0 -33.5 -2t-34.5 -3l-14 -1l1 14l11 1q35 4 45 15.5t10 43.5v304q0 31 -10 43t-45 16l-11 1l-1 14l14 -1l40 -4t28 -1h33q16 0 33.5 2t34.5 3l14 1
l-1 -14l-11 -1q-35 -4 -45 -15.5t-10 -43.5v-304q0 -31 10 -43t45 -16l11 -1z" />
    <glyph glyph-name="afii10104" unicode="&#x457;" horiz-adv-x="284" 
d="M133 536q-32 -14 -46 -46h-5q-13 32 -45 46v6q32 13 45 44h5q14 -31 46 -44v-6zM215 -5l-10 1l-57 3h-28l-57 -3l-11 -1l1 9l9 1q26 3 36.5 12t10.5 32v357q0 21 -10.5 30.5t-36.5 12.5l-9 1l-1 10l11 -2l57 -3h28l57 3l10 2v-10l-8 -1q-28 -3 -38 -11.5t-10 -31.5v-357
q0 -22 10 -31.5t38 -12.5l8 -1v-9zM242 536q-32 -14 -45 -46h-6q-13 32 -45 46v6q32 13 45 44h6q13 -31 45 -44v-6z" />
    <glyph glyph-name="afii10105" unicode="&#x458;" horiz-adv-x="345" 
d="M232 561q-40 -16 -56 -56h-7q-16 40 -56 56v7q40 16 56 56h7q16 -40 56 -56v-7zM271 447l-1 -14l-11 -1q-35 -4 -45 -15.5t-10 -43.5v-460l-63 -74v534q0 31 -10 43t-45 16l-11 1l-1 14l14 -1l40 -4t28 -1h33q16 0 33.5 2t34.5 3z" />
    <glyph glyph-name="afii10106" unicode="&#x459;" horiz-adv-x="833" 
 />
    <glyph glyph-name="afii10107" unicode="&#x45a;" horiz-adv-x="833" 
 />
    <glyph glyph-name="afii10108" unicode="&#x45b;" horiz-adv-x="631" 
d="M566 -5l-14 1l-40 4t-28 1h-33q-16 0 -33.5 -2t-34.5 -3l-14 -1l1 14l11 1q35 4 45 15.5t10 43.5v128h-241v-128q0 -31 10 -43t45 -16l11 -1l1 -14l-14 1l-40 4t-28 1h-33q-16 0 -33.5 -2t-34.5 -3l-14 -1l1 14l11 1q35 4 45 15.5t10 43.5v304q0 31 -10 43t-45 16l-11 1
l-1 14l14 -1l40 -4t28 -1h33q16 0 33.5 2t34.5 3l14 1l-1 -14l-11 -1q-35 -4 -45 -15.5t-10 -43.5v-86h241v86q0 31 -10 43t-45 16l-11 1l-1 14l14 -1l40 -4t28 -1h33q16 0 33.5 2t34.5 3l14 1l-1 -14l-11 -1q-35 -4 -45 -15.5t-10 -43.5v-304q0 -31 10 -43t45 -16l11 -1z
M436 226v32h-241v-32h241z" />
    <glyph glyph-name="afii10109" unicode="&#x45c;" horiz-adv-x="833" 
 />
    <glyph glyph-name="afii10110" unicode="&#x45e;" horiz-adv-x="833" 
 />
    <glyph glyph-name="afii10193" unicode="&#x45f;" horiz-adv-x="833" 
 />
    <glyph glyph-name="afii10050" unicode="&#x490;" horiz-adv-x="585" 
d="M192 619l158 1q56 0 75 10q20 11 57 58l32 42h21q-34 -47 -53 -87q-7 -14 -12.5 -29t-10.5 -33l-214 4q-36 0 -43 -9q-7 -7 -7 -49v-460q0 -31 14 -43t51 -16l11 -1l1 -13l-14 1l-78 5h-38l-78 -5l-14 -1l1 13l11 1q37 4 51 17t14 42v486q0 31 -14 43t-51 16l-11 1l-1 13
l14 -1l78 -5h38q7 0 12 -1z" />
    <glyph glyph-name="afii10098" unicode="&#x491;" horiz-adv-x="427" 
d="M145 455l116 1q42 0 56 7q14 10 42 43l23 31h16q-12 -17 -22 -32.5t-17 -31.5q-5 -11 -9.5 -21.5t-7.5 -24.5l-158 3q-26 0 -32 -6q-5 -7 -5 -37v-339q0 -23 10.5 -32t37.5 -12h8l1 -10l-10 1l-58 3h-28l-58 -3l-10 -1l1 10h8q27 3 37.5 12.5t10.5 31.5v359
q0 23 -10.5 31.5t-37.5 11.5l-8 1l-1 10l10 -1l58 -4h28q5 0 9 -1z" />
    <glyph glyph-name="endash" unicode="&#x2013;" horiz-adv-x="527" 
d="M527 284h-527v46h527v-46z" />
    <glyph glyph-name="emdash" unicode="&#x2014;" horiz-adv-x="827" 
d="M827 284h-827v46h827v-46z" />
    <glyph glyph-name="quoteleft" unicode="&#x2018;" horiz-adv-x="270" 
d="M200 568q-29 -11 -42 -28t-13 -39q0 -17 6.5 -34t20.5 -37l-11 -8q-16 13 -37 52q-47 88 -54 94v8q45 17 61 61h8q17 -45 61 -61v-8z" />
    <glyph glyph-name="quoteright" unicode="&#x2019;" horiz-adv-x="270" 
d="M200 568q-13 -11 -42.5 -71t-48.5 -75l-11 8q12 17 19.5 36t7.5 35q0 22 -13 39t-42 28v8q21 7 37 23.5t24 37.5h8q7 -21 23.5 -37t37.5 -24v-8z" />
    <glyph glyph-name="quotesinglbase" unicode="&#x201a;" horiz-adv-x="469" 
d="M392 228q0 -100 -45 -171.5t-112 -71.5q-68 0 -113 63t-45 166q0 99 45.5 171t112.5 72t112 -63.5t45 -165.5zM336 221q0 85 -32 144.5t-80 59.5q-43 0 -67.5 -58.5t-24.5 -145.5q0 -84 33 -144.5t81 -60.5q43 0 66.5 58.5t23.5 146.5z" />
    <glyph glyph-name="quotedblleft" unicode="&#x201c;" horiz-adv-x="470" 
d="M400 568q-29 -11 -42 -28t-13 -39q0 -17 6.5 -34t20.5 -37l-11 -8q-16 13 -37 52q-47 88 -54 94v8q45 17 61 61h8q17 -45 61 -61v-8zM200 568q-29 -11 -42 -28t-13 -39q0 -17 6.5 -34t20.5 -37l-11 -8q-16 13 -37 52q-47 88 -54 94v8q45 17 61 61h8q17 -45 61 -61v-8z
" />
    <glyph glyph-name="quotedblright" unicode="&#x201d;" horiz-adv-x="470" 
d="M400 568q-13 -11 -42.5 -71t-48.5 -75l-11 8q12 17 19.5 36t7.5 35q0 22 -13 39t-42 28v8q21 7 37 23.5t24 37.5h8q7 -21 23.5 -37t37.5 -24v-8zM200 568q-13 -11 -42.5 -71t-48.5 -75l-11 8q12 17 19.5 36t7.5 35q0 22 -13 39t-42 28v8q21 7 37 23.5t24 37.5h8
q7 -21 23.5 -37t37.5 -24v-8z" />
    <glyph glyph-name="quotedblbase" unicode="&#x201e;" horiz-adv-x="470" 
d="M400 30q-13 -11 -42.5 -71t-48.5 -75l-11 8q12 17 19.5 36t7.5 35q0 22 -13 39t-42 28v8q21 7 37 23.5t24 37.5h8q7 -21 23.5 -37t37.5 -24v-8zM200 30q-13 -11 -42.5 -71t-48.5 -75l-11 8q12 17 19.5 36t7.5 35q0 22 -13 39t-42 28v8q21 7 37 23.5t24 37.5h8
q7 -21 23.5 -37t37.5 -24v-8z" />
    <glyph glyph-name="dagger" unicode="&#x2020;" horiz-adv-x="478" 
d="M404 317l-13 1l-1 11q-4 37 -16 51t-43 14h-58q-17 -185 -23.5 -311.5t-6.5 -225.5h-8q0 97 -3 165t-13 209q-6 91 -13 163h-59q-29 0 -42 -14t-17 -51l-1 -11l-13 -1l1 14l5 78v18l-5 78l-1 14l13 -1l1 -11q4 -37 16 -51t43 -14h54q-13 122 -27 126v8q21 7 37 23.5
t24 37.5h8q7 -21 23.5 -37t37.5 -24v-8q-6 -2 -13 -35.5t-13 -90.5h53q29 0 42 14t17 51l1 11l13 1l-1 -14l-5 -78v-18l5 -78z" />
    <glyph glyph-name="daggerdbl" unicode="&#x2021;" horiz-adv-x="412" 
d="M371 442l-107 -216q-57 -111 -88.5 -158t-64.5 -72q-12 -11 -22 -11q-6 0 -5 6q2 7 13 20q22 22 44 64q32 59 75 166l60 147h-160q-31 0 -43 -10t-16 -45l-1 -11l-14 -1l1 14l4 40t1 28v39h323z" />
    <glyph glyph-name="bullet" unicode="&#x2022;" horiz-adv-x="354" 
d="M300 311q0 -51 -36.5 -86.5t-86.5 -35.5q-51 0 -87 35t-36 87q0 51 36 87t87 36q50 0 86.5 -35.5t36.5 -87.5z" />
    <glyph glyph-name="ellipsis" unicode="&#x2026;" horiz-adv-x="900" 
d="M800 30q-18 -7 -33.5 -23.5t-27.5 -37.5h-8q-8 19 -24.5 36.5t-36.5 24.5v8q21 7 37 23.5t24 37.5h8q7 -21 23.5 -37t37.5 -24v-8zM500 30q-18 -7 -33.5 -23.5t-27.5 -37.5h-8q-8 19 -24.5 36.5t-36.5 24.5v8q21 7 37 23.5t24 37.5h8q7 -21 23.5 -37t37.5 -24v-8zM200 30
q-18 -7 -33.5 -23.5t-27.5 -37.5h-8q-8 19 -24.5 36.5t-36.5 24.5v8q21 7 37 23.5t24 37.5h8q7 -21 23.5 -37t37.5 -24v-8z" />
    <glyph glyph-name="perthousand" unicode="&#x2030;" horiz-adv-x="1086" 
d="M1028 134q0 -60 -43.5 -104.5t-107.5 -44.5q-65 0 -108 38.5t-43 102.5q0 61 43.5 104.5t107.5 43.5t107.5 -38.5t43.5 -101.5zM966 130q0 51 -28 86t-70 35q-38 0 -59.5 -34.5t-21.5 -86.5q6 -54 32.5 -88.5t67.5 -34.5q35 0 57.5 30.5t22.5 76.5q-1 11 -1 16zM378 497
q0 -60 -43.5 -104.5t-107.5 -44.5q-65 0 -108 38.5t-43 102.5q0 61 43.5 104.5t107.5 43.5t107.5 -38.5t43.5 -101.5zM641 654l-486 -681h-41l486 681h41zM678 134q0 -60 -43.5 -104.5t-107.5 -44.5q-65 0 -108 38.5t-43 102.5q0 61 43.5 104.5t107.5 43.5t107.5 -38.5
t43.5 -101.5zM316 493q0 51 -28 86t-70 35q-38 0 -59.5 -34.5t-21.5 -86.5q6 -54 32.5 -88.5t67.5 -34.5q35 0 57.5 30.5t22.5 76.5q-1 11 -1 16zM616 130q0 51 -28 86t-70 35q-38 0 -59.5 -34.5t-21.5 -86.5q6 -54 32.5 -88.5t67.5 -34.5q35 0 57.5 30.5t22.5 76.5
q-1 11 -1 16z" />
    <glyph glyph-name="guilsinglleft" unicode="&#x2039;" horiz-adv-x="440" 
d="M369 132q0 -60 -42.5 -103.5t-107.5 -43.5q-35 0 -61.5 10.5t-50.5 31.5q-14 12 -26 12q-13 0 -33 -15l-9 -5l-10 9l10 7l42 36l19 19l38 41l8 11l10 -11l-7 -9q-15 -18 -15 -32q0 -7 9.5 -28t32.5 -37t54 -16q38 0 60 34t22 84q-4 47 -34 76t-70 29q-9 0 -18 -3
q-3 -1 -9 -4l-3 5q51 42 80 78q33 40 44 80h-122q-31 0 -43 -10t-16 -45l-1 -11l-14 -1l1 14l4 40t1 28v24q0 16 -2 33.5t-3 34.5l-1 14l14 -1l1 -11q4 -35 15.5 -45t43.5 -10h174q-11 -49 -35 -93.5t-58 -78.5q48 -12 78 -50t30 -88z" />
    <glyph glyph-name="guilsinglright" unicode="&#x203a;" horiz-adv-x="470" 
d="M381 51l-14 1l-1 11q-4 35 -15.5 45t-43.5 10l-1 -49q0 -31 10 -43t45 -16l11 -1l1 -14l-14 1l-40 4t-28 1h-33q-16 0 -33.5 -2t-34.5 -3l-14 -1l1 14l11 1q35 4 45 15.5t10 43.5v49h-204l223 323h29q16 0 33.5 2t34.5 3l14 1l-1 -14l-11 -1q-35 -4 -45 -15.5t-10 -43.5
v-215q32 0 44 10t16 45l1 11l14 1l-1 -14l-4 -40t-1 -28v-10q0 -16 2 -33.5t3 -34.5zM243 158v197l-137 -197h137z" />
    <glyph glyph-name="Euro" unicode="&#x20ac;" horiz-adv-x="610" 
d="M520 321q0 -138 -60 -235q-63 -101 -155 -101q-91 0 -153 87.5t-62 228.5q0 138 61.5 237t153.5 99q91 0 153 -87.5t62 -228.5zM450 311q0 123 -46 209.5t-114 86.5q-61 0 -96 -84.5t-35 -211.5q0 -123 47 -209.5t115 -86.5q61 0 95 84.5t34 211.5zM569 391h-527v53h527
v-53zM569 163h-527v53h527v-53z" />
    <glyph glyph-name="afii61352" unicode="&#x2116;" horiz-adv-x="925" 
d="M51 9l10 1q32 4 45 17t13 42v485q0 31 -13 43t-45 16l-10 1l-1 13l13 -1l69 -5h33l69 5l13 1l-1 -13l-10 -1q-32 -4 -44.5 -17t-12.5 -42v-27l254 -343v370q0 31 -12.5 43t-44.5 16l-10 1l-1 13l12 -1l70 -5h34l70 5l12 1v9l-11 -1q-18 -2 -29 -9.5t-17.5 -18.5t-9 -24.5
t-2.5 -28.5v-485q0 -31 12.5 -43t45.5 -16l10 -1l1 -13l-12 1l-70 5h-34l-70 -5l-12 -1l1 13l10 1q32 4 44.5 17t12.5 42v20l-254 342v-362q0 -31 12.5 -43t44.5 -16l10 -1l1 -13l-13 1l-69 5h-33l-69 -5l-13 -1zM433 120v32l-254 343v-32zM861 473q0 -51 -38 -89
q-39 -37 -97 -37q-56 0 -96 32q-40 35 -40 87q0 51 39 89q42 37 97 37q30 0 54.5 -9t42.5 -24.5t28 -37.5t10 -48zM828 469q-4 46 -35 75q-31 31 -78 31q-42 0 -67 -26t-25 -67v-13q5 -44 36 -75.5t78 -31.5q41 0 67 27t26 68q0 8 -2 12zM573 236v122h10q1 -25 7 -32
q7 -10 36 -10h218q1 -6 26 -25q5 -4 10.5 -8t13.5 -8h-268q-26 0 -33.5 -6.5t-9.5 -32.5h-10z" />
    <glyph glyph-name="trademark" unicode="&#x2122;" horiz-adv-x="1020" 
d="M953 281l-12 1l-36 4t-26 1h-43v289l-110 -34v-194q0 -28 9 -39t40 -14l4 -14l-6 1l-36 4t-25 1h-30q-14 0 -29.5 -2t-31.5 -3l-5 -1l1 14q33 3 42.5 13.5t9.5 39.5v194l-111 34v-289h-43q-10 0 -29 -2.5t-32 -2.5l-13 -1l1 13l10 1q31 3 40.5 14t9.5 39v214q0 29 -9 39
t-41 14l-10 1l-1 12l13 -1q20 0 35 -2.5t26 -5.5l182 -52l182 52q8 3 24.5 5.5t37.5 2.5l12 1l-1 -12l-10 -1q-32 -4 -40.5 -13.5t-8.5 -39.5v-214q0 -28 9 -39t40 -14l10 -1zM421 663l-36 -92h-14q2 10 2 11q0 11 -27 11h-102v-245q0 -28 9 -39t40 -14l10 -1l1 -13l-12 1
l-36 4t-26 1h-29q-14 0 -30 -2t-31 -3l-13 -1l1 13l10 1q32 3 40.5 13.5t8.5 39.5v245h-84q-20 0 -30.5 -7t-22.5 -33h-14l35 92h16q-2 -10 -2 -11q0 -11 26 -11h244q19 0 29.5 7t23.5 33h13z" />
    <glyph glyph-name="partialdiff" unicode="&#x2202;" horiz-adv-x="573" 
d="M475 314q2 -13 2 -26.5v-26.5q0 -131 -59.5 -203.5t-159.5 -72.5q-76 0 -129 53t-53 137q0 82 52 141t130 59q43 0 81.5 -20t59.5 -55q0 75 -22 141q-18 55 -52 106l-117 -95l-30 31l121 98q-28 32 -66 53q-14 8 -14 15q0 6 9 6q3 0 9 -2q21 -8 45 -21t44 -29l89 72
l30 -31l-86 -70q48 -48 78.5 -113.5t37.5 -146.5zM392 180q-6 73 -43 121.5t-94 48.5q-53 0 -82.5 -48t-29.5 -122q6 -73 43 -120.5t95 -47.5q52 0 81.5 48t29.5 120z" />
    <glyph glyph-name="Delta" unicode="&#x2206;" horiz-adv-x="0" 
 />
    <glyph glyph-name="product" unicode="&#x220f;" horiz-adv-x="955" 
d="M880 -5l-14 1l-78 5h-38l-78 -5l-14 -1l1 13l11 1q37 4 51 16t14 43v384q-59 0 -113.5 11.5t-107.5 36.5v-432q0 -29 14 -42t51 -17l11 -1l1 -13l-14 1l-78 5h-38l-78 -5l-14 -1l1 13l11 1q37 4 51 16t14 43v477q-40 38 -91 61q-62 28 -130 28v-566q0 -29 14 -42t51 -17
l11 -1l1 -13l-14 1l-78 5h-38l-78 -5l-14 -1l1 13l11 1q37 4 51 16t14 43v550q0 30 -11.5 42.5t-44.5 16.5l-20 2l-1 13l23 -2l132 -10q66 0 132 -29q59 -26 114 -72q50 -41 120 -61t155 -20q24 0 51.5 2t49.5 4l22 1l-1 -13l-19 -1q-32 -4 -44 -16t-12 -43v-364
q0 -29 14 -42t51 -17l11 -1z" />
    <glyph glyph-name="fraction" unicode="&#x2215;" horiz-adv-x="458" 
d="M422 637l-323 -652h-63l323 652h63z" />
    <glyph glyph-name="radical" unicode="&#x221a;" horiz-adv-x="0" 
 />
    <glyph glyph-name="infinity" unicode="&#x221e;" horiz-adv-x="432" 
d="M355 132q0 -60 -42.5 -103.5t-108.5 -43.5q-48 0 -86 23q-44 26 -60 77q38 19 83 35q8 2 20 6l3 -14l-10 -5q-32 -15 -32 -34q0 -7 5 -17q12 -26 34.5 -37t48.5 -11q38 0 62.5 27.5t24.5 69.5q0 10 -1 15q-5 47 -33 80q-31 36 -74 36q-24 0 -44.5 -7t-36.5 -19l-16 15
l14 217h151q31 0 43 10t16 45l1 11l14 1l-1 -14l-4 -40t-1 -28v-24q0 -16 2 -33.5t3 -34.5l1 -14l-14 1l-1 11q-4 35 -15.5 45t-43.5 10h-119l-11 -132q36 19 77 19q64 0 107.5 -40.5t43.5 -102.5z" />
    <glyph glyph-name="integral" unicode="&#x222b;" horiz-adv-x="0" 
 />
    <glyph glyph-name="approxequal" unicode="&#x2248;" horiz-adv-x="0" 
 />
    <glyph glyph-name="notequal" unicode="&#x2260;" horiz-adv-x="0" 
 />
    <glyph glyph-name="lessequal" unicode="&#x2264;" horiz-adv-x="330" 
d="M255 65h-18l-147 184l147 186h18l-95 -186z" />
    <glyph glyph-name="greaterequal" unicode="&#x2265;" horiz-adv-x="330" 
d="M240 249l-147 -184h-18l95 184l-95 186h18z" />
    <glyph glyph-name="lozenge" unicode="&#x25ca;" horiz-adv-x="0" 
 />
    <glyph glyph-name="apple" unicode="&#xf000;" horiz-adv-x="0" 
 />
    <glyph glyph-name="fi" unicode="&#xf001;" horiz-adv-x="765" 
d="M652 561q-40 -16 -56 -56h-7q-16 40 -56 56v7q40 16 56 56h7q16 -40 56 -56v-7zM691 -5l-14 1l-40 4t-28 1h-33q-16 0 -33.5 -2t-34.5 -3l-14 -1l1 14l11 1q35 4 45 15.5t10 43.5v304q0 31 -10 43t-45 16l-11 1l-1 14l14 -1l40 -4t28 -1h33q16 0 33.5 2t34.5 3l14 1
l-1 -14l-11 -1q-35 -4 -45 -15.5t-10 -43.5v-304q0 -31 10 -43t45 -16l11 -1zM396 359l-16 1q-9 34 -18.5 42t-41.5 8l-125 2v-154h163v-28h-163v-161q0 -31 10 -43t45 -16l11 -1l1 -14l-14 1l-40 4t-28 1h-33q-16 0 -33.5 -2t-34.5 -3l-14 -1l1 14l11 1q35 4 45 15.5
t10 43.5v304q0 31 -10 43t-45 16l-11 1l-1 14l14 -1l40 -4t28 -1h232z" />
    <glyph glyph-name="fl" unicode="&#xf002;" horiz-adv-x="872" 
d="M863 108q-26 -34 -42 -65q-12 -23 -18 -46l-202 4h-34q-16 0 -33.5 -2t-34.5 -3l-14 -1l1 14l11 1q35 4 45 15.5t10 43.5v304q0 31 -10 43t-45 16l-11 1l-1 14l14 -1l40 -4t28 -1h33q16 0 33.5 2t34.5 3l14 1l-1 -14l-11 -1q-35 -4 -45 -15.5t-10 -43.5v-304q0 -26 5 -32
t29 -6h74q39 0 53 7t40 40l24 30h23zM396 359l-16 1q-9 34 -18.5 42t-41.5 8l-125 2v-154h163v-28h-163v-161q0 -31 10 -43t45 -16l11 -1l1 -14l-14 1l-40 4t-28 1h-33q-16 0 -33.5 -2t-34.5 -3l-14 -1l1 14l11 1q35 4 45 15.5t10 43.5v304q0 31 -10 43t-45 16l-11 1l-1 14
l14 -1l40 -4t28 -1h232z" />
    <glyph glyph-name="NULL" horiz-adv-x="0" 
 />
    <glyph glyph-name="afii10018" horiz-adv-x="626" 
d="M488 627l21 -108h-12q-9 23 -15.5 36.5t-13 20t-16 8.5t-25.5 2h-234v-212h134q32 -2 56.5 -5.5t41.5 -8.5q148 -46 148 -169q0 -79 -55 -130q-65 -60 -189 -60l-189 2l-78 -5l-14 -1l1 13l11 1q37 4 51 16t14 43v485q0 29 -14 42t-51 17l-11 1l-1 13zM496 187
q0 70 -44 114q-49 47 -131 47h-127v-202q0 -84 21 -103q20 -19 107 -19q75 0 125 47q49 46 49 116z" />
    <glyph glyph-name="glyph283" horiz-adv-x="500" 
 />
    </font>
</defs>
</svg>
